SplineFontDB: 3.0
FontName: Share-BoldItalic
FullName: Share Bold Italic
FamilyName: Share
Weight: Bold
Copyright: Copyright (c) 2005-2011, Carrois Type Design (carrois.com), with Reserved Font Name "Share"
Version: 1.001
ItalicAngle: 0
UnderlinePosition: -61
UnderlineWidth: 75
Ascent: 800
Descent: 200
sfntRevision: 0x00010000
LayerCount: 2
Layer: 0 1 "Back"  1
Layer: 1 1 "Fore"  0
XUID: [1021 382 21280302 4448717]
FSType: 0
OS2Version: 2
OS2_WeightWidthSlopeOnly: 0
OS2_UseTypoMetrics: 1
CreationTime: 1133108998
ModificationTime: 1327419336
PfmFamily: 17
TTFWeight: 700
TTFWidth: 5
LineGap: 0
VLineGap: 0
Panose: 2 0 8 6 4 0 0 2 0 4
OS2TypoAscent: 85
OS2TypoAOffset: 1
OS2TypoDescent: -42
OS2TypoDOffset: 1
OS2TypoLinegap: 0
OS2WinAscent: 0
OS2WinAOffset: 1
OS2WinDescent: 0
OS2WinDOffset: 1
HheadAscent: 0
HheadAOffset: 1
HheadDescent: 0
HheadDOffset: 1
OS2SubXSize: 700
OS2SubYSize: 650
OS2SubXOff: 0
OS2SubYOff: 140
OS2SupXSize: 700
OS2SupYSize: 650
OS2SupXOff: 0
OS2SupYOff: 477
OS2StrikeYSize: 50
OS2StrikeYPos: 250
OS2Vendor: 'PYRS'
OS2CodePages: 20000001.00000000
OS2UnicodeRanges: 800000af.4000204a.00000000.00000000
Lookup: 1 0 0 "'aalt' Access All Alternates in Latin lookup 0"  {"'aalt' Access All Alternates in Latin lookup 0 subtable"  } ['aalt' ('latn' <'dflt' > ) ]
Lookup: 4 0 0 "'frac' Diagonal Fractions in Latin lookup 1"  {"'frac' Diagonal Fractions in Latin lookup 1 subtable"  } ['frac' ('latn' <'dflt' > ) ]
Lookup: 1 0 0 "'numr' Numerators in Latin lookup 2"  {"'numr' Numerators in Latin lookup 2 subtable"  } ['numr' ('latn' <'dflt' > ) ]
Lookup: 4 0 1 "'liga' Standard Ligatures in Latin lookup 3"  {"'liga' Standard Ligatures in Latin lookup 3 subtable"  } ['liga' ('latn' <'dflt' > ) ]
Lookup: 1 0 0 "'ordn' Ordinals in Latin lookup 4"  {"'ordn' Ordinals in Latin lookup 4 subtable"  } ['ordn' ('latn' <'dflt' > ) ]
Lookup: 1 0 0 "'sups' Superscript in Latin lookup 5"  {"'sups' Superscript in Latin lookup 5 subtable" ("superior" ) } ['sups' ('latn' <'dflt' > ) ]

StartChar: .notdef
Encoding: 65536 -1 0
Width: 522
Flags: W
LayerCount: 2
Fore
SplineSet
116 700 m 1,0,-1
 508 700 l 1,1,-1
 447 0 l 1,2,-1
 55 0 l 1,3,-1
 116 700 l 1,0,-1
340 102 m 1,4,-1
 384 598 l 1,5,-1
 222 598 l 1,6,-1
 178 102 l 1,7,-1
 340 102 l 1,4,-1
EndSplineSet
EndChar

StartChar: numbersign
Encoding: 35 35 4
Width: 496
Flags: W
LayerCount: 2
Fore
SplineSet
293 425 m 1,0,-1
 233 425 l 1,1,-1
 221 285 l 1,2,-1
 281 285 l 1,3,-1
 293 425 l 1,0,-1
398 170 m 1,4,-1
 384 0 l 1,5,-1
 257 0 l 1,6,-1
 271 170 l 1,7,-1
 211 170 l 1,8,-1
 197 0 l 1,9,-1
 70 0 l 1,10,-1
 84 170 l 1,11,-1
 24 170 l 1,12,-1
 34 285 l 1,13,-1
 94 285 l 1,14,-1
 106 425 l 1,15,-1
 46 425 l 1,16,-1
 56 540 l 1,17,-1
 116 540 l 1,18,-1
 130 700 l 1,19,-1
 257 700 l 1,20,-1
 243 540 l 1,21,-1
 303 540 l 1,22,-1
 317 700 l 1,23,-1
 444 700 l 1,24,-1
 430 540 l 1,25,-1
 490 540 l 1,26,-1
 480 425 l 1,27,-1
 420 425 l 1,28,-1
 408 285 l 1,29,-1
 468 285 l 1,30,-1
 458 170 l 1,31,-1
 398 170 l 1,4,-1
EndSplineSet
EndChar

StartChar: dollar
Encoding: 36 36 5
Width: 470
Flags: W
LayerCount: 2
Fore
SplineSet
157 -110 m 1,0,-1
 166 -7 l 1,1,2
 135 -6 135 -6 105 -2.5 c 128,-1,3
 75 1 75 1 53 7 c 1,4,-1
 64 126 l 1,5,6
 87 120 87 120 119.5 115.5 c 128,-1,7
 152 111 152 111 181 111 c 0,8,9
 238 111 238 111 262.5 135 c 128,-1,10
 287 159 287 159 287 212 c 0,11,12
 287 281 287 281 214 296 c 0,13,14
 150 310 150 310 116.5 348 c 128,-1,15
 83 386 83 386 83 455 c 0,16,17
 83 537 83 537 117.5 590 c 128,-1,18
 152 643 152 643 224 664 c 1,19,-1
 235 780 l 1,20,-1
 360 780 l 1,21,-1
 350 676 l 1,22,23
 373 674 373 674 399.5 670.5 c 128,-1,24
 426 667 426 667 443 662 c 1,25,-1
 433 544 l 1,26,27
 421 547 421 547 405 549.5 c 128,-1,28
 389 552 389 552 372.5 554.5 c 128,-1,29
 356 557 356 557 339.5 558 c 128,-1,30
 323 559 323 559 310 559 c 0,31,32
 291 559 291 559 275 556 c 128,-1,33
 259 553 259 553 247.5 545 c 128,-1,34
 236 537 236 537 230 521.5 c 128,-1,35
 224 506 224 506 224 480 c 0,36,37
 224 451 224 451 238 434 c 128,-1,38
 252 417 252 417 287 409 c 0,39,40
 320 402 320 402 346 390 c 128,-1,41
 372 378 372 378 390 358 c 128,-1,42
 408 338 408 338 417.5 309.5 c 128,-1,43
 427 281 427 281 427 240 c 0,44,45
 427 185 427 185 417 144.5 c 128,-1,46
 407 104 407 104 389 76 c 128,-1,47
 371 48 371 48 346 31 c 128,-1,48
 321 14 321 14 292 5 c 1,49,-1
 282 -110 l 1,50,-1
 157 -110 l 1,0,-1
EndSplineSet
EndChar

StartChar: percent
Encoding: 37 37 6
Width: 916
Flags: W
LayerCount: 2
Fore
SplineSet
303 496 m 0,0,1
 305 516 305 516 306 531 c 128,-1,2
 307 546 307 546 307 558 c 0,3,4
 307 595 307 595 297.5 607.5 c 128,-1,5
 288 620 288 620 266 620 c 0,6,7
 251 620 251 620 241.5 615.5 c 128,-1,8
 232 611 232 611 225.5 597.5 c 128,-1,9
 219 584 219 584 214.5 559.5 c 128,-1,10
 210 535 210 535 207 496 c 0,11,12
 205 476 205 476 204 461 c 128,-1,13
 203 446 203 446 203 433 c 0,14,15
 203 397 203 397 212 384.5 c 128,-1,16
 221 372 221 372 244 372 c 0,17,18
 259 372 259 372 269 377.5 c 128,-1,19
 279 383 279 383 285.5 397 c 128,-1,20
 292 411 292 411 296 435 c 128,-1,21
 300 459 300 459 303 496 c 0,0,1
412 500 m 0,22,23
 408 453 408 453 399 413.5 c 128,-1,24
 390 374 390 374 371 345 c 128,-1,25
 352 316 352 316 319.5 299.5 c 128,-1,26
 287 283 287 283 236 283 c 0,27,28
 196 283 196 283 169 295.5 c 128,-1,29
 142 308 142 308 126 330 c 128,-1,30
 110 352 110 352 103 383 c 128,-1,31
 96 414 96 414 96 451 c 0,32,33
 96 508 96 508 103 555 c 128,-1,34
 110 602 110 602 129.5 636.5 c 128,-1,35
 149 671 149 671 184 690 c 128,-1,36
 219 709 219 709 274 709 c 0,37,38
 314 709 314 709 341 698 c 128,-1,39
 368 687 368 687 384 666 c 128,-1,40
 400 645 400 645 407 615.5 c 128,-1,41
 414 586 414 586 414 549 c 0,42,43
 414 538 414 538 414 525.5 c 128,-1,44
 414 513 414 513 412 500 c 0,22,23
385 0 m 1,45,-1
 267 0 l 1,46,-1
 573 700 l 1,47,-1
 691 700 l 1,48,-1
 385 0 l 1,45,-1
749 204 m 0,49,50
 751 224 751 224 752 239 c 128,-1,51
 753 254 753 254 753 266 c 0,52,53
 753 303 753 303 743.5 315.5 c 128,-1,54
 734 328 734 328 712 328 c 0,55,56
 697 328 697 328 687.5 323.5 c 128,-1,57
 678 319 678 319 671.5 305.5 c 128,-1,58
 665 292 665 292 660.5 267.5 c 128,-1,59
 656 243 656 243 653 204 c 0,60,61
 650 167 650 167 650 142 c 0,62,63
 650 106 650 106 658.5 93 c 128,-1,64
 667 80 667 80 690 80 c 0,65,66
 705 80 705 80 715 85.5 c 128,-1,67
 725 91 725 91 731.5 105 c 128,-1,68
 738 119 738 119 742 143 c 128,-1,69
 746 167 746 167 749 204 c 0,49,50
858 208 m 0,70,71
 854 161 854 161 845 121.5 c 128,-1,72
 836 82 836 82 817 53 c 128,-1,73
 798 24 798 24 765.5 7.5 c 128,-1,74
 733 -9 733 -9 682 -9 c 0,75,76
 642 -9 642 -9 615 3.5 c 128,-1,77
 588 16 588 16 572 38 c 128,-1,78
 556 60 556 60 549 91 c 128,-1,79
 542 122 542 122 542 159 c 0,80,81
 542 216 542 216 549 263 c 128,-1,82
 556 310 556 310 575.5 344.5 c 128,-1,83
 595 379 595 379 630 398 c 128,-1,84
 665 417 665 417 720 417 c 0,85,86
 760 417 760 417 787 406 c 128,-1,87
 814 395 814 395 830 374 c 128,-1,88
 846 353 846 353 853 323.5 c 128,-1,89
 860 294 860 294 860 257 c 0,90,91
 860 246 860 246 860 233.5 c 128,-1,92
 860 221 860 221 858 208 c 0,70,71
EndSplineSet
Ligature2: "'frac' Diagonal Fractions in Latin lookup 1 subtable" zero fraction zero
Ligature2: "'frac' Diagonal Fractions in Latin lookup 1 subtable" zero slash zero
EndChar

StartChar: ampersand
Encoding: 38 38 7
Width: 515
Flags: W
LayerCount: 2
Fore
SplineSet
54 224 m 0,0,1
 58 266 58 266 65 295 c 128,-1,2
 72 324 72 324 83.5 344.5 c 128,-1,3
 95 365 95 365 111.5 378 c 128,-1,4
 128 391 128 391 150 401 c 1,5,6
 135 410 135 410 124 423 c 128,-1,7
 113 436 113 436 106.5 451.5 c 128,-1,8
 100 467 100 467 96.5 484 c 128,-1,9
 93 501 93 501 93 516 c 2,10,-1
 93 525 l 1,11,12
 98 581 98 581 112.5 616.5 c 128,-1,13
 127 652 127 652 151.5 672.5 c 128,-1,14
 176 693 176 693 210.5 700.5 c 128,-1,15
 245 708 245 708 291 708 c 0,16,17
 310 708 310 708 330 707 c 128,-1,18
 350 706 350 706 368.5 704 c 128,-1,19
 387 702 387 702 403 699.5 c 128,-1,20
 419 697 419 697 430 695 c 1,21,-1
 420 581 l 1,22,23
 416 582 416 582 402.5 584.5 c 128,-1,24
 389 587 389 587 372 589 c 128,-1,25
 355 591 355 591 338 593 c 128,-1,26
 321 595 321 595 310 595 c 0,27,28
 286 595 286 595 270 591.5 c 128,-1,29
 254 588 254 588 244.5 578 c 128,-1,30
 235 568 235 568 231.5 551 c 128,-1,31
 228 534 228 534 228 508 c 0,32,33
 228 474 228 474 243.5 461.5 c 128,-1,34
 259 449 259 449 301 449 c 2,35,-1
 529 449 l 1,36,-1
 519 336 l 1,37,-1
 446 336 l 1,38,-1
 417 13 l 1,39,40
 376 4 376 4 327.5 -3 c 128,-1,41
 279 -10 279 -10 219 -10 c 0,42,43
 131 -10 131 -10 91 33 c 128,-1,44
 51 76 51 76 51 167 c 0,45,46
 51 178 51 178 51.5 194.5 c 128,-1,47
 52 211 52 211 54 224 c 0,0,1
276 336 m 1,48,49
 255 336 255 336 238 329.5 c 128,-1,50
 221 323 221 323 210 305 c 128,-1,51
 199 287 199 287 193 256 c 128,-1,52
 187 225 187 225 187 177 c 0,53,54
 187 140 187 140 200.5 121.5 c 128,-1,55
 214 103 214 103 246 103 c 0,56,57
 263 103 263 103 276.5 105 c 128,-1,58
 290 107 290 107 299 110 c 1,59,-1
 319 336 l 1,60,-1
 276 336 l 1,61,-1
 276 336 l 1,48,49
EndSplineSet
EndChar

StartChar: quoteright
Encoding: 8217 8217 8
Width: 235
Flags: W
LayerCount: 2
Fore
SplineSet
154 433 m 1,0,-1
 57 433 l 1,1,-1
 101 590 l 1,2,-1
 111 700 l 1,3,-1
 246 700 l 1,4,-1
 236 590 l 1,5,-1
 154 433 l 1,0,-1
EndSplineSet
EndChar

StartChar: parenleft
Encoding: 40 40 9
Width: 325
Flags: W
LayerCount: 2
Fore
SplineSet
60 350 m 0,0,1
 72 490 72 490 109 604 c 128,-1,2
 146 718 146 718 223 820 c 1,3,-1
 341 820 l 1,4,5
 305 767 305 767 280.5 714 c 128,-1,6
 256 661 256 661 239 604 c 128,-1,7
 222 547 222 547 211.5 484.5 c 128,-1,8
 201 422 201 422 195 350 c 0,9,10
 191 311 191 311 189.5 275.5 c 128,-1,11
 188 240 188 240 188 206 c 0,12,13
 188 114 188 114 204 36 c 128,-1,14
 220 -42 220 -42 259 -120 c 1,15,-1
 151 -120 l 1,16,17
 102 -35 102 -35 79 55.5 c 128,-1,18
 56 146 56 146 56 253 c 0,19,20
 56 276 56 276 57 300 c 128,-1,21
 58 324 58 324 60 350 c 0,0,1
EndSplineSet
EndChar

StartChar: parenright
Encoding: 41 41 10
Width: 325
Flags: W
LayerCount: 2
Fore
SplineSet
305 350 m 0,0,1
 293 210 293 210 256 96 c 128,-1,2
 219 -18 219 -18 142 -120 c 1,3,-1
 24 -120 l 1,4,5
 60 -67 60 -67 84.5 -14 c 128,-1,6
 109 39 109 39 126 96 c 128,-1,7
 143 153 143 153 153.5 215.5 c 128,-1,8
 164 278 164 278 170 350 c 0,9,10
 174 389 174 389 175.5 424.5 c 128,-1,11
 177 460 177 460 177 494 c 0,12,13
 177 586 177 586 161 664 c 128,-1,14
 145 742 145 742 106 820 c 1,15,-1
 214 820 l 1,16,17
 263 735 263 735 286 644.5 c 128,-1,18
 309 554 309 554 309 447 c 0,19,20
 309 424 309 424 308 400 c 128,-1,21
 307 376 307 376 305 350 c 0,0,1
EndSplineSet
EndChar

StartChar: asterisk
Encoding: 42 42 11
Width: 525
Flags: W
LayerCount: 2
Fore
SplineSet
371 496 m 1,0,1
 394 468 394 468 421 435 c 128,-1,2
 448 402 448 402 468 378 c 1,3,-1
 362 304 l 1,4,-1
 282 441 l 1,5,6
 272 425 272 425 261 406.5 c 128,-1,7
 250 388 250 388 239.5 369.5 c 128,-1,8
 229 351 229 351 219 333.5 c 128,-1,9
 209 316 209 316 200 302 c 1,10,-1
 96 380 l 1,11,-1
 195 494 l 1,12,13
 161 502 161 502 125.5 508 c 128,-1,14
 90 514 90 514 60 520 c 1,15,-1
 102 642 l 1,16,-1
 232 585 l 1,17,18
 229 620 229 620 223.5 660 c 128,-1,19
 218 700 218 700 216 730 c 1,20,-1
 350 730 l 1,21,-1
 335 585 l 1,22,23
 367 597 367 597 402.5 612.5 c 128,-1,24
 438 628 438 628 467 639 c 1,25,-1
 505 518 l 1,26,-1
 371 496 l 1,0,1
EndSplineSet
EndChar

StartChar: plus
Encoding: 43 43 12
Width: 560
Flags: W
LayerCount: 2
Fore
SplineSet
352 245 m 1,0,-1
 338 87 l 1,1,-1
 216 87 l 1,2,-1
 230 245 l 1,3,-1
 80 245 l 1,4,-1
 90 360 l 1,5,-1
 240 360 l 1,6,-1
 254 518 l 1,7,-1
 376 518 l 1,8,-1
 362 360 l 1,9,-1
 512 360 l 1,10,-1
 502 245 l 1,11,-1
 352 245 l 1,0,-1
EndSplineSet
EndChar

StartChar: comma
Encoding: 44 44 13
Width: 250
Flags: W
LayerCount: 2
Fore
SplineSet
84 -150 m 1,0,-1
 -13 -150 l 1,1,-1
 40 0 l 1,2,-1
 51 130 l 1,3,-1
 201 130 l 1,4,-1
 190 0 l 1,5,-1
 84 -150 l 1,0,-1
EndSplineSet
EndChar

StartChar: hyphen
Encoding: 45 45 14
Width: 495
Flags: W
LayerCount: 2
Fore
SplineSet
86 245 m 1,0,-1
 96 360 l 1,1,-1
 441 360 l 1,2,-1
 431 245 l 1,3,-1
 86 245 l 1,0,-1
EndSplineSet
EndChar

StartChar: period
Encoding: 46 46 15
Width: 250
Flags: W
LayerCount: 2
Fore
SplineSet
40 0 m 1,0,-1
 51 130 l 1,1,-1
 201 130 l 1,2,-1
 190 0 l 1,3,-1
 40 0 l 1,0,-1
EndSplineSet
EndChar

StartChar: slash
Encoding: 47 47 16
Width: 325
Flags: W
LayerCount: 2
Fore
SplineSet
276 810 m 1,0,-1
 405 810 l 1,1,-1
 89 -110 l 1,2,-1
 -39 -110 l 1,3,-1
 276 810 l 1,0,-1
EndSplineSet
Substitution2: "'numr' Numerators in Latin lookup 2 subtable" fraction
Substitution2: "'aalt' Access All Alternates in Latin lookup 0 subtable" fraction
EndChar

StartChar: zero
Encoding: 48 48 17
Width: 470
Flags: W
LayerCount: 2
Fore
SplineSet
322 353 m 0,0,1
 327 407 327 407 330 445.5 c 128,-1,2
 333 484 333 484 333 512 c 0,3,4
 333 538 333 538 330 555 c 128,-1,5
 327 572 327 572 320.5 581.5 c 128,-1,6
 314 591 314 591 303 594.5 c 128,-1,7
 292 598 292 598 277 598 c 0,8,9
 254 598 254 598 239.5 589 c 128,-1,10
 225 580 225 580 216 553.5 c 128,-1,11
 207 527 207 527 201 479 c 128,-1,12
 195 431 195 431 188 353 c 0,13,14
 183 298 183 298 180.5 258 c 128,-1,15
 178 218 178 218 178 190 c 0,16,17
 178 136 178 136 190 119 c 128,-1,18
 202 102 202 102 233 102 c 0,19,20
 256 102 256 102 270.5 111.5 c 128,-1,21
 285 121 285 121 294 148 c 128,-1,22
 303 175 303 175 309 224 c 128,-1,23
 315 273 315 273 322 353 c 0,0,1
456 358 m 0,24,25
 448 266 448 266 436 197 c 128,-1,26
 424 128 424 128 399.5 82.5 c 128,-1,27
 375 37 375 37 333.5 14 c 128,-1,28
 292 -9 292 -9 224 -9 c 0,29,30
 175 -9 175 -9 141.5 6 c 128,-1,31
 108 21 108 21 88 51 c 128,-1,32
 68 81 68 81 59 126.5 c 128,-1,33
 50 172 50 172 50 233 c 0,34,35
 50 289 50 289 56 358 c 0,36,37
 64 446 64 446 75 512 c 128,-1,38
 86 578 86 578 110 621.5 c 128,-1,39
 134 665 134 665 176 687 c 128,-1,40
 218 709 218 709 287 709 c 0,41,42
 337 709 337 709 371 694.5 c 128,-1,43
 405 680 405 680 425 651 c 128,-1,44
 445 622 445 622 453.5 579 c 128,-1,45
 462 536 462 536 462 478 c 0,46,47
 462 424 462 424 456 358 c 0,24,25
EndSplineSet
EndChar

StartChar: one
Encoding: 49 49 18
Width: 470
Flags: W
LayerCount: 2
Fore
SplineSet
59 0 m 1,0,-1
 68 113 l 1,1,-1
 185 113 l 1,2,-1
 226 576 l 1,3,-1
 95 526 l 1,4,-1
 105 650 l 1,5,-1
 227 700 l 1,6,-1
 370 700 l 1,7,-1
 318 113 l 1,8,-1
 414 113 l 1,9,-1
 405 0 l 1,10,-1
 59 0 l 1,0,-1
EndSplineSet
Substitution2: "'sups' Superscript in Latin lookup 5 subtable" onesuperior
Substitution2: "'numr' Numerators in Latin lookup 2 subtable" onesuperior
Substitution2: "'aalt' Access All Alternates in Latin lookup 0 subtable" onesuperior
EndChar

StartChar: two
Encoding: 50 50 19
Width: 470
Flags: W
LayerCount: 2
Fore
SplineSet
41 0 m 1,0,-1
 52 126 l 1,1,-1
 208 316 l 1,2,3
 239 351 239 351 257 377 c 128,-1,4
 275 403 275 403 284.5 426.5 c 128,-1,5
 294 450 294 450 297 474 c 128,-1,6
 300 498 300 498 300 528 c 0,7,8
 300 563 300 563 283 579.5 c 128,-1,9
 266 596 266 596 224 596 c 0,10,11
 198 596 198 596 165.5 589.5 c 128,-1,12
 133 583 133 583 109 577 c 1,13,-1
 119 693 l 1,14,15
 123 694 123 694 137 696.5 c 128,-1,16
 151 699 151 699 169.5 702 c 128,-1,17
 188 705 188 705 209 707 c 128,-1,18
 230 709 230 709 248 709 c 0,19,20
 349 709 349 709 390.5 666 c 128,-1,21
 432 623 432 623 432 540 c 0,22,23
 432 530 432 530 431.5 520.5 c 128,-1,24
 431 511 431 511 430 500 c 0,25,26
 427 465 427 465 423 439 c 128,-1,27
 419 413 419 413 409.5 389.5 c 128,-1,28
 400 366 400 366 384 341 c 128,-1,29
 368 316 368 316 341 283 c 2,30,-1
 205 114 l 1,31,-1
 399 114 l 1,32,-1
 390 0 l 1,33,-1
 41 0 l 1,0,-1
EndSplineSet
Substitution2: "'sups' Superscript in Latin lookup 5 subtable" twosuperior
Substitution2: "'numr' Numerators in Latin lookup 2 subtable" twosuperior
Substitution2: "'aalt' Access All Alternates in Latin lookup 0 subtable" twosuperior
EndChar

StartChar: three
Encoding: 51 51 20
Width: 470
Flags: W
LayerCount: 2
Fore
SplineSet
407 238 m 0,0,1
 407 171 407 171 392 124 c 128,-1,2
 377 77 377 77 349 47.5 c 128,-1,3
 321 18 321 18 280.5 4.5 c 128,-1,4
 240 -9 240 -9 190 -9 c 0,5,6
 172 -9 172 -9 149 -7 c 128,-1,7
 126 -5 126 -5 105 -2 c 128,-1,8
 84 1 84 1 68.5 3.5 c 128,-1,9
 53 6 53 6 50 7 c 1,10,-1
 60 120 l 1,11,12
 69 118 69 118 83 115 c 128,-1,13
 97 112 97 112 113.5 109 c 128,-1,14
 130 106 130 106 148.5 104 c 128,-1,15
 167 102 167 102 183 102 c 0,16,17
 227 102 227 102 249.5 134.5 c 128,-1,18
 272 167 272 167 272 228 c 0,19,20
 272 271 272 271 256 290 c 128,-1,21
 240 309 240 309 200 309 c 2,22,-1
 123 309 l 1,23,-1
 132 418 l 1,24,-1
 199 418 l 2,25,26
 246 418 246 418 267 447.5 c 128,-1,27
 288 477 288 477 288 531 c 0,28,29
 288 565 288 565 273.5 581.5 c 128,-1,30
 259 598 259 598 225 598 c 0,31,32
 192 598 192 598 160 592.5 c 128,-1,33
 128 587 128 587 105 582 c 1,34,-1
 115 694 l 1,35,36
 119 695 119 695 133 697.5 c 128,-1,37
 147 700 147 700 166.5 702.5 c 128,-1,38
 186 705 186 705 207.5 707 c 128,-1,39
 229 709 229 709 248 709 c 0,40,41
 289 709 289 709 321 701 c 128,-1,42
 353 693 353 693 375.5 674 c 128,-1,43
 398 655 398 655 410 624 c 128,-1,44
 422 593 422 593 422 547 c 0,45,46
 422 522 422 522 418 493.5 c 128,-1,47
 414 465 414 465 403.5 439.5 c 128,-1,48
 393 414 393 414 375.5 394.5 c 128,-1,49
 358 375 358 375 332 367 c 1,50,51
 368 356 368 356 387.5 325.5 c 128,-1,52
 407 295 407 295 407 238 c 0,0,1
EndSplineSet
Substitution2: "'sups' Superscript in Latin lookup 5 subtable" threesuperior
Substitution2: "'numr' Numerators in Latin lookup 2 subtable" threesuperior
Substitution2: "'aalt' Access All Alternates in Latin lookup 0 subtable" threesuperior
EndChar

StartChar: four
Encoding: 52 52 21
Width: 470
Flags: W
LayerCount: 2
Fore
SplineSet
381 156 m 1,0,-1
 368 0 l 1,1,-1
 233 0 l 1,2,-1
 246 156 l 1,3,-1
 53 156 l 1,4,-1
 64 282 l 1,5,-1
 195 700 l 1,6,-1
 325 700 l 1,7,-1
 190 269 l 1,8,-1
 256 269 l 1,9,-1
 295 457 l 1,10,-1
 407 457 l 1,11,-1
 391 269 l 1,12,-1
 451 269 l 1,13,-1
 441 156 l 1,14,-1
 381 156 l 1,0,-1
EndSplineSet
EndChar

StartChar: five
Encoding: 53 53 22
Width: 470
Flags: W
LayerCount: 2
Fore
SplineSet
244 587 m 1,0,-1
 231 441 l 1,1,-1
 236 441 l 2,2,3
 281 441 281 441 314.5 432 c 128,-1,4
 348 423 348 423 370 403 c 128,-1,5
 392 383 392 383 403 349.5 c 128,-1,6
 414 316 414 316 414 268 c 0,7,8
 414 187 414 187 398 133.5 c 128,-1,9
 382 80 382 80 353.5 48.5 c 128,-1,10
 325 17 325 17 285.5 4 c 128,-1,11
 246 -9 246 -9 199 -9 c 0,12,13
 180 -9 180 -9 158.5 -7.5 c 128,-1,14
 137 -6 137 -6 116.5 -3.5 c 128,-1,15
 96 -1 96 -1 78.5 2 c 128,-1,16
 61 5 61 5 50 7 c 1,17,-1
 60 121 l 1,18,19
 74 118 74 118 110 110.5 c 128,-1,20
 146 103 146 103 188 103 c 0,21,22
 236 103 236 103 257.5 141 c 128,-1,23
 279 179 279 179 279 248 c 0,24,25
 279 276 279 276 274 293 c 128,-1,26
 269 310 269 310 259.5 319.5 c 128,-1,27
 250 329 250 329 236 332 c 128,-1,28
 222 335 222 335 205 335 c 2,29,-1
 89 335 l 1,30,-1
 121 700 l 1,31,-1
 434 700 l 1,32,-1
 424 587 l 1,33,-1
 244 587 l 1,0,-1
EndSplineSet
EndChar

StartChar: six
Encoding: 54 54 23
Width: 470
Flags: W
LayerCount: 2
Fore
SplineSet
443 215 m 0,0,1
 437 151 437 151 418.5 107.5 c 128,-1,2
 400 64 400 64 371 38.5 c 128,-1,3
 342 13 342 13 304 2 c 128,-1,4
 266 -9 266 -9 221 -9 c 0,5,6
 184 -9 184 -9 153 2.5 c 128,-1,7
 122 14 122 14 100.5 43 c 128,-1,8
 79 72 79 72 67 121.5 c 128,-1,9
 55 171 55 171 55 246 c 0,10,11
 55 251 55 251 55.5 266 c 128,-1,12
 56 281 56 281 57 299 c 128,-1,13
 58 317 58 317 59 333 c 128,-1,14
 60 349 60 349 60 355 c 0,15,16
 69 460 69 460 89.5 528.5 c 128,-1,17
 110 597 110 597 143.5 637 c 128,-1,18
 177 677 177 677 225 693 c 128,-1,19
 273 709 273 709 338 709 c 0,20,21
 350 709 350 709 365 708 c 128,-1,22
 380 707 380 707 394.5 705.5 c 128,-1,23
 409 704 409 704 421.5 702 c 128,-1,24
 434 700 434 700 441 698 c 1,25,-1
 432 585 l 1,26,27
 412 590 412 590 385.5 594.5 c 128,-1,28
 359 599 359 599 324 599 c 0,29,30
 296 599 296 599 275.5 591 c 128,-1,31
 255 583 255 583 241 564 c 128,-1,32
 227 545 227 545 217.5 513 c 128,-1,33
 208 481 208 481 201 433 c 1,34,35
 222 444 222 444 245.5 451.5 c 128,-1,36
 269 459 269 459 295 459 c 0,37,38
 376 459 376 459 411 414.5 c 128,-1,39
 446 370 446 370 446 276 c 0,40,41
 446 248 446 248 443 215 c 0,0,1
261 351 m 0,42,43
 241 351 241 351 223.5 346 c 128,-1,44
 206 341 206 341 191 334 c 1,45,46
 187 293 187 293 185.5 262 c 128,-1,47
 184 231 184 231 184 207 c 0,48,49
 184 172 184 172 187.5 151 c 128,-1,50
 191 130 191 130 198 119 c 128,-1,51
 205 108 205 108 214.5 104.5 c 128,-1,52
 224 101 224 101 237 101 c 0,53,54
 255 101 255 101 269 108 c 128,-1,55
 283 115 283 115 292.5 134 c 128,-1,56
 302 153 302 153 307.5 185 c 128,-1,57
 313 217 313 217 313 267 c 0,58,59
 313 311 313 311 300.5 331 c 128,-1,60
 288 351 288 351 261 351 c 0,42,43
EndSplineSet
EndChar

StartChar: seven
Encoding: 55 55 24
Width: 470
Flags: W
LayerCount: 2
Fore
SplineSet
223 0 m 1,0,-1
 81 0 l 1,1,-1
 297 583 l 1,2,-1
 86 583 l 1,3,-1
 96 700 l 1,4,-1
 441 700 l 1,5,-1
 429 563 l 1,6,-1
 223 0 l 1,0,-1
EndSplineSet
EndChar

StartChar: eight
Encoding: 56 56 25
Width: 470
Flags: W
LayerCount: 2
Fore
SplineSet
319 235 m 0,0,1
 319 255 319 255 315 270 c 128,-1,2
 311 285 311 285 299.5 295.5 c 128,-1,3
 288 306 288 306 268.5 311 c 128,-1,4
 249 316 249 316 218 316 c 1,5,6
 205 308 205 308 195 298 c 128,-1,7
 185 288 185 288 178.5 271.5 c 128,-1,8
 172 255 172 255 169 230.5 c 128,-1,9
 166 206 166 206 166 170 c 0,10,11
 166 130 166 130 182 115 c 128,-1,12
 198 100 198 100 231 100 c 0,13,14
 259 100 259 100 276 109 c 128,-1,15
 293 118 293 118 302.5 135.5 c 128,-1,16
 312 153 312 153 315.5 178 c 128,-1,17
 319 203 319 203 319 235 c 0,0,1
334 541 m 0,18,19
 334 575 334 575 322.5 588.5 c 128,-1,20
 311 602 311 602 279 602 c 0,21,22
 243 602 243 602 224 576.5 c 128,-1,23
 205 551 205 551 205 484 c 0,24,25
 205 451 205 451 221.5 433 c 128,-1,26
 238 415 238 415 290 415 c 1,27,28
 304 423 304 423 312.5 437 c 128,-1,29
 321 451 321 451 325.5 468 c 128,-1,30
 330 485 330 485 332 504 c 128,-1,31
 334 523 334 523 334 541 c 0,18,19
452 234 m 0,32,33
 452 178 452 178 440.5 133 c 128,-1,34
 429 88 429 88 402 56.5 c 128,-1,35
 375 25 375 25 331.5 8 c 128,-1,36
 288 -9 288 -9 224 -9 c 0,37,38
 127 -9 127 -9 80.5 38 c 128,-1,39
 34 85 34 85 34 175 c 0,40,41
 34 218 34 218 42 249.5 c 128,-1,42
 50 281 50 281 63.5 303 c 128,-1,43
 77 325 77 325 96 338.5 c 128,-1,44
 115 352 115 352 137 358 c 1,45,46
 122 366 122 366 110 380.5 c 128,-1,47
 98 395 98 395 90 414 c 128,-1,48
 82 433 82 433 78 453.5 c 128,-1,49
 74 474 74 474 74 494 c 0,50,51
 74 552 74 552 89 593 c 128,-1,52
 104 634 104 634 132 659.5 c 128,-1,53
 160 685 160 685 199.5 697 c 128,-1,54
 239 709 239 709 287 709 c 0,55,56
 325 709 325 709 357.5 701 c 128,-1,57
 390 693 390 693 414 673.5 c 128,-1,58
 438 654 438 654 451.5 621.5 c 128,-1,59
 465 589 465 589 465 540 c 0,60,61
 465 529 465 529 462.5 506 c 128,-1,62
 460 483 460 483 450.5 457.5 c 128,-1,63
 441 432 441 432 423 408.5 c 128,-1,64
 405 385 405 385 373 374 c 1,65,66
 416 361 416 361 434 321.5 c 128,-1,67
 452 282 452 282 452 234 c 0,32,33
EndSplineSet
EndChar

StartChar: nine
Encoding: 57 57 26
Width: 470
Flags: W
LayerCount: 2
Fore
SplineSet
60 485 m 0,0,1
 66 551 66 551 84.5 594 c 128,-1,2
 103 637 103 637 132.5 662.5 c 128,-1,3
 162 688 162 688 200 698.5 c 128,-1,4
 238 709 238 709 283 709 c 0,5,6
 321 709 321 709 351.5 699 c 128,-1,7
 382 689 382 689 404 661.5 c 128,-1,8
 426 634 426 634 438 586.5 c 128,-1,9
 450 539 450 539 450 464 c 0,10,11
 450 460 450 460 449.5 445 c 128,-1,12
 449 430 449 430 448 412 c 128,-1,13
 447 394 447 394 446 378.5 c 128,-1,14
 445 363 445 363 445 358 c 0,15,16
 435 240 435 240 415 168 c 128,-1,17
 395 96 395 96 363 56.5 c 128,-1,18
 331 17 331 17 285.5 4 c 128,-1,19
 240 -9 240 -9 178 -9 c 0,20,21
 166 -9 166 -9 150.5 -8 c 128,-1,22
 135 -7 135 -7 120 -5 c 128,-1,23
 105 -3 105 -3 92 -1 c 128,-1,24
 79 1 79 1 72 3 c 1,25,-1
 82 116 l 1,26,27
 101 111 101 111 128.5 106 c 128,-1,28
 156 101 156 101 191 101 c 0,29,30
 216 101 216 101 234 107 c 128,-1,31
 252 113 252 113 265 131 c 128,-1,32
 278 149 278 149 286.5 181.5 c 128,-1,33
 295 214 295 214 302 267 c 1,34,35
 282 255 282 255 258.5 248 c 128,-1,36
 235 241 235 241 209 241 c 0,37,38
 127 241 127 241 92.5 291 c 128,-1,39
 58 341 58 341 58 432 c 0,40,41
 58 445 58 445 58 458 c 128,-1,42
 58 471 58 471 60 485 c 0,0,1
242 349 m 0,43,44
 262 349 262 349 279.5 353.5 c 128,-1,45
 297 358 297 358 312 366 c 1,46,47
 316 408 316 408 317.5 440.5 c 128,-1,48
 319 473 319 473 319 498 c 0,49,50
 319 534 319 534 315.5 554.5 c 128,-1,51
 312 575 312 575 305.5 585 c 128,-1,52
 299 595 299 595 289 597 c 128,-1,53
 279 599 279 599 266 599 c 0,54,55
 250 599 250 599 236 592 c 128,-1,56
 222 585 222 585 212 566 c 128,-1,57
 202 547 202 547 196 515 c 128,-1,58
 190 483 190 483 190 433 c 0,59,60
 190 389 190 389 202.5 369 c 128,-1,61
 215 349 215 349 242 349 c 0,43,44
EndSplineSet
EndChar

StartChar: colon
Encoding: 58 58 27
Width: 250
Flags: W
LayerCount: 2
Fore
SplineSet
40 0 m 1,0,-1
 51 130 l 1,1,-1
 201 130 l 1,2,-1
 190 0 l 1,3,-1
 40 0 l 1,0,-1
72 370 m 1,4,-1
 83 500 l 1,5,-1
 233 500 l 1,6,-1
 222 370 l 1,7,-1
 72 370 l 1,4,-1
EndSplineSet
EndChar

StartChar: semicolon
Encoding: 59 59 28
Width: 250
Flags: W
LayerCount: 2
Fore
SplineSet
84 -150 m 1,0,-1
 -13 -150 l 1,1,-1
 40 0 l 1,2,-1
 51 130 l 1,3,-1
 201 130 l 1,4,-1
 190 0 l 1,5,-1
 84 -150 l 1,0,-1
72 370 m 1,6,-1
 83 500 l 1,7,-1
 233 500 l 1,8,-1
 222 370 l 1,9,-1
 72 370 l 1,6,-1
EndSplineSet
EndChar

StartChar: less
Encoding: 60 60 29
Width: 550
Flags: W
LayerCount: 2
Fore
SplineSet
86 251 m 1,0,-1
 101 414 l 1,1,-1
 516 583 l 1,2,-1
 504 451 l 1,3,-1
 195 335 l 1,4,-1
 484 218 l 1,5,-1
 472 86 l 1,6,-1
 86 251 l 1,0,-1
EndSplineSet
EndChar

StartChar: equal
Encoding: 61 61 30
Width: 550
Flags: W
LayerCount: 2
Fore
SplineSet
77 145 m 1,0,-1
 87 260 l 1,1,-1
 487 260 l 1,2,-1
 477 145 l 1,3,-1
 77 145 l 1,0,-1
95 345 m 1,4,-1
 105 460 l 1,5,-1
 505 460 l 1,6,-1
 495 345 l 1,7,-1
 95 345 l 1,4,-1
EndSplineSet
EndChar

StartChar: greater
Encoding: 62 62 31
Width: 550
Flags: W
LayerCount: 2
Fore
SplineSet
72 86 m 1,0,-1
 84 220 l 1,1,-1
 393 337 l 1,2,-1
 104 453 l 1,3,-1
 116 583 l 1,4,-1
 501 414 l 1,5,-1
 486 251 l 1,6,-1
 72 86 l 1,0,-1
EndSplineSet
EndChar

StartChar: question
Encoding: 63 63 32
Width: 380
Flags: W
LayerCount: 2
Fore
SplineSet
72 0 m 1,0,-1
 83 130 l 1,1,-1
 233 130 l 1,2,-1
 222 0 l 1,3,-1
 72 0 l 1,0,-1
386 528 m 0,4,5
 384 502 384 502 379.5 483 c 128,-1,6
 375 464 375 464 367 448 c 128,-1,7
 359 432 359 432 347.5 417 c 128,-1,8
 336 402 336 402 320 384 c 2,9,-1
 240 296 l 1,10,-1
 233 228 l 1,11,-1
 98 228 l 1,12,-1
 108 337 l 1,13,-1
 197 435 l 2,14,15
 213 453 213 453 223.5 465.5 c 128,-1,16
 234 478 234 478 240.5 490 c 128,-1,17
 247 502 247 502 249.5 515 c 128,-1,18
 252 528 252 528 252 546 c 0,19,20
 252 572 252 572 237 583.5 c 128,-1,21
 222 595 222 595 177 595 c 0,22,23
 157 595 157 595 126.5 590.5 c 128,-1,24
 96 586 96 586 70 580 c 1,25,-1
 80 695 l 1,26,27
 90 697 90 697 106.5 699.5 c 128,-1,28
 123 702 123 702 141 704 c 128,-1,29
 159 706 159 706 177.5 707.5 c 128,-1,30
 196 709 196 709 209 709 c 0,31,32
 250 709 250 709 282.5 703 c 128,-1,33
 315 697 315 697 338.5 681 c 128,-1,34
 362 665 362 665 374.5 636 c 128,-1,35
 387 607 387 607 387 561 c 0,36,37
 387 553 387 553 387 545 c 128,-1,38
 387 537 387 537 386 528 c 0,4,5
EndSplineSet
EndChar

StartChar: at
Encoding: 64 64 33
Width: 843
Flags: W
LayerCount: 2
Fore
SplineSet
490 441 m 1,0,1
 484 443 484 443 471.5 444.5 c 128,-1,2
 459 446 459 446 444 446 c 0,3,4
 417 446 417 446 402 411 c 128,-1,5
 387 376 387 376 387 302 c 0,6,7
 387 270 387 270 395.5 257.5 c 128,-1,8
 404 245 404 245 425 245 c 0,9,10
 443 245 443 245 453 251.5 c 128,-1,11
 463 258 463 258 468.5 267.5 c 128,-1,12
 474 277 474 277 476 289 c 128,-1,13
 478 301 478 301 479 312 c 2,14,-1
 490 441 l 1,0,1
793 401 m 0,15,16
 788 344 788 344 779 292.5 c 128,-1,17
 770 241 770 241 750.5 201.5 c 128,-1,18
 731 162 731 162 696.5 139 c 128,-1,19
 662 116 662 116 605 116 c 0,20,21
 591 116 591 116 575 120.5 c 128,-1,22
 559 125 559 125 544 135 c 128,-1,23
 529 145 529 145 517.5 161.5 c 128,-1,24
 506 178 506 178 501 201 c 1,25,26
 494 192 494 192 485.5 181.5 c 128,-1,27
 477 171 477 171 463.5 163 c 128,-1,28
 450 155 450 155 431 149.5 c 128,-1,29
 412 144 412 144 385 144 c 0,30,31
 363 144 363 144 341.5 149.5 c 128,-1,32
 320 155 320 155 303.5 171.5 c 128,-1,33
 287 188 287 188 276.5 217.5 c 128,-1,34
 266 247 266 247 266 294 c 0,35,36
 266 377 266 377 283 426 c 128,-1,37
 300 475 300 475 329.5 501.5 c 128,-1,38
 359 528 359 528 399 536 c 128,-1,39
 439 544 439 544 485 544 c 0,40,41
 496 544 496 544 513.5 543 c 128,-1,42
 531 542 531 542 549 540 c 128,-1,43
 567 538 567 538 584.5 535.5 c 128,-1,44
 602 533 602 533 613 530 c 1,45,-1
 588 237 l 1,46,47
 588 224 588 224 594.5 217.5 c 128,-1,48
 601 211 601 211 611 211 c 0,49,50
 623 211 623 211 630 215.5 c 128,-1,51
 637 220 637 220 642.5 238.5 c 128,-1,52
 648 257 648 257 652 295.5 c 128,-1,53
 656 334 656 334 662 401 c 0,54,55
 664 424 664 424 665 442.5 c 128,-1,56
 666 461 666 461 666 478 c 0,57,58
 666 519 666 519 657.5 542.5 c 128,-1,59
 649 566 649 566 626.5 578.5 c 128,-1,60
 604 591 604 591 565 594.5 c 128,-1,61
 526 598 526 598 465 598 c 0,62,63
 397 598 397 598 354 588 c 128,-1,64
 311 578 311 578 284.5 550.5 c 128,-1,65
 258 523 258 523 245.5 473.5 c 128,-1,66
 233 424 233 424 226 345 c 0,67,68
 224 319 224 319 222.5 297.5 c 128,-1,69
 221 276 221 276 221 257 c 0,70,71
 221 208 221 208 230.5 177.5 c 128,-1,72
 240 147 240 147 261.5 130.5 c 128,-1,73
 283 114 283 114 319 108 c 128,-1,74
 355 102 355 102 407 102 c 0,75,76
 444 102 444 102 481.5 104.5 c 128,-1,77
 519 107 519 107 540 109 c 1,78,-1
 530 -1 l 1,79,80
 517 -3 517 -3 500 -4 c 128,-1,81
 483 -5 483 -5 465 -6.5 c 128,-1,82
 447 -8 447 -8 429.5 -8.5 c 128,-1,83
 412 -9 412 -9 398 -9 c 0,84,85
 315 -9 315 -9 256.5 4 c 128,-1,86
 198 17 198 17 161.5 47.5 c 128,-1,87
 125 78 125 78 108 129.5 c 128,-1,88
 91 181 91 181 91 258 c 0,89,90
 91 278 91 278 92 299.5 c 128,-1,91
 93 321 93 321 95 345 c 0,92,93
 104 451 104 451 127.5 521 c 128,-1,94
 151 591 151 591 194.5 633 c 128,-1,95
 238 675 238 675 304.5 692 c 128,-1,96
 371 709 371 709 465 709 c 0,97,98
 551 709 551 709 613 699 c 128,-1,99
 675 689 675 689 716 662 c 128,-1,100
 757 635 757 635 776.5 587.5 c 128,-1,101
 796 540 796 540 796 465 c 0,102,103
 796 436 796 436 793 401 c 0,15,16
EndSplineSet
EndChar

StartChar: A
Encoding: 65 65 34
Width: 545
Flags: W
LayerCount: 2
Fore
SplineSet
319 612 m 1,0,-1
 227 281 l 1,1,-1
 352 281 l 1,2,-1
 319 612 l 1,0,-1
382 0 m 1,3,-1
 364 163 l 1,4,-1
 194 163 l 1,5,-1
 148 0 l 1,6,-1
 5 0 l 1,7,-1
 224 700 l 1,8,-1
 426 700 l 1,9,-1
 520 0 l 1,10,-1
 382 0 l 1,3,-1
EndSplineSet
Substitution2: "'ordn' Ordinals in Latin lookup 4 subtable" ordfeminine
Substitution2: "'aalt' Access All Alternates in Latin lookup 0 subtable" ordfeminine
Position2: "'cpsp' Capital Spacing in Latin lookup 0 subtable" dx=5 dy=0 dh=10 dv=0
EndChar

StartChar: B
Encoding: 66 66 35
Width: 547
Flags: W
LayerCount: 2
Fore
SplineSet
362 231 m 0,0,1
 362 254 362 254 355.5 269.5 c 128,-1,2
 349 285 349 285 338.5 294.5 c 128,-1,3
 328 304 328 304 314 308 c 128,-1,4
 300 312 300 312 284 312 c 2,5,-1
 224 312 l 1,6,-1
 206 114 l 1,7,8
 217 114 217 114 229 113 c 0,9,10
 240 112 240 112 252.5 111.5 c 128,-1,11
 265 111 265 111 279 111 c 0,12,13
 302 111 302 111 318 120.5 c 128,-1,14
 334 130 334 130 343.5 146 c 128,-1,15
 353 162 353 162 357.5 184 c 128,-1,16
 362 206 362 206 362 231 c 0,0,1
373 522 m 1,17,18
 373 554 373 554 358 572 c 128,-1,19
 343 590 343 590 315 590 c 0,20,21
 303 590 303 590 291 589.5 c 128,-1,22
 279 589 279 589 269 588 c 0,23,24
 258 587 258 587 248 586 c 1,25,-1
 234 424 l 1,26,-1
 288 424 l 2,27,28
 336 424 336 424 353.5 449.5 c 128,-1,29
 371 475 371 475 373 522 c 1,17,18
499 206 m 0,30,31
 493 142 493 142 475 100.5 c 128,-1,32
 457 59 457 59 427 34.5 c 128,-1,33
 397 10 397 10 354.5 0.5 c 128,-1,34
 312 -9 312 -9 257 -9 c 0,35,36
 225 -9 225 -9 190.5 -8 c 128,-1,37
 156 -7 156 -7 127 -5 c 0,38,39
 93 -3 93 -3 60 0 c 1,40,-1
 121 700 l 1,41,42
 155 703 155 703 188 705 c 0,43,44
 217 707 217 707 248 708 c 128,-1,45
 279 709 279 709 304 709 c 0,46,47
 410 709 410 709 459.5 671.5 c 128,-1,48
 509 634 509 634 509 549 c 0,49,50
 509 503 509 503 501 472 c 128,-1,51
 493 441 493 441 479 421 c 128,-1,52
 465 401 465 401 446.5 391 c 128,-1,53
 428 381 428 381 406 377 c 1,54,55
 448 370 448 370 474.5 335 c 128,-1,56
 501 300 501 300 501 240 c 0,57,58
 501 234 501 234 500.5 223.5 c 128,-1,59
 500 213 500 213 499 206 c 0,30,31
EndSplineSet
Position2: "'cpsp' Capital Spacing in Latin lookup 0 subtable" dx=5 dy=0 dh=10 dv=0
EndChar

StartChar: C
Encoding: 67 67 36
Width: 433
Flags: W
LayerCount: 2
Fore
SplineSet
383 7 m 1,0,1
 375 5 375 5 359.5 2.5 c 128,-1,2
 344 0 344 0 326 -2 c 128,-1,3
 308 -4 308 -4 290.5 -5.5 c 128,-1,4
 273 -7 273 -7 261 -7 c 0,5,6
 215 -7 215 -7 178.5 3.5 c 128,-1,7
 142 14 142 14 117 42.5 c 128,-1,8
 92 71 92 71 79 121 c 128,-1,9
 66 171 66 171 66 249 c 0,10,11
 66 274 66 274 67 301.5 c 128,-1,12
 68 329 68 329 71 361 c 0,13,14
 81 475 81 475 101 543.5 c 128,-1,15
 121 612 121 612 152.5 648 c 128,-1,16
 184 684 184 684 229.5 695.5 c 128,-1,17
 275 707 275 707 336 707 c 0,18,19
 346 707 346 707 362 705.5 c 128,-1,20
 378 704 378 704 394.5 702 c 128,-1,21
 411 700 411 700 424.5 697.5 c 128,-1,22
 438 695 438 695 443 693 c 1,23,-1
 433 571 l 1,24,25
 408 578 408 578 374 582.5 c 128,-1,26
 340 587 340 587 313 587 c 0,27,28
 292 587 292 587 275.5 579.5 c 128,-1,29
 259 572 259 572 246.5 548 c 128,-1,30
 234 524 234 524 225 478 c 128,-1,31
 216 432 216 432 209 354 c 0,32,33
 208 347 208 347 207 329 c 128,-1,34
 206 311 206 311 205 291 c 128,-1,35
 204 271 204 271 203.5 254.5 c 128,-1,36
 203 238 203 238 203 233 c 0,37,38
 203 195 203 195 207 171.5 c 128,-1,39
 211 148 211 148 219.5 135 c 128,-1,40
 228 122 228 122 241 117.5 c 128,-1,41
 254 113 254 113 271 113 c 0,42,43
 286 113 286 113 303.5 114.5 c 128,-1,44
 321 116 321 116 338 118.5 c 128,-1,45
 355 121 355 121 369.5 123.5 c 128,-1,46
 384 126 384 126 394 128 c 1,47,-1
 383 7 l 1,0,1
EndSplineSet
Position2: "'cpsp' Capital Spacing in Latin lookup 0 subtable" dx=5 dy=0 dh=10 dv=0
EndChar

StartChar: D
Encoding: 68 68 37
Width: 546
Flags: W
LayerCount: 2
Fore
SplineSet
377 354 m 0,0,1
 383 425 383 425 383 468 c 0,2,3
 383 509 383 509 378 533 c 128,-1,4
 373 557 373 557 364 569.5 c 128,-1,5
 355 582 355 582 341.5 585.5 c 128,-1,6
 328 589 328 589 310 589 c 0,7,8
 296 589 296 589 284.5 588.5 c 128,-1,9
 273 588 273 588 265 587 c 0,10,11
 255 586 255 586 248 585 c 1,12,-1
 207 115 l 1,13,14
 212 114 212 114 221 113 c 0,15,16
 229 112 229 112 240 111.5 c 128,-1,17
 251 111 251 111 267 111 c 0,18,19
 290 111 290 111 308 122 c 128,-1,20
 326 133 326 133 339.5 160.5 c 128,-1,21
 353 188 353 188 362 235 c 128,-1,22
 371 282 371 282 377 354 c 0,0,1
517 361 m 0,23,24
 507 249 507 249 487 177 c 128,-1,25
 467 105 467 105 434.5 63.5 c 128,-1,26
 402 22 402 22 356 6 c 128,-1,27
 310 -10 310 -10 248 -10 c 0,28,29
 222 -10 222 -10 189 -8.5 c 128,-1,30
 156 -7 156 -7 127 -5 c 0,31,32
 94 -2 94 -2 60 0 c 1,33,-1
 121 700 l 1,34,35
 156 702 156 702 189 705 c 0,36,37
 218 707 218 707 248 708.5 c 128,-1,38
 278 710 278 710 299 710 c 0,39,40
 349 710 349 710 390 700 c 128,-1,41
 431 690 431 690 460 662 c 128,-1,42
 489 634 489 634 505 583.5 c 128,-1,43
 521 533 521 533 521 452 c 0,44,45
 521 432 521 432 520 409 c 128,-1,46
 519 386 519 386 517 361 c 0,23,24
EndSplineSet
Position2: "'cpsp' Capital Spacing in Latin lookup 0 subtable" dx=5 dy=0 dh=10 dv=0
EndChar

StartChar: E
Encoding: 69 69 38
Width: 478
Flags: W
LayerCount: 2
Fore
SplineSet
60 0 m 1,0,-1
 121 700 l 1,1,-1
 479 700 l 1,2,-1
 469 592 l 1,3,-1
 248 592 l 1,4,-1
 233 415 l 1,5,-1
 429 415 l 1,6,-1
 419 308 l 1,7,-1
 223 308 l 1,8,-1
 206 108 l 1,9,-1
 427 108 l 1,10,-1
 418 0 l 1,11,-1
 60 0 l 1,0,-1
EndSplineSet
Position2: "'cpsp' Capital Spacing in Latin lookup 0 subtable" dx=5 dy=0 dh=10 dv=0
EndChar

StartChar: F
Encoding: 70 70 39
Width: 483
Flags: W
LayerCount: 2
Fore
SplineSet
263 592 m 1,0,-1
 247 405 l 1,1,-1
 443 405 l 1,2,-1
 433 297 l 1,3,-1
 237 297 l 1,4,-1
 212 0 l 1,5,-1
 75 0 l 1,6,-1
 136 700 l 1,7,-1
 494 700 l 1,8,-1
 484 592 l 1,9,-1
 263 592 l 1,0,-1
EndSplineSet
Position2: "'cpsp' Capital Spacing in Latin lookup 0 subtable" dx=5 dy=0 dh=10 dv=0
EndChar

StartChar: G
Encoding: 71 71 40
Width: 510
Flags: W
LayerCount: 2
Fore
SplineSet
445 9 m 1,0,1
 404 1 404 1 358.5 -4 c 128,-1,2
 313 -9 313 -9 272 -9 c 0,3,4
 221 -9 221 -9 182 2.5 c 128,-1,5
 143 14 143 14 117.5 43.5 c 128,-1,6
 92 73 92 73 79 123 c 128,-1,7
 66 173 66 173 66 250 c 0,8,9
 66 275 66 275 67 302.5 c 128,-1,10
 68 330 68 330 71 361 c 0,11,12
 81 472 81 472 102.5 540 c 128,-1,13
 124 608 124 608 159 645.5 c 128,-1,14
 194 683 194 683 243.5 696 c 128,-1,15
 293 709 293 709 359 709 c 0,16,17
 384 709 384 709 419 705.5 c 128,-1,18
 454 702 454 702 484 695 c 1,19,-1
 474 575 l 1,20,21
 442 582 442 582 406 585.5 c 128,-1,22
 370 589 370 589 338 589 c 0,23,24
 307 589 307 589 285 580 c 128,-1,25
 263 571 263 571 248.5 545.5 c 128,-1,26
 234 520 234 520 225 474 c 128,-1,27
 216 428 216 428 209 354 c 0,28,29
 203 284 203 284 203 237 c 0,30,31
 203 199 203 199 207.5 174.5 c 128,-1,32
 212 150 212 150 221 136 c 128,-1,33
 230 122 230 122 244.5 116.5 c 128,-1,34
 259 111 259 111 279 111 c 0,35,36
 290 111 290 111 300.5 111 c 128,-1,37
 311 111 311 111 321 112 c 1,38,-1
 335 270 l 1,39,-1
 271 270 l 1,40,-1
 281 388 l 1,41,-1
 478 388 l 1,42,-1
 445 9 l 1,0,1
EndSplineSet
Position2: "'cpsp' Capital Spacing in Latin lookup 0 subtable" dx=5 dy=0 dh=10 dv=0
EndChar

StartChar: H
Encoding: 72 72 41
Width: 570
Flags: W
LayerCount: 2
Fore
SplineSet
353 0 m 1,0,-1
 378 297 l 1,1,-1
 222 297 l 1,2,-1
 197 0 l 1,3,-1
 60 0 l 1,4,-1
 121 700 l 1,5,-1
 258 700 l 1,6,-1
 232 411 l 1,7,-1
 388 411 l 1,8,-1
 414 700 l 1,9,-1
 551 700 l 1,10,-1
 490 0 l 1,11,-1
 353 0 l 1,0,-1
EndSplineSet
Position2: "'cpsp' Capital Spacing in Latin lookup 0 subtable" dx=5 dy=0 dh=10 dv=0
EndChar

StartChar: I
Encoding: 73 73 42
Width: 347
Flags: W
LayerCount: 2
Fore
SplineSet
25 0 m 1,0,-1
 34 106 l 1,1,-1
 104 106 l 1,2,-1
 146 594 l 1,3,-1
 76 594 l 1,4,-1
 86 700 l 1,5,-1
 363 700 l 1,6,-1
 353 594 l 1,7,-1
 283 594 l 1,8,-1
 241 106 l 1,9,-1
 311 106 l 1,10,-1
 302 0 l 1,11,-1
 25 0 l 1,0,-1
EndSplineSet
Position2: "'cpsp' Capital Spacing in Latin lookup 0 subtable" dx=5 dy=0 dh=10 dv=0
EndChar

StartChar: J
Encoding: 74 74 43
Width: 416
Flags: W
LayerCount: 2
Fore
SplineSet
363 261 m 1,0,1
 356 179 356 179 342.5 126 c 128,-1,2
 329 73 329 73 303.5 43 c 128,-1,3
 278 13 278 13 239 1.5 c 128,-1,4
 200 -10 200 -10 141 -10 c 0,5,6
 129 -10 129 -10 112.5 -8.5 c 128,-1,7
 96 -7 96 -7 79.5 -5 c 128,-1,8
 63 -3 63 -3 47.5 -0.5 c 128,-1,9
 32 2 32 2 20 5 c 1,10,-1
 30 125 l 1,11,12
 51 121 51 121 81 117 c 128,-1,13
 111 113 111 113 135 113 c 256,14,15
 159 113 159 113 174.5 120.5 c 128,-1,16
 190 128 190 128 200.5 144.5 c 128,-1,17
 211 161 211 161 217 188 c 128,-1,18
 223 215 223 215 226 254 c 2,19,-1
 254 582 l 1,20,-1
 112 582 l 1,21,-1
 123 700 l 1,22,-1
 402 700 l 1,23,-1
 363 261 l 1,24,-1
 363 261 l 1,0,1
EndSplineSet
Position2: "'cpsp' Capital Spacing in Latin lookup 0 subtable" dx=5 dy=0 dh=10 dv=0
EndChar

StartChar: K
Encoding: 75 75 44
Width: 547
Flags: W
LayerCount: 2
Fore
SplineSet
359 0 m 1,0,-1
 241 275 l 1,1,-1
 218 244 l 1,2,-1
 197 0 l 1,3,-1
 60 0 l 1,4,-1
 121 700 l 1,5,-1
 258 700 l 1,6,-1
 237 458 l 1,7,-1
 419 700 l 1,8,-1
 573 700 l 1,9,-1
 337 396 l 1,10,-1
 517 0 l 1,11,-1
 359 0 l 1,0,-1
EndSplineSet
Position2: "'cpsp' Capital Spacing in Latin lookup 0 subtable" dx=5 dy=0 dh=10 dv=0
EndChar

StartChar: L
Encoding: 76 76 45
Width: 420
Flags: W
LayerCount: 2
Fore
SplineSet
60 0 m 1,0,-1
 121 700 l 1,1,-1
 258 700 l 1,2,-1
 207 116 l 1,3,-1
 410 116 l 1,4,-1
 400 0 l 1,5,-1
 60 0 l 1,0,-1
EndSplineSet
Position2: "'cpsp' Capital Spacing in Latin lookup 0 subtable" dx=5 dy=0 dh=10 dv=0
EndChar

StartChar: M
Encoding: 77 77 46
Width: 666
Flags: W
LayerCount: 2
Fore
SplineSet
462 0 m 1,0,-1
 514 599 l 1,1,-1
 396 235 l 1,2,-1
 292 235 l 1,3,-1
 234 599 l 1,4,-1
 182 0 l 1,5,-1
 60 0 l 1,6,-1
 121 700 l 1,7,-1
 326 700 l 1,8,-1
 361 431 l 1,9,-1
 445 700 l 1,10,-1
 647 700 l 1,11,-1
 586 0 l 1,12,-1
 462 0 l 1,0,-1
EndSplineSet
Position2: "'cpsp' Capital Spacing in Latin lookup 0 subtable" dx=5 dy=0 dh=10 dv=0
EndChar

StartChar: N
Encoding: 78 78 47
Width: 592
Flags: W
LayerCount: 2
Fore
SplineSet
313 0 m 1,0,-1
 230 562 l 1,1,-1
 181 0 l 1,2,-1
 60 0 l 1,3,-1
 121 700 l 1,4,-1
 320 700 l 1,5,-1
 404 127 l 1,6,-1
 454 700 l 1,7,-1
 573 700 l 1,8,-1
 512 0 l 1,9,-1
 313 0 l 1,0,-1
EndSplineSet
Position2: "'cpsp' Capital Spacing in Latin lookup 0 subtable" dx=5 dy=0 dh=10 dv=0
EndChar

StartChar: O
Encoding: 79 79 48
Width: 568
Flags: W
LayerCount: 2
Fore
SplineSet
399 353 m 0,0,1
 405 424 405 424 405 469 c 0,2,3
 405 509 405 509 400.5 534.5 c 128,-1,4
 396 560 396 560 386 575 c 128,-1,5
 376 590 376 590 361.5 596 c 128,-1,6
 347 602 347 602 326 602 c 0,7,8
 299 602 299 602 280 592 c 128,-1,9
 261 582 261 582 247.5 554.5 c 128,-1,10
 234 527 234 527 225 478.5 c 128,-1,11
 216 430 216 430 209 353 c 0,12,13
 203 286 203 286 203 238 c 0,14,15
 203 157 203 157 222 127.5 c 128,-1,16
 241 98 241 98 282 98 c 0,17,18
 309 98 309 98 328 109.5 c 128,-1,19
 347 121 347 121 360.5 150 c 128,-1,20
 374 179 374 179 383.5 228 c 128,-1,21
 393 277 393 277 399 353 c 0,0,1
539 358 m 0,22,23
 531 266 531 266 517.5 197 c 128,-1,24
 504 128 504 128 475.5 82 c 128,-1,25
 447 36 447 36 399 13 c 128,-1,26
 351 -10 351 -10 273 -10 c 0,27,28
 214 -10 214 -10 174 6 c 128,-1,29
 134 22 134 22 110 53.5 c 128,-1,30
 86 85 86 85 75.5 132 c 128,-1,31
 65 179 65 179 65 242 c 0,32,33
 65 295 65 295 71 358 c 0,34,35
 79 446 79 446 92.5 512 c 128,-1,36
 106 578 106 578 135 622 c 128,-1,37
 164 666 164 666 212 688 c 128,-1,38
 260 710 260 710 336 710 c 0,39,40
 395 710 395 710 434.5 694.5 c 128,-1,41
 474 679 474 679 498.5 647.5 c 128,-1,42
 523 616 523 616 533.5 568.5 c 128,-1,43
 544 521 544 521 544 458 c 0,44,45
 544 435 544 435 542.5 410 c 128,-1,46
 541 385 541 385 539 358 c 0,22,23
EndSplineSet
Substitution2: "'ordn' Ordinals in Latin lookup 4 subtable" ordmasculine
Substitution2: "'aalt' Access All Alternates in Latin lookup 0 subtable" ordmasculine
Position2: "'cpsp' Capital Spacing in Latin lookup 0 subtable" dx=5 dy=0 dh=10 dv=0
EndChar

StartChar: P
Encoding: 80 80 49
Width: 520
Flags: W
LayerCount: 2
Fore
SplineSet
377 470 m 0,0,1
 378 478 378 478 378 485.5 c 128,-1,2
 378 493 378 493 378 501 c 0,3,4
 378 545 378 545 364 567.5 c 128,-1,5
 350 590 350 590 313 590 c 0,6,7
 281 590 281 590 264 587 c 0,8,9
 254 585 254 585 248 584 c 1,10,-1
 228 359 l 1,11,-1
 291 359 l 2,12,13
 326 359 326 359 349 389 c 128,-1,14
 372 419 372 419 377 470 c 0,0,1
516 477 m 0,15,16
 510 411 510 411 493.5 366 c 128,-1,17
 477 321 477 321 448 293 c 128,-1,18
 419 265 419 265 376 253 c 128,-1,19
 333 241 333 241 275 241 c 2,20,-1
 218 241 l 1,21,-1
 197 0 l 1,22,-1
 60 0 l 1,23,-1
 121 700 l 1,24,25
 150 702 150 702 182 705 c 0,26,27
 209 707 209 707 242 708.5 c 128,-1,28
 275 710 275 710 306 710 c 0,29,30
 364 710 364 710 404.5 697.5 c 128,-1,31
 445 685 445 685 470 660.5 c 128,-1,32
 495 636 495 636 506.5 600 c 128,-1,33
 518 564 518 564 518 518 c 0,34,35
 518 508 518 508 517.5 498 c 128,-1,36
 517 488 517 488 516 477 c 0,15,16
EndSplineSet
Position2: "'cpsp' Capital Spacing in Latin lookup 0 subtable" dx=5 dy=0 dh=10 dv=0
EndChar

StartChar: Q
Encoding: 81 81 50
Width: 568
Flags: W
LayerCount: 2
Fore
SplineSet
539 358 m 0,0,1
 533 291 533 291 524.5 235 c 128,-1,2
 516 179 516 179 500 136 c 128,-1,3
 484 93 484 93 460 62 c 128,-1,4
 436 31 436 31 398 13 c 1,5,-1
 491 0 l 1,6,-1
 480 -124 l 1,7,-1
 233 -8 l 1,8,9
 185 -3 185 -3 153 15.5 c 128,-1,10
 121 34 121 34 101.5 65 c 128,-1,11
 82 96 82 96 73.5 140.5 c 128,-1,12
 65 185 65 185 65 242 c 0,13,14
 65 295 65 295 71 358 c 0,15,16
 79 446 79 446 92.5 512 c 128,-1,17
 106 578 106 578 135 622 c 128,-1,18
 164 666 164 666 212 688 c 128,-1,19
 260 710 260 710 336 710 c 0,20,21
 395 710 395 710 434.5 694.5 c 128,-1,22
 474 679 474 679 498.5 647.5 c 128,-1,23
 523 616 523 616 533.5 568.5 c 128,-1,24
 544 521 544 521 544 458 c 0,25,26
 544 435 544 435 542.5 410 c 128,-1,27
 541 385 541 385 539 358 c 0,0,1
399 353 m 0,28,29
 405 424 405 424 405 469 c 0,30,31
 405 509 405 509 400.5 534.5 c 128,-1,32
 396 560 396 560 386 575 c 128,-1,33
 376 590 376 590 361.5 596 c 128,-1,34
 347 602 347 602 326 602 c 0,35,36
 299 602 299 602 280 592 c 128,-1,37
 261 582 261 582 247.5 554.5 c 128,-1,38
 234 527 234 527 225 478.5 c 128,-1,39
 216 430 216 430 209 353 c 0,40,41
 203 286 203 286 203 238 c 0,42,43
 203 157 203 157 222 127.5 c 128,-1,44
 241 98 241 98 282 98 c 0,45,46
 309 98 309 98 328 109.5 c 128,-1,47
 347 121 347 121 360.5 150 c 128,-1,48
 374 179 374 179 383.5 228 c 128,-1,49
 393 277 393 277 399 353 c 0,28,29
EndSplineSet
Position2: "'cpsp' Capital Spacing in Latin lookup 0 subtable" dx=5 dy=0 dh=10 dv=0
EndChar

StartChar: R
Encoding: 82 82 51
Width: 533
Flags: W
LayerCount: 2
Fore
SplineSet
510 488 m 0,0,1
 502 403 502 403 474.5 355 c 128,-1,2
 447 307 447 307 399 285 c 1,3,-1
 498 0 l 1,4,-1
 347 0 l 1,5,-1
 265 264 l 1,6,-1
 220 264 l 1,7,-1
 197 0 l 1,8,-1
 60 0 l 1,9,-1
 121 700 l 1,10,11
 150 702 150 702 182 705 c 0,12,13
 209 707 209 707 242 708.5 c 128,-1,14
 275 710 275 710 306 710 c 0,15,16
 417 710 417 710 464.5 665 c 128,-1,17
 512 620 512 620 512 528 c 0,18,19
 512 518 512 518 511.5 508.5 c 128,-1,20
 511 499 511 499 510 488 c 0,0,1
371 481 m 0,21,22
 372 490 372 490 372 498 c 128,-1,23
 372 506 372 506 372 514 c 0,24,25
 372 555 372 555 358.5 572.5 c 128,-1,26
 345 590 345 590 309 590 c 0,27,28
 285 590 285 590 267 587 c 0,29,30
 256 585 256 585 248 584 c 1,31,-1
 230 382 l 1,32,-1
 293 382 l 2,33,34
 324 382 324 382 345 407 c 128,-1,35
 366 432 366 432 371 481 c 0,21,22
EndSplineSet
Position2: "'cpsp' Capital Spacing in Latin lookup 0 subtable" dx=5 dy=0 dh=10 dv=0
EndChar

StartChar: S
Encoding: 83 83 52
Width: 424
Flags: W
LayerCount: 2
Fore
SplineSet
414 252 m 0,0,1
 414 244 414 244 413.5 235 c 128,-1,2
 413 226 413 226 412 217 c 0,3,4
 405 145 405 145 385.5 101 c 128,-1,5
 366 57 366 57 334 33 c 128,-1,6
 302 9 302 9 259 1 c 128,-1,7
 216 -7 216 -7 162 -7 c 0,8,9
 146 -7 146 -7 126.5 -6 c 128,-1,10
 107 -5 107 -5 87.5 -3 c 128,-1,11
 68 -1 68 -1 50.5 2 c 128,-1,12
 33 5 33 5 21 8 c 1,13,-1
 32 127 l 1,14,15
 43 124 43 124 59.5 121 c 128,-1,16
 76 118 76 118 94 116 c 128,-1,17
 112 114 112 114 130 112.5 c 128,-1,18
 148 111 148 111 162 111 c 0,19,20
 212 111 212 111 242.5 136.5 c 128,-1,21
 273 162 273 162 273 225 c 0,22,23
 273 266 273 266 253 282 c 128,-1,24
 233 298 233 298 196 307 c 0,25,26
 121 325 121 325 89.5 367 c 128,-1,27
 58 409 58 409 58 472 c 0,28,29
 58 594 58 594 118.5 650.5 c 128,-1,30
 179 707 179 707 312 707 c 0,31,32
 326 707 326 707 343.5 706 c 128,-1,33
 361 705 361 705 378 703 c 128,-1,34
 395 701 395 701 411 698.5 c 128,-1,35
 427 696 427 696 437 693 c 1,36,-1
 427 574 l 1,37,38
 401 582 401 582 366.5 585.5 c 128,-1,39
 332 589 332 589 294 589 c 0,40,41
 246 589 246 589 222 565 c 128,-1,42
 198 541 198 541 198 487 c 0,43,44
 198 458 198 458 213.5 445.5 c 128,-1,45
 229 433 229 433 270 424 c 0,46,47
 302 417 302 417 328.5 404 c 128,-1,48
 355 391 355 391 374 370.5 c 128,-1,49
 393 350 393 350 403.5 321 c 128,-1,50
 414 292 414 292 414 252 c 0,0,1
EndSplineSet
Position2: "'cpsp' Capital Spacing in Latin lookup 0 subtable" dx=5 dy=0 dh=10 dv=0
EndChar

StartChar: T
Encoding: 84 84 53
Width: 445
Flags: W
LayerCount: 2
Fore
SplineSet
331 579 m 1,0,-1
 281 0 l 1,1,-1
 144 0 l 1,2,-1
 194 579 l 1,3,-1
 50 579 l 1,4,-1
 61 700 l 1,5,-1
 486 700 l 1,6,-1
 475 579 l 1,7,-1
 331 579 l 1,0,-1
EndSplineSet
Position2: "'cpsp' Capital Spacing in Latin lookup 0 subtable" dx=5 dy=0 dh=10 dv=0
EndChar

StartChar: U
Encoding: 85 85 54
Width: 555
Flags: W
LayerCount: 2
Fore
SplineSet
498 215 m 2,0,1
 492 153 492 153 476 110.5 c 128,-1,2
 460 68 460 68 431.5 42 c 128,-1,3
 403 16 403 16 362.5 4.5 c 128,-1,4
 322 -7 322 -7 267 -7 c 0,5,6
 224 -7 224 -7 187.5 2.5 c 128,-1,7
 151 12 151 12 125.5 34 c 128,-1,8
 100 56 100 56 85.5 92 c 128,-1,9
 71 128 71 128 71 180 c 0,10,11
 71 188 71 188 71.5 197 c 128,-1,12
 72 206 72 206 73 215 c 2,13,-1
 116 700 l 1,14,-1
 253 700 l 1,15,-1
 210 211 l 2,16,17
 209 200 209 200 208.5 193 c 128,-1,18
 208 186 208 186 208 181 c 0,19,20
 208 111 208 111 277 111 c 0,21,22
 316 111 316 111 336 132.5 c 128,-1,23
 356 154 356 154 360 196 c 2,24,-1
 404 700 l 1,25,-1
 541 700 l 1,26,-1
 498 215 l 2,0,1
EndSplineSet
Position2: "'cpsp' Capital Spacing in Latin lookup 0 subtable" dx=5 dy=0 dh=10 dv=0
EndChar

StartChar: V
Encoding: 86 86 55
Width: 542
Flags: W
LayerCount: 2
Fore
SplineSet
366 0 m 1,0,-1
 155 0 l 1,1,-1
 76 700 l 1,2,-1
 217 700 l 1,3,-1
 269 98 l 1,4,-1
 431 700 l 1,5,-1
 568 700 l 1,6,-1
 366 0 l 1,0,-1
EndSplineSet
Position2: "'cpsp' Capital Spacing in Latin lookup 0 subtable" dx=5 dy=0 dh=10 dv=0
EndChar

StartChar: W
Encoding: 87 87 56
Width: 628
Flags: W
LayerCount: 2
Fore
SplineSet
539 0 m 1,0,-1
 346 0 l 1,1,-1
 324 235 l 1,2,-1
 254 0 l 1,3,-1
 69 0 l 1,4,-1
 96 700 l 1,5,-1
 216 700 l 1,6,-1
 191 107 l 1,7,-1
 288 405 l 1,8,-1
 402 405 l 1,9,-1
 439 107 l 1,10,-1
 519 700 l 1,11,-1
 634 700 l 1,12,-1
 539 0 l 1,0,-1
EndSplineSet
Position2: "'cpsp' Capital Spacing in Latin lookup 0 subtable" dx=5 dy=0 dh=10 dv=0
EndChar

StartChar: X
Encoding: 88 88 57
Width: 525
Flags: W
LayerCount: 2
Fore
SplineSet
347 0 m 1,0,-1
 275 232 l 1,1,-1
 156 0 l 1,2,-1
 5 0 l 1,3,-1
 216 363 l 1,4,-1
 86 700 l 1,5,-1
 238 700 l 1,6,-1
 302 493 l 1,7,-1
 405 700 l 1,8,-1
 554 700 l 1,9,-1
 357 364 l 1,10,-1
 500 0 l 1,11,-1
 347 0 l 1,0,-1
EndSplineSet
Position2: "'cpsp' Capital Spacing in Latin lookup 0 subtable" dx=5 dy=0 dh=10 dv=0
EndChar

StartChar: Y
Encoding: 89 89 58
Width: 531
Flags: W
LayerCount: 2
Fore
SplineSet
350 308 m 1,0,-1
 324 0 l 1,1,-1
 184 0 l 1,2,-1
 210 308 l 1,3,-1
 61 700 l 1,4,-1
 206 700 l 1,5,-1
 293 430 l 1,6,-1
 428 700 l 1,7,-1
 572 700 l 1,8,-1
 350 308 l 1,0,-1
EndSplineSet
Position2: "'cpsp' Capital Spacing in Latin lookup 0 subtable" dx=5 dy=0 dh=10 dv=0
EndChar

StartChar: Z
Encoding: 90 90 59
Width: 466
Flags: W
LayerCount: 2
Fore
SplineSet
187 119 m 1,0,-1
 421 119 l 1,1,-1
 411 0 l 1,2,-1
 25 0 l 1,3,-1
 36 133 l 1,4,-1
 320 581 l 1,5,-1
 98 581 l 1,6,-1
 109 700 l 1,7,-1
 482 700 l 1,8,-1
 470 567 l 1,9,-1
 187 119 l 1,0,-1
EndSplineSet
Position2: "'cpsp' Capital Spacing in Latin lookup 0 subtable" dx=5 dy=0 dh=10 dv=0
EndChar

StartChar: bracketleft
Encoding: 91 91 60
Width: 330
Flags: W
LayerCount: 2
Fore
SplineSet
49 -120 m 1,0,-1
 131 820 l 1,1,-1
 351 820 l 1,2,-1
 341 705 l 1,3,-1
 251 705 l 1,4,-1
 190 0 l 1,5,-1
 280 0 l 1,6,-1
 269 -120 l 1,7,-1
 49 -120 l 1,0,-1
EndSplineSet
EndChar

StartChar: backslash
Encoding: 92 92 61
Width: 325
Flags: W
LayerCount: 2
Fore
SplineSet
35 810 m 1,0,-1
 164 810 l 1,1,-1
 330 -110 l 1,2,-1
 201 -110 l 1,3,-1
 35 810 l 1,0,-1
EndSplineSet
EndChar

StartChar: bracketright
Encoding: 93 93 62
Width: 330
Flags: W
LayerCount: 2
Fore
SplineSet
19 -120 m 1,0,-1
 30 0 l 1,1,-1
 120 0 l 1,2,-1
 181 705 l 1,3,-1
 91 705 l 1,4,-1
 101 820 l 1,5,-1
 321 820 l 1,6,-1
 239 -120 l 1,7,-1
 19 -120 l 1,0,-1
EndSplineSet
EndChar

StartChar: asciicircum
Encoding: 94 94 63
Width: 497
Flags: W
LayerCount: 2
Fore
SplineSet
345 420 m 1,0,-1
 301 660 l 1,1,-1
 197 420 l 1,2,-1
 56 420 l 1,3,-1
 220 760 l 1,4,-1
 394 760 l 1,5,-1
 493 420 l 1,6,-1
 345 420 l 1,0,-1
EndSplineSet
EndChar

StartChar: underscore
Encoding: 95 95 64
Width: 510
Flags: W
LayerCount: 2
Fore
SplineSet
-21 -170 m 1,0,-1
 -11 -50 l 1,1,-1
 492 -50 l 1,2,-1
 482 -170 l 1,3,-1
 -21 -170 l 1,0,-1
EndSplineSet
EndChar

StartChar: quoteleft
Encoding: 8216 8216 65
Width: 235
Flags: W
LayerCount: 2
Fore
SplineSet
163 699 m 1,0,-1
 256 699 l 1,1,-1
 212 542 l 1,2,-1
 202 432 l 1,3,-1
 67 432 l 1,4,-1
 77 542 l 1,5,-1
 163 699 l 1,0,-1
EndSplineSet
EndChar

StartChar: a
Encoding: 97 97 66
Width: 521
Flags: W
LayerCount: 2
Fore
SplineSet
60 237 m 0,0,1
 67 314 67 314 84 366 c 128,-1,2
 101 418 101 418 131.5 450 c 128,-1,3
 162 482 162 482 207 495.5 c 128,-1,4
 252 509 252 509 314 509 c 0,5,6
 354 509 354 509 399.5 501.5 c 128,-1,7
 445 494 445 494 478 485 c 1,8,-1
 448 127 l 1,9,10
 448 114 448 114 455 107 c 128,-1,11
 462 100 462 100 484 100 c 1,12,-1
 476 0 l 1,13,-1
 418 0 l 2,14,15
 407 0 407 0 393.5 2 c 128,-1,16
 380 4 380 4 367 10.5 c 128,-1,17
 354 17 354 17 344.5 28 c 128,-1,18
 335 39 335 39 331 57 c 1,19,20
 306 26 306 26 273.5 8.5 c 128,-1,21
 241 -9 241 -9 196 -9 c 0,22,23
 124 -9 124 -9 90.5 30.5 c 128,-1,24
 57 70 57 70 57 167 c 0,25,26
 57 200 57 200 60 237 c 0,0,1
241 105 m 0,27,28
 261 105 261 105 275.5 116 c 128,-1,29
 290 127 290 127 300 144.5 c 128,-1,30
 310 162 310 162 316 182.5 c 128,-1,31
 322 203 322 203 323 221 c 2,32,-1
 337 393 l 1,33,34
 326 394 326 394 315 394.5 c 128,-1,35
 304 395 304 395 295 395 c 0,36,37
 275 395 275 395 256.5 386.5 c 128,-1,38
 238 378 238 378 223.5 354 c 128,-1,39
 209 330 209 330 200.5 287.5 c 128,-1,40
 192 245 192 245 192 177 c 0,41,42
 192 133 192 133 203.5 119 c 128,-1,43
 215 105 215 105 241 105 c 0,27,28
EndSplineSet
Substitution2: "'ordn' Ordinals in Latin lookup 4 subtable" ordfeminine
Substitution2: "'aalt' Access All Alternates in Latin lookup 0 subtable" ordfeminine
EndChar

StartChar: b
Encoding: 98 98 67
Width: 517
Flags: W
LayerCount: 2
Fore
SplineSet
482 272 m 0,0,1
 475 188 475 188 455.5 133.5 c 128,-1,2
 436 79 436 79 404 47.5 c 128,-1,3
 372 16 372 16 327.5 3.5 c 128,-1,4
 283 -9 283 -9 225 -9 c 0,5,6
 179 -9 179 -9 141 -5 c 128,-1,7
 103 -1 103 -1 55 5 c 1,8,-1
 116 700 l 1,9,-1
 249 700 l 1,10,-1
 228 462 l 1,11,12
 251 484 251 484 280 496.5 c 128,-1,13
 309 509 309 509 347 509 c 0,14,15
 418 509 418 509 451.5 464.5 c 128,-1,16
 485 420 485 420 485 332 c 0,17,18
 485 321 485 321 484.5 303 c 128,-1,19
 484 285 484 285 482 272 c 0,0,1
302 395 m 0,20,21
 283 395 283 395 267 385 c 128,-1,22
 251 375 251 375 240 359 c 128,-1,23
 229 343 229 343 222 323.5 c 128,-1,24
 215 304 215 304 213 286 c 2,25,-1
 197 107 l 1,26,27
 209 106 209 106 221 105.5 c 128,-1,28
 233 105 233 105 244 105 c 0,29,30
 262 105 262 105 278 110.5 c 128,-1,31
 294 116 294 116 307.5 132.5 c 128,-1,32
 321 149 321 149 331.5 180.5 c 128,-1,33
 342 212 342 212 348 263 c 0,34,35
 351 289 351 289 351 316 c 0,36,37
 351 363 351 363 338.5 379 c 128,-1,38
 326 395 326 395 302 395 c 0,20,21
EndSplineSet
EndChar

StartChar: c
Encoding: 99 99 68
Width: 408
Flags: W
LayerCount: 2
Fore
SplineSet
358 6 m 1,0,1
 333 -1 333 -1 301 -5 c 128,-1,2
 269 -9 269 -9 242 -9 c 0,3,4
 201 -9 201 -9 167.5 -1.5 c 128,-1,5
 134 6 134 6 110 28 c 128,-1,6
 86 50 86 50 73 89.5 c 128,-1,7
 60 129 60 129 60 193 c 0,8,9
 60 279 60 279 74 339 c 128,-1,10
 88 399 88 399 116 437 c 128,-1,11
 144 475 144 475 187 492 c 128,-1,12
 230 509 230 509 288 509 c 0,13,14
 313 509 313 509 346 504.5 c 128,-1,15
 379 500 379 500 401 495 c 1,16,-1
 391 378 l 1,17,18
 377 381 377 381 366 383.5 c 128,-1,19
 355 386 355 386 343 388 c 128,-1,20
 331 390 331 390 317 391 c 128,-1,21
 303 392 303 392 284 392 c 0,22,23
 267 392 267 392 253 386 c 128,-1,24
 239 380 239 380 228.5 363.5 c 128,-1,25
 218 347 218 347 210.5 317.5 c 128,-1,26
 203 288 203 288 198 240 c 0,27,28
 197 229 197 229 196.5 219.5 c 128,-1,29
 196 210 196 210 196 201 c 0,30,31
 196 148 196 148 211.5 128 c 128,-1,32
 227 108 227 108 257 108 c 0,33,34
 295 108 295 108 320.5 113 c 128,-1,35
 346 118 346 118 368 122 c 1,36,-1
 358 6 l 1,0,1
EndSplineSet
EndChar

StartChar: d
Encoding: 100 100 69
Width: 527
Flags: W
LayerCount: 2
Fore
SplineSet
63 242 m 0,0,1
 69 316 69 316 86.5 367 c 128,-1,2
 104 418 104 418 135.5 449.5 c 128,-1,3
 167 481 167 481 213 495 c 128,-1,4
 259 509 259 509 323 509 c 0,5,6
 334 509 334 509 343.5 508.5 c 128,-1,7
 353 508 353 508 363 507 c 1,8,-1
 380 700 l 1,9,-1
 513 700 l 1,10,-1
 452 0 l 1,11,-1
 344 0 l 1,12,-1
 338 57 l 1,13,14
 312 26 312 26 278.5 8.5 c 128,-1,15
 245 -9 245 -9 201 -9 c 0,16,17
 125 -9 125 -9 92 30.5 c 128,-1,18
 59 70 59 70 59 164 c 0,19,20
 59 181 59 181 60 201.5 c 128,-1,21
 61 222 61 222 63 242 c 0,0,1
246 105 m 0,22,23
 268 105 268 105 285 117.5 c 128,-1,24
 302 130 302 130 313.5 149 c 128,-1,25
 325 168 325 168 331.5 190 c 128,-1,26
 338 212 338 212 339 230 c 2,27,-1
 353 392 l 1,28,29
 340 394 340 394 327.5 394.5 c 128,-1,30
 315 395 315 395 304 395 c 0,31,32
 282 395 282 395 262 386.5 c 128,-1,33
 242 378 242 378 227 354.5 c 128,-1,34
 212 331 212 331 203.5 289 c 128,-1,35
 195 247 195 247 195 180 c 0,36,37
 195 134 195 134 207 119.5 c 128,-1,38
 219 105 219 105 246 105 c 0,22,23
EndSplineSet
EndChar

StartChar: e
Encoding: 101 101 70
Width: 484
Flags: W
LayerCount: 2
Fore
SplineSet
459 364 m 0,0,1
 459 323 459 323 448.5 291 c 128,-1,2
 438 259 438 259 415 237 c 128,-1,3
 392 215 392 215 354 203.5 c 128,-1,4
 316 192 316 192 262 192 c 0,5,6
 246 192 246 192 228.5 192.5 c 128,-1,7
 211 193 211 193 192 195 c 1,8,-1
 192 187 l 2,9,10
 192 140 192 140 208.5 122.5 c 128,-1,11
 225 105 225 105 268 105 c 0,12,13
 302 105 302 105 338 110 c 128,-1,14
 374 115 374 115 397 120 c 1,15,-1
 387 8 l 1,16,17
 375 5 375 5 358 1.5 c 128,-1,18
 341 -2 341 -2 323.5 -4 c 128,-1,19
 306 -6 306 -6 289 -7.5 c 128,-1,20
 272 -9 272 -9 258 -9 c 0,21,22
 213 -9 213 -9 176.5 -1.5 c 128,-1,23
 140 6 140 6 114 27.5 c 128,-1,24
 88 49 88 49 73.5 88.5 c 128,-1,25
 59 128 59 128 59 192 c 0,26,27
 59 219 59 219 62 250 c 0,28,29
 68 319 68 319 85 368.5 c 128,-1,30
 102 418 102 418 130 449 c 128,-1,31
 158 480 158 480 198 494.5 c 128,-1,32
 238 509 238 509 290 509 c 0,33,34
 343 509 343 509 376 494 c 128,-1,35
 409 479 409 479 427.5 457 c 128,-1,36
 446 435 446 435 452.5 409.5 c 128,-1,37
 459 384 459 384 459 364 c 0,0,1
278 399 m 0,38,39
 249 399 249 399 231 377 c 128,-1,40
 213 355 213 355 202 299 c 1,41,42
 228 296 228 296 249 296 c 0,43,44
 285 296 285 296 306.5 307.5 c 128,-1,45
 328 319 328 319 328 348 c 0,46,47
 328 369 328 369 319.5 384 c 128,-1,48
 311 399 311 399 278 399 c 0,38,39
EndSplineSet
EndChar

StartChar: f
Encoding: 102 102 71
Width: 341
Flags: W
LayerCount: 2
Fore
SplineSet
113 387 m 1,0,-1
 48 387 l 1,1,-1
 58 500 l 1,2,-1
 123 500 l 1,3,-1
 127 540 l 2,4,5
 132 591 132 591 144 624 c 128,-1,6
 156 657 156 657 175.5 676 c 128,-1,7
 195 695 195 695 224 702 c 128,-1,8
 253 709 253 709 293 709 c 0,9,10
 325 709 325 709 356 704.5 c 128,-1,11
 387 700 387 700 401 697 c 1,12,-1
 392 584 l 1,13,14
 376 588 376 588 355.5 591.5 c 128,-1,15
 335 595 335 595 308 595 c 0,16,17
 283 595 283 595 273 582.5 c 128,-1,18
 263 570 263 570 261 549 c 2,19,-1
 257 500 l 1,20,-1
 365 500 l 1,21,-1
 355 387 l 1,22,-1
 247 387 l 1,23,-1
 212 -13 l 2,24,25
 208 -63 208 -63 196.5 -94.5 c 128,-1,26
 185 -126 185 -126 164 -144.5 c 128,-1,27
 143 -163 143 -163 112 -170 c 128,-1,28
 81 -177 81 -177 39 -177 c 0,29,30
 16 -177 16 -177 -4.5 -175.5 c 128,-1,31
 -25 -174 -25 -174 -45 -172 c 1,32,-1
 -35 -59 l 1,33,34
 -22 -61 -22 -61 -3 -62 c 128,-1,35
 16 -63 16 -63 27 -63 c 0,36,37
 54 -63 54 -63 65 -53.5 c 128,-1,38
 76 -44 76 -44 78 -18 c 2,39,-1
 113 387 l 1,0,-1
EndSplineSet
EndChar

StartChar: g
Encoding: 103 103 72
Width: 527
Flags: W
LayerCount: 2
Fore
SplineSet
453 20 m 1,0,1
 448 -40 448 -40 433.5 -80.5 c 128,-1,2
 419 -121 419 -121 393.5 -146 c 128,-1,3
 368 -171 368 -171 330 -181.5 c 128,-1,4
 292 -192 292 -192 241 -192 c 0,5,6
 222 -192 222 -192 201 -190.5 c 128,-1,7
 180 -189 180 -189 159.5 -186.5 c 128,-1,8
 139 -184 139 -184 120.5 -181 c 128,-1,9
 102 -178 102 -178 88 -175 c 1,10,-1
 98 -67 l 1,11,12
 131 -74 131 -74 161 -79 c 128,-1,13
 191 -84 191 -84 226 -84 c 0,14,15
 276 -84 276 -84 296 -62.5 c 128,-1,16
 316 -41 316 -41 320 10 c 2,17,-1
 323 49 l 1,18,19
 299 26 299 26 269 13.5 c 128,-1,20
 239 1 239 1 201 1 c 0,21,22
 128 1 128 1 94 40 c 128,-1,23
 60 79 60 79 60 175 c 256,24,25
 60 271 60 271 76 335 c 128,-1,26
 92 399 92 399 124 437.5 c 128,-1,27
 156 476 156 476 206 492.5 c 128,-1,28
 256 509 256 509 323 509 c 0,29,30
 370 509 370 509 410.5 502.5 c 128,-1,31
 451 496 451 496 494 485 c 1,32,-1
 453 20 l 1,33,-1
 453 20 l 1,0,1
246 115 m 0,34,35
 266 115 266 115 282.5 125 c 128,-1,36
 299 135 299 135 311 150.5 c 128,-1,37
 323 166 323 166 330 185 c 128,-1,38
 337 204 337 204 338 222 c 2,39,-1
 352 392 l 1,40,41
 340 394 340 394 327.5 394.5 c 128,-1,42
 315 395 315 395 304 395 c 0,43,44
 282 395 282 395 262 387.5 c 128,-1,45
 242 380 242 380 227 357.5 c 128,-1,46
 212 335 212 335 203.5 294 c 128,-1,47
 195 253 195 253 195 187 c 0,48,49
 195 143 195 143 207 129 c 128,-1,50
 219 115 219 115 246 115 c 0,34,35
EndSplineSet
EndChar

StartChar: h
Encoding: 104 104 73
Width: 524
Flags: W
LayerCount: 2
Fore
SplineSet
55 0 m 1,0,-1
 116 700 l 1,1,-1
 249 700 l 1,2,-1
 228 463 l 1,3,4
 251 484 251 484 281 496.5 c 128,-1,5
 311 509 311 509 347 509 c 0,6,7
 423 509 423 509 453 472.5 c 128,-1,8
 483 436 483 436 483 358 c 0,9,10
 483 347 483 347 482.5 336.5 c 128,-1,11
 482 326 482 326 480 300 c 2,12,-1
 454 0 l 1,13,-1
 321 0 l 1,14,-1
 347 303 l 2,15,16
 348 310 348 310 348.5 320.5 c 128,-1,17
 349 331 349 331 349 336 c 0,18,19
 349 371 349 371 336.5 382.5 c 128,-1,20
 324 394 324 394 300 394 c 0,21,22
 281 394 281 394 266 384 c 128,-1,23
 251 374 251 374 239.5 358.5 c 128,-1,24
 228 343 228 343 221.5 324 c 128,-1,25
 215 305 215 305 213 287 c 2,26,-1
 188 0 l 1,27,-1
 55 0 l 1,0,-1
EndSplineSet
EndChar

StartChar: i
Encoding: 105 105 74
Width: 263
Flags: W
LayerCount: 2
Fore
SplineSet
101 585 m 1,0,-1
 111 700 l 1,1,-1
 254 700 l 1,2,-1
 244 585 l 1,3,-1
 101 585 l 1,0,-1
55 0 m 1,4,-1
 98 500 l 1,5,-1
 231 500 l 1,6,-1
 188 0 l 1,7,-1
 55 0 l 1,4,-1
EndSplineSet
EndChar

StartChar: j
Encoding: 106 106 75
Width: 263
Flags: W
LayerCount: 2
Fore
SplineSet
186 -13 m 2,0,1
 181 -63 181 -63 169.5 -95 c 128,-1,2
 158 -127 158 -127 137.5 -145 c 128,-1,3
 117 -163 117 -163 86.5 -170 c 128,-1,4
 56 -177 56 -177 14 -177 c 0,5,6
 -9 -177 -9 -177 -29.5 -175.5 c 128,-1,7
 -50 -174 -50 -174 -70 -172 c 1,8,-1
 -60 -60 l 1,9,10
 -47 -62 -47 -62 -28 -62.5 c 128,-1,11
 -9 -63 -9 -63 2 -63 c 0,12,13
 29 -63 29 -63 40 -53.5 c 128,-1,14
 51 -44 51 -44 53 -18 c 2,15,-1
 98 500 l 1,16,-1
 231 500 l 1,17,-1
 186 -13 l 2,0,1
101 585 m 1,18,-1
 111 700 l 1,19,-1
 254 700 l 1,20,-1
 244 585 l 1,21,-1
 101 585 l 1,18,-1
EndSplineSet
EndChar

StartChar: k
Encoding: 107 107 76
Width: 495
Flags: W
LayerCount: 2
Fore
SplineSet
322 0 m 1,0,-1
 227 204 l 1,1,-1
 203 175 l 1,2,-1
 188 0 l 1,3,-1
 55 0 l 1,4,-1
 116 700 l 1,5,-1
 249 700 l 1,6,-1
 219 357 l 1,7,-1
 347 500 l 1,8,-1
 503 500 l 1,9,-1
 318 299 l 1,10,-1
 470 0 l 1,11,-1
 322 0 l 1,0,-1
EndSplineSet
EndChar

StartChar: l
Encoding: 108 108 77
Width: 290
Flags: W
LayerCount: 2
Fore
SplineSet
255 3 m 1,0,1
 244 1 244 1 218 -2 c 128,-1,2
 192 -5 192 -5 163 -5 c 0,3,4
 106 -5 106 -5 85.5 21 c 128,-1,5
 65 47 65 47 65 101 c 0,6,7
 65 112 65 112 65.5 123.5 c 128,-1,8
 66 135 66 135 67 148 c 2,9,-1
 116 700 l 1,10,-1
 249 700 l 1,11,-1
 203 176 l 2,12,13
 200 146 200 146 200 139 c 0,14,15
 200 123 200 123 206 116.5 c 128,-1,16
 212 110 212 110 228 110 c 0,17,18
 239 110 239 110 249.5 111.5 c 128,-1,19
 260 113 260 113 264 114 c 1,20,-1
 255 3 l 1,0,1
EndSplineSet
EndChar

StartChar: m
Encoding: 109 109 78
Width: 750
Flags: W
LayerCount: 2
Fore
SplineSet
55 0 m 1,0,-1
 98 500 l 1,1,-1
 206 500 l 1,2,-1
 211 449 l 1,3,4
 234 475 234 475 265.5 492 c 128,-1,5
 297 509 297 509 337 509 c 0,6,7
 382 509 382 509 409 495.5 c 128,-1,8
 436 482 436 482 449 451 c 1,9,10
 474 477 474 477 506.5 493 c 128,-1,11
 539 509 539 509 583 509 c 0,12,13
 652 509 652 509 680.5 475.5 c 128,-1,14
 709 442 709 442 709 364 c 0,15,16
 709 352 709 352 708.5 333.5 c 128,-1,17
 708 315 708 315 706 300 c 2,18,-1
 680 0 l 1,19,-1
 547 0 l 1,20,-1
 573 303 l 2,21,22
 574 311 574 311 574.5 323.5 c 128,-1,23
 575 336 575 336 575 343 c 0,24,25
 575 372 575 372 566.5 383 c 128,-1,26
 558 394 558 394 536 394 c 0,27,28
 520 394 520 394 506 384.5 c 128,-1,29
 492 375 492 375 482.5 360.5 c 128,-1,30
 473 346 473 346 467 327.5 c 128,-1,31
 461 309 461 309 459 291 c 2,32,-1
 434 0 l 1,33,-1
 301 0 l 1,34,-1
 327 303 l 2,35,36
 328 311 328 311 328.5 323.5 c 128,-1,37
 329 336 329 336 329 343 c 0,38,39
 329 372 329 372 320.5 383 c 128,-1,40
 312 394 312 394 290 394 c 0,41,42
 271 394 271 394 257 381 c 128,-1,43
 243 368 243 368 233 349.5 c 128,-1,44
 223 331 223 331 218 309 c 128,-1,45
 213 287 213 287 211 269 c 2,46,-1
 188 0 l 1,47,-1
 55 0 l 1,0,-1
EndSplineSet
EndChar

StartChar: n
Encoding: 110 110 79
Width: 524
Flags: W
LayerCount: 2
Fore
SplineSet
55 0 m 1,0,-1
 98 500 l 1,1,-1
 206 500 l 1,2,-1
 211 447 l 1,3,4
 236 475 236 475 269.5 492 c 128,-1,5
 303 509 303 509 347 509 c 0,6,7
 423 509 423 509 453 472.5 c 128,-1,8
 483 436 483 436 483 358 c 0,9,10
 483 338 483 338 480 300 c 2,11,-1
 454 0 l 1,12,-1
 321 0 l 1,13,-1
 347 297 l 2,14,15
 348 305 348 305 348.5 316 c 128,-1,16
 349 327 349 327 349 336 c 0,17,18
 349 371 349 371 336.5 382.5 c 128,-1,19
 324 394 324 394 300 394 c 0,20,21
 279 394 279 394 263 381 c 128,-1,22
 247 368 247 368 236 349.5 c 128,-1,23
 225 331 225 331 219 309 c 128,-1,24
 213 287 213 287 211 269 c 2,25,-1
 188 0 l 1,26,-1
 55 0 l 1,0,-1
EndSplineSet
EndChar

StartChar: o
Encoding: 111 111 80
Width: 530
Flags: W
LayerCount: 2
Fore
SplineSet
497 305 m 0,0,1
 497 294 497 294 496.5 283 c 128,-1,2
 496 272 496 272 495 260 c 0,3,4
 488 181 488 181 471.5 129.5 c 128,-1,5
 455 78 455 78 426 47.5 c 128,-1,6
 397 17 397 17 355 5 c 128,-1,7
 313 -7 313 -7 256 -7 c 0,8,9
 209 -7 209 -7 173 2.5 c 128,-1,10
 137 12 137 12 112 36 c 128,-1,11
 87 60 87 60 74.5 100.5 c 128,-1,12
 62 141 62 141 62 202 c 0,13,14
 62 281 62 281 75 338.5 c 128,-1,15
 88 396 88 396 117 433.5 c 128,-1,16
 146 471 146 471 191.5 489 c 128,-1,17
 237 507 237 507 301 507 c 0,18,19
 399 507 399 507 448 458.5 c 128,-1,20
 497 410 497 410 497 305 c 0,0,1
358 245 m 0,21,22
 361 277 361 277 361 300 c 0,23,24
 361 356 361 356 344.5 377.5 c 128,-1,25
 328 399 328 399 291 399 c 0,26,27
 269 399 269 399 253 391.5 c 128,-1,28
 237 384 237 384 226.5 366 c 128,-1,29
 216 348 216 348 210 318.5 c 128,-1,30
 204 289 204 289 200 245 c 0,31,32
 197 212 197 212 197 188 c 0,33,34
 197 138 197 138 212 119.5 c 128,-1,35
 227 101 227 101 265 101 c 0,36,37
 288 101 288 101 304 108 c 128,-1,38
 320 115 320 115 331 131.5 c 128,-1,39
 342 148 342 148 348 175.5 c 128,-1,40
 354 203 354 203 358 245 c 0,21,22
EndSplineSet
Substitution2: "'ordn' Ordinals in Latin lookup 4 subtable" ordmasculine
Substitution2: "'aalt' Access All Alternates in Latin lookup 0 subtable" ordmasculine
EndChar

StartChar: p
Encoding: 112 112 81
Width: 519
Flags: W
LayerCount: 2
Fore
SplineSet
40 -170 m 1,0,-1
 98 500 l 1,1,-1
 206 500 l 1,2,-1
 211 445 l 1,3,4
 237 474 237 474 269.5 491.5 c 128,-1,5
 302 509 302 509 347 509 c 0,6,7
 418 509 418 509 451.5 464.5 c 128,-1,8
 485 420 485 420 485 332 c 0,9,10
 485 321 485 321 484.5 303 c 128,-1,11
 484 285 484 285 482 272 c 0,12,13
 475 193 475 193 458 139 c 128,-1,14
 441 85 441 85 410.5 52 c 128,-1,15
 380 19 380 19 334.5 5 c 128,-1,16
 289 -9 289 -9 225 -9 c 0,17,18
 214 -9 214 -9 204.5 -9 c 128,-1,19
 195 -9 195 -9 187 -8 c 1,20,-1
 173 -170 l 1,21,-1
 40 -170 l 1,0,-1
302 395 m 0,22,23
 282 395 282 395 267 384.5 c 128,-1,24
 252 374 252 374 240.5 357.5 c 128,-1,25
 229 341 229 341 222 321.5 c 128,-1,26
 215 302 215 302 212 284 c 1,27,-1
 197 107 l 1,28,29
 209 106 209 106 221 105.5 c 128,-1,30
 233 105 233 105 244 105 c 0,31,32
 266 105 266 105 285.5 114.5 c 128,-1,33
 305 124 305 124 319.5 147.5 c 128,-1,34
 334 171 334 171 342.5 212 c 128,-1,35
 351 253 351 253 351 316 c 0,36,37
 351 363 351 363 338.5 379 c 128,-1,38
 326 395 326 395 302 395 c 0,22,23
EndSplineSet
EndChar

StartChar: q
Encoding: 113 113 82
Width: 527
Flags: W
LayerCount: 2
Fore
SplineSet
63 237 m 0,0,1
 70 314 70 314 87.5 366 c 128,-1,2
 105 418 105 418 136.5 450 c 128,-1,3
 168 482 168 482 214 495.5 c 128,-1,4
 260 509 260 509 323 509 c 0,5,6
 370 509 370 509 410.5 502.5 c 128,-1,7
 451 496 451 496 494 485 c 1,8,-1
 437 -170 l 1,9,-1
 304 -170 l 1,10,-1
 322 40 l 1,11,12
 298 17 298 17 268 4 c 128,-1,13
 238 -9 238 -9 201 -9 c 0,14,15
 128 -9 128 -9 94 31.5 c 128,-1,16
 60 72 60 72 60 169 c 0,17,18
 60 200 60 200 63 237 c 0,0,1
246 105 m 0,19,20
 266 105 266 105 282 116 c 128,-1,21
 298 127 298 127 309 143.5 c 128,-1,22
 320 160 320 160 327 180 c 128,-1,23
 334 200 334 200 337 218 c 1,24,-1
 352 392 l 1,25,26
 340 394 340 394 327.5 394.5 c 128,-1,27
 315 395 315 395 304 395 c 0,28,29
 282 395 282 395 262 386.5 c 128,-1,30
 242 378 242 378 227 354.5 c 128,-1,31
 212 331 212 331 203.5 289 c 128,-1,32
 195 247 195 247 195 180 c 0,33,34
 195 134 195 134 207 119.5 c 128,-1,35
 219 105 219 105 246 105 c 0,19,20
EndSplineSet
EndChar

StartChar: r
Encoding: 114 114 83
Width: 353
Flags: W
LayerCount: 2
Fore
SplineSet
55 0 m 1,0,-1
 98 500 l 1,1,-1
 206 500 l 1,2,-1
 212 437 l 1,3,4
 233 470 233 470 260.5 489.5 c 128,-1,5
 288 509 288 509 323 509 c 0,6,7
 339 509 339 509 349 508 c 128,-1,8
 359 507 359 507 367 505 c 1,9,-1
 355 367 l 1,10,11
 333 373 333 373 312 373 c 0,12,13
 269 373 269 373 241 335 c 128,-1,14
 213 297 213 297 208 236 c 2,15,-1
 188 0 l 1,16,-1
 55 0 l 1,0,-1
EndSplineSet
EndChar

StartChar: s
Encoding: 115 115 84
Width: 425
Flags: W
LayerCount: 2
Fore
SplineSet
389 175 m 0,0,1
 389 120 389 120 373 84.5 c 128,-1,2
 357 49 357 49 328.5 28 c 128,-1,3
 300 7 300 7 260 -1 c 128,-1,4
 220 -9 220 -9 173 -9 c 0,5,6
 154 -9 154 -9 134 -7.5 c 128,-1,7
 114 -6 114 -6 96 -3.5 c 128,-1,8
 78 -1 78 -1 62.5 1.5 c 128,-1,9
 47 4 47 4 37 7 c 1,10,-1
 47 120 l 1,11,12
 67 115 67 115 98.5 109 c 128,-1,13
 130 103 130 103 165 103 c 0,14,15
 204 103 204 103 227.5 113.5 c 128,-1,16
 251 124 251 124 251 156 c 0,17,18
 251 175 251 175 238.5 184 c 128,-1,19
 226 193 226 193 192 200 c 0,20,21
 121 214 121 214 92.5 249.5 c 128,-1,22
 64 285 64 285 64 333 c 0,23,24
 64 430 64 430 118.5 469.5 c 128,-1,25
 173 509 173 509 282 509 c 0,26,27
 298 509 298 509 316 507.5 c 128,-1,28
 334 506 334 506 350.5 503.5 c 128,-1,29
 367 501 367 501 380.5 498.5 c 128,-1,30
 394 496 394 496 401 494 c 1,31,-1
 391 380 l 1,32,33
 368 387 368 387 341 392 c 128,-1,34
 314 397 314 397 273 397 c 0,35,36
 234 397 234 397 217.5 386 c 128,-1,37
 201 375 201 375 201 350 c 0,38,39
 201 333 201 333 216.5 326.5 c 128,-1,40
 232 320 232 320 262 313 c 0,41,42
 335 297 335 297 362 261.5 c 128,-1,43
 389 226 389 226 389 175 c 0,0,1
EndSplineSet
EndChar

StartChar: t
Encoding: 116 116 85
Width: 348
Flags: W
LayerCount: 2
Fore
SplineSet
241 385 m 1,0,-1
 223 170 l 2,1,2
 222 156 222 156 221.5 149.5 c 128,-1,3
 221 143 221 143 221 141 c 0,4,5
 221 105 221 105 259 105 c 0,6,7
 275 105 275 105 293 108 c 128,-1,8
 311 111 311 111 322 114 c 1,9,-1
 313 3 l 1,10,11
 308 2 308 2 295.5 -0.5 c 128,-1,12
 283 -3 283 -3 268 -4.5 c 128,-1,13
 253 -6 253 -6 237 -7.5 c 128,-1,14
 221 -9 221 -9 207 -9 c 0,15,16
 171 -9 171 -9 148 -1 c 128,-1,17
 125 7 125 7 111 22.5 c 128,-1,18
 97 38 97 38 91.5 60.5 c 128,-1,19
 86 83 86 83 86 112 c 0,20,21
 86 122 86 122 86.5 133 c 128,-1,22
 87 144 87 144 88 155 c 2,23,-1
 108 385 l 1,24,-1
 43 385 l 1,25,-1
 53 500 l 1,26,-1
 118 500 l 1,27,-1
 129 620 l 1,28,-1
 262 620 l 1,29,-1
 251 500 l 1,30,-1
 351 500 l 1,31,-1
 341 385 l 1,32,-1
 241 385 l 1,0,-1
EndSplineSet
EndChar

StartChar: u
Encoding: 117 117 86
Width: 518
Flags: W
LayerCount: 2
Fore
SplineSet
226 500 m 1,0,-1
 201 207 l 2,1,2
 200 193 200 193 199 180.5 c 128,-1,3
 198 168 198 168 198 162 c 0,4,5
 198 127 198 127 210 116.5 c 128,-1,6
 222 106 222 106 245 106 c 0,7,8
 266 106 266 106 281.5 119 c 128,-1,9
 297 132 297 132 307.5 150.5 c 128,-1,10
 318 169 318 169 323.5 191 c 128,-1,11
 329 213 329 213 330 231 c 2,12,-1
 353 500 l 1,13,-1
 486 500 l 1,14,-1
 443 0 l 1,15,-1
 335 0 l 1,16,-1
 330 50 l 1,17,18
 306 24 306 24 273.5 7.5 c 128,-1,19
 241 -9 241 -9 198 -9 c 0,20,21
 123 -9 123 -9 93.5 29 c 128,-1,22
 64 67 64 67 64 144 c 0,23,24
 64 155 64 155 64.5 167 c 128,-1,25
 65 179 65 179 66 193 c 2,26,-1
 93 500 l 1,27,-1
 226 500 l 1,0,-1
EndSplineSet
EndChar

StartChar: v
Encoding: 118 118 87
Width: 492
Flags: W
LayerCount: 2
Fore
SplineSet
332 -1 m 1,0,-1
 139 -1 l 1,1,-1
 53 499 l 1,2,-1
 190 499 l 1,3,-1
 244 95 l 1,4,-1
 369 499 l 1,5,-1
 505 499 l 1,6,-1
 332 -1 l 1,0,-1
EndSplineSet
EndChar

StartChar: w
Encoding: 119 119 88
Width: 642
Flags: W
LayerCount: 2
Fore
SplineSet
540 0 m 1,0,-1
 365 0 l 1,1,-1
 332 246 l 1,2,-1
 252 0 l 1,3,-1
 82 0 l 1,4,-1
 48 500 l 1,5,-1
 179 500 l 1,6,-1
 193 118 l 1,7,-1
 291 410 l 1,8,-1
 409 410 l 1,9,-1
 452 118 l 1,10,-1
 533 500 l 1,11,-1
 660 500 l 1,12,-1
 540 0 l 1,0,-1
EndSplineSet
EndChar

StartChar: x
Encoding: 120 120 89
Width: 505
Flags: W
LayerCount: 2
Fore
SplineSet
320 0 m 1,0,-1
 257 151 l 1,1,-1
 166 0 l 1,2,-1
 15 0 l 1,3,-1
 186 261 l 1,4,-1
 74 500 l 1,5,-1
 223 500 l 1,6,-1
 274 381 l 1,7,-1
 345 500 l 1,8,-1
 495 500 l 1,9,-1
 339 271 l 1,10,-1
 470 0 l 1,11,-1
 320 0 l 1,0,-1
EndSplineSet
EndChar

StartChar: y
Encoding: 121 121 90
Width: 493
Flags: W
LayerCount: 2
Fore
SplineSet
331 -42 m 2,0,1
 287 -177 287 -177 177 -177 c 0,2,3
 169 -177 169 -177 155.5 -176.5 c 128,-1,4
 142 -176 142 -176 128.5 -175.5 c 128,-1,5
 115 -175 115 -175 103.5 -174 c 128,-1,6
 92 -173 92 -173 87 -172 c 1,7,-1
 97 -59 l 1,8,9
 121 -62 121 -62 146 -62 c 0,10,11
 186 -62 186 -62 199 -18 c 2,12,-1
 204 0 l 1,13,-1
 170 0 l 1,14,-1
 53 500 l 1,15,-1
 193 500 l 1,16,-1
 256 111 l 1,17,-1
 375 500 l 1,18,-1
 506 500 l 1,19,-1
 331 -42 l 2,0,1
EndSplineSet
EndChar

StartChar: z
Encoding: 122 122 91
Width: 418
Flags: W
LayerCount: 2
Fore
SplineSet
181 107 m 1,0,-1
 377 107 l 1,1,-1
 368 0 l 1,2,-1
 20 0 l 1,3,-1
 29 111 l 1,4,-1
 261 393 l 1,5,-1
 74 393 l 1,6,-1
 83 500 l 1,7,-1
 421 500 l 1,8,-1
 411 380 l 1,9,-1
 181 107 l 1,0,-1
EndSplineSet
EndChar

StartChar: braceleft
Encoding: 123 123 92
Width: 345
Flags: W
LayerCount: 2
Fore
SplineSet
114 207 m 0,0,1
 114 248 114 248 92 264 c 128,-1,2
 70 280 70 280 44 280 c 1,3,-1
 56 420 l 1,4,5
 84 420 84 420 110 439 c 128,-1,6
 136 458 136 458 140 504 c 2,7,-1
 154 670 l 2,8,9
 162 754 162 754 202 790.5 c 128,-1,10
 242 827 242 827 307 827 c 0,11,12
 317 827 317 827 335.5 825.5 c 128,-1,13
 354 824 354 824 361 822 c 1,14,-1
 352 714 l 1,15,16
 347 715 347 715 339.5 716 c 128,-1,17
 332 717 332 717 324 717 c 0,18,19
 286 717 286 717 283 680 c 2,20,-1
 266 484 l 2,21,22
 263 450 263 450 252.5 425 c 128,-1,23
 242 400 242 400 227 383.5 c 128,-1,24
 212 367 212 367 194 358.5 c 128,-1,25
 176 350 176 350 159 347 c 1,26,27
 175 345 175 345 190 336.5 c 128,-1,28
 205 328 205 328 217 314 c 128,-1,29
 229 300 229 300 236 279 c 128,-1,30
 243 258 243 258 243 230 c 0,31,32
 243 225 243 225 242.5 216.5 c 128,-1,33
 242 208 242 208 241 201 c 2,34,-1
 227 40 l 2,35,36
 226 31 226 31 225.5 24 c 128,-1,37
 225 17 225 17 225 15 c 0,38,39
 225 -17 225 -17 260 -17 c 0,40,41
 268 -17 268 -17 275.5 -16 c 128,-1,42
 283 -15 283 -15 288 -14 c 1,43,-1
 279 -122 l 1,44,45
 271 -124 271 -124 252 -125.5 c 128,-1,46
 233 -127 233 -127 223 -127 c 0,47,48
 199 -127 199 -127 176.5 -119.5 c 128,-1,49
 154 -112 154 -112 136 -95.5 c 128,-1,50
 118 -79 118 -79 107.5 -53.5 c 128,-1,51
 97 -28 97 -28 97 8 c 0,52,53
 97 13 97 13 97.5 22.5 c 128,-1,54
 98 32 98 32 99 40 c 2,55,-1
 110 161 l 2,56,57
 110 166 110 166 111 173 c 128,-1,58
 112 180 112 180 112.5 187.5 c 128,-1,59
 113 195 113 195 113.5 200.5 c 128,-1,60
 114 206 114 206 114 207 c 0,0,1
EndSplineSet
EndChar

StartChar: bar
Encoding: 124 124 93
Width: 310
Flags: W
LayerCount: 2
Fore
SplineSet
70 -110 m 1,0,-1
 150 810 l 1,1,-1
 280 810 l 1,2,-1
 200 -110 l 1,3,-1
 70 -110 l 1,0,-1
EndSplineSet
EndChar

StartChar: braceright
Encoding: 125 125 94
Width: 345
Flags: W
LayerCount: 2
Fore
SplineSet
226 353 m 1,0,1
 211 356 211 356 196 364 c 128,-1,2
 181 372 181 372 169 386.5 c 128,-1,3
 157 401 157 401 149.5 421.5 c 128,-1,4
 142 442 142 442 142 470 c 0,5,6
 142 475 142 475 142.5 483 c 128,-1,7
 143 491 143 491 144 499 c 2,8,-1
 159 660 l 2,9,10
 160 669 160 669 160 676.5 c 128,-1,11
 160 684 160 684 160 685 c 0,12,13
 160 717 160 717 125 717 c 0,14,15
 117 717 117 717 109.5 716 c 128,-1,16
 102 715 102 715 97 714 c 1,17,-1
 106 822 l 1,18,19
 110 823 110 823 117.5 824 c 128,-1,20
 125 825 125 825 133.5 825.5 c 128,-1,21
 142 826 142 826 149.5 826.5 c 128,-1,22
 157 827 157 827 162 827 c 0,23,24
 186 827 186 827 208.5 819.5 c 128,-1,25
 231 812 231 812 249 795.5 c 128,-1,26
 267 779 267 779 277.5 753.5 c 128,-1,27
 288 728 288 728 288 692 c 0,28,29
 288 687 288 687 287.5 677.5 c 128,-1,30
 287 668 287 668 286 660 c 2,31,-1
 274 514 l 2,32,33
 273 506 273 506 272.5 500 c 128,-1,34
 272 494 272 494 272 491 c 0,35,36
 272 452 272 452 293.5 436 c 128,-1,37
 315 420 315 420 341 420 c 1,38,-1
 329 280 l 1,39,40
 301 280 301 280 276 261.5 c 128,-1,41
 251 243 251 243 246 196 c 2,42,-1
 231 30 l 2,43,44
 224 -54 224 -54 184.5 -90.5 c 128,-1,45
 145 -127 145 -127 78 -127 c 0,46,47
 68 -127 68 -127 50 -125.5 c 128,-1,48
 32 -124 32 -124 24 -122 c 1,49,-1
 33 -14 l 1,50,51
 38 -15 38 -15 45.5 -16 c 128,-1,52
 53 -17 53 -17 61 -17 c 0,53,54
 99 -17 99 -17 102 20 c 2,55,-1
 119 216 l 2,56,57
 122 251 122 251 133 275.5 c 128,-1,58
 144 300 144 300 159 316.5 c 128,-1,59
 174 333 174 333 191.5 341.5 c 128,-1,60
 209 350 209 350 226 353 c 1,0,1
EndSplineSet
EndChar

StartChar: asciitilde
Encoding: 126 126 95
Width: 510
Flags: W
LayerCount: 2
Fore
SplineSet
95 356 m 1,0,1
 132 377 132 377 156.5 383 c 128,-1,2
 181 389 181 389 203 389 c 256,3,4
 225 389 225 389 245 383 c 128,-1,5
 265 377 265 377 284 369.5 c 128,-1,6
 303 362 303 362 322 356 c 128,-1,7
 341 350 341 350 360 350 c 0,8,9
 386 350 386 350 410.5 360 c 128,-1,10
 435 370 435 370 458 384 c 1,11,-1
 448 264 l 1,12,13
 424 249 424 249 396.5 240 c 128,-1,14
 369 231 369 231 341 231 c 0,15,16
 318 231 318 231 298.5 237.5 c 128,-1,17
 279 244 279 244 261 251.5 c 128,-1,18
 243 259 243 259 224.5 265.5 c 128,-1,19
 206 272 206 272 185 272 c 0,20,21
 159 272 159 272 133.5 261 c 128,-1,22
 108 250 108 250 85 236 c 1,23,-1
 95 356 l 1,0,1
EndSplineSet
EndChar

StartChar: exclamdown
Encoding: 161 161 96
Width: 270
Flags: W
LayerCount: 2
Fore
SplineSet
243 500 m 1,0,-1
 232 370 l 1,1,-1
 82 370 l 1,2,-1
 93 500 l 1,3,-1
 243 500 l 1,0,-1
216 272 m 1,4,-1
 175 -200 l 1,5,-1
 40 -200 l 1,6,-1
 81 272 l 1,7,-1
 216 272 l 1,4,-1
EndSplineSet
EndChar

StartChar: cent
Encoding: 162 162 97
Width: 470
Flags: W
LayerCount: 2
Fore
SplineSet
197 -110 m 1,0,-1
 206 -6 l 1,1,2
 178 -1 178 -1 155 11 c 128,-1,3
 132 23 132 23 116 46.5 c 128,-1,4
 100 70 100 70 91.5 105.5 c 128,-1,5
 83 141 83 141 83 192 c 0,6,7
 83 339 83 339 124 412.5 c 128,-1,8
 165 486 165 486 250 502 c 1,9,-1
 259 600 l 1,10,-1
 384 600 l 1,11,-1
 375 503 l 1,12,13
 389 501 389 501 401.5 498.5 c 128,-1,14
 414 496 414 496 424 494 c 1,15,-1
 414 377 l 1,16,17
 400 380 400 380 389 382.5 c 128,-1,18
 378 385 378 385 366 387 c 128,-1,19
 354 389 354 389 340 390 c 128,-1,20
 326 391 326 391 307 391 c 0,21,22
 290 391 290 391 276 385 c 128,-1,23
 262 379 262 379 251.5 362.5 c 128,-1,24
 241 346 241 346 233.5 316.5 c 128,-1,25
 226 287 226 287 221 239 c 0,26,27
 220 228 220 228 219.5 218.5 c 128,-1,28
 219 209 219 209 219 200 c 0,29,30
 219 147 219 147 234.5 127 c 128,-1,31
 250 107 250 107 280 107 c 0,32,33
 318 107 318 107 343.5 112 c 128,-1,34
 369 117 369 117 391 121 c 1,35,-1
 381 5 l 1,36,37
 370 2 370 2 357.5 -0.5 c 128,-1,38
 345 -3 345 -3 331 -5 c 1,39,-1
 322 -110 l 1,40,-1
 197 -110 l 1,0,-1
EndSplineSet
EndChar

StartChar: sterling
Encoding: 163 163 98
Width: 470
Flags: W
LayerCount: 2
Fore
SplineSet
279 423 m 1,0,-1
 383 423 l 1,1,-1
 373 310 l 1,2,-1
 269 310 l 1,3,-1
 252 113 l 1,4,-1
 425 113 l 1,5,-1
 416 0 l 1,6,-1
 41 0 l 1,7,-1
 50 113 l 1,8,-1
 115 113 l 1,9,-1
 132 310 l 1,10,-1
 68 310 l 1,11,-1
 78 423 l 1,12,-1
 142 423 l 1,13,-1
 145 449 l 1,14,15
 152 527 152 527 164.5 577.5 c 128,-1,16
 177 628 177 628 201 656.5 c 128,-1,17
 225 685 225 685 262 696 c 128,-1,18
 299 707 299 707 356 707 c 0,19,20
 365 707 365 707 378.5 706.5 c 128,-1,21
 392 706 392 706 408 704.5 c 128,-1,22
 424 703 424 703 439.5 701 c 128,-1,23
 455 699 455 699 467 697 c 1,24,-1
 457 581 l 1,25,26
 436 586 436 586 413 589 c 128,-1,27
 390 592 390 592 378 592 c 0,28,29
 350 592 350 592 332.5 587.5 c 128,-1,30
 315 583 315 583 305.5 568.5 c 128,-1,31
 296 554 296 554 291 527.5 c 128,-1,32
 286 501 286 501 282 456 c 2,33,-1
 279 423 l 1,0,-1
EndSplineSet
EndChar

StartChar: fraction
Encoding: 8260 8260 99
Width: 230
Flags: W
LayerCount: 2
Fore
SplineSet
0 -100 m 1,0,-1
 -118 -100 l 1,1,-1
 270 810 l 1,2,-1
 389 810 l 1,3,-1
 0 -100 l 1,0,-1
EndSplineSet
EndChar

StartChar: yen
Encoding: 165 165 100
Width: 470
Flags: W
LayerCount: 2
Fore
SplineSet
315 265 m 1,0,-1
 312 220 l 1,1,-1
 418 220 l 1,2,-1
 409 115 l 1,3,-1
 303 115 l 1,4,-1
 293 0 l 1,5,-1
 153 0 l 1,6,-1
 163 115 l 1,7,-1
 59 115 l 1,8,-1
 68 220 l 1,9,-1
 172 220 l 1,10,-1
 175 265 l 1,11,-1
 72 265 l 1,12,-1
 81 370 l 1,13,-1
 172 370 l 1,14,-1
 61 700 l 1,15,-1
 202 700 l 1,16,-1
 267 477 l 1,17,-1
 371 700 l 1,18,-1
 511 700 l 1,19,-1
 337 370 l 1,20,-1
 431 370 l 1,21,-1
 422 265 l 1,22,-1
 315 265 l 1,0,-1
EndSplineSet
EndChar

StartChar: florin
Encoding: 402 402 101
Width: 341
Flags: W
LayerCount: 2
Fore
SplineSet
113 387 m 1,0,-1
 48 387 l 1,1,-1
 58 500 l 1,2,-1
 123 500 l 1,3,-1
 127 540 l 2,4,5
 132 591 132 591 144 624 c 128,-1,6
 156 657 156 657 175.5 676 c 128,-1,7
 195 695 195 695 224 702 c 128,-1,8
 253 709 253 709 293 709 c 0,9,10
 325 709 325 709 356 704.5 c 128,-1,11
 387 700 387 700 401 697 c 1,12,-1
 392 584 l 1,13,14
 376 588 376 588 355.5 591.5 c 128,-1,15
 335 595 335 595 308 595 c 0,16,17
 283 595 283 595 273 582.5 c 128,-1,18
 263 570 263 570 261 549 c 2,19,-1
 257 500 l 1,20,-1
 365 500 l 1,21,-1
 355 387 l 1,22,-1
 247 387 l 1,23,-1
 212 -13 l 2,24,25
 208 -63 208 -63 196.5 -94.5 c 128,-1,26
 185 -126 185 -126 164 -144.5 c 128,-1,27
 143 -163 143 -163 112 -170 c 128,-1,28
 81 -177 81 -177 39 -177 c 0,29,30
 16 -177 16 -177 -4.5 -175.5 c 128,-1,31
 -25 -174 -25 -174 -45 -172 c 1,32,-1
 -35 -59 l 1,33,34
 -22 -61 -22 -61 -3 -62 c 128,-1,35
 16 -63 16 -63 27 -63 c 0,36,37
 54 -63 54 -63 65 -53.5 c 128,-1,38
 76 -44 76 -44 78 -18 c 2,39,-1
 113 387 l 1,0,-1
EndSplineSet
EndChar

StartChar: section
Encoding: 167 167 102
Width: 470
Flags: W
LayerCount: 2
Fore
SplineSet
77 321 m 0,0,1
 77 366 77 366 95 398.5 c 128,-1,2
 113 431 113 431 148 457 c 1,3,4
 128 472 128 472 119 498.5 c 128,-1,5
 110 525 110 525 110 548 c 0,6,7
 110 634 110 634 164.5 671.5 c 128,-1,8
 219 709 219 709 331 709 c 0,9,10
 361 709 361 709 393.5 703.5 c 128,-1,11
 426 698 426 698 441 694 c 1,12,-1
 431 580 l 1,13,14
 409 587 409 587 383.5 592 c 128,-1,15
 358 597 358 597 317 597 c 0,16,17
 280 597 280 597 262.5 587.5 c 128,-1,18
 245 578 245 578 245 553 c 0,19,20
 245 539 245 539 258 528.5 c 128,-1,21
 271 518 271 518 302 512 c 0,22,23
 371 499 371 499 400.5 465.5 c 128,-1,24
 430 432 430 432 430 378 c 0,25,26
 430 332 430 332 410 300 c 128,-1,27
 390 268 390 268 358 247 c 1,28,29
 378 232 378 232 387.5 204.5 c 128,-1,30
 397 177 397 177 397 154 c 0,31,32
 397 68 397 68 342 29.5 c 128,-1,33
 287 -9 287 -9 176 -9 c 0,34,35
 161 -9 161 -9 144.5 -7.5 c 128,-1,36
 128 -6 128 -6 113 -3.5 c 128,-1,37
 98 -1 98 -1 85.5 1.5 c 128,-1,38
 73 4 73 4 65 6 c 1,39,-1
 75 120 l 1,40,41
 97 113 97 113 123 108 c 128,-1,42
 149 103 149 103 190 103 c 0,43,44
 227 103 227 103 244 113.5 c 128,-1,45
 261 124 261 124 261 149 c 0,46,47
 261 163 261 163 248 173 c 128,-1,48
 235 183 235 183 204 188 c 0,49,50
 135 201 135 201 106 235.5 c 128,-1,51
 77 270 77 270 77 321 c 0,0,1
296 357 m 0,52,53
 296 380 296 380 286 392.5 c 128,-1,54
 276 405 276 405 253 410 c 1,55,56
 232 401 232 401 221.5 382.5 c 128,-1,57
 211 364 211 364 211 341 c 0,58,59
 211 319 211 319 220.5 307 c 128,-1,60
 230 295 230 295 253 289 c 1,61,62
 273 297 273 297 284.5 316 c 128,-1,63
 296 335 296 335 296 357 c 0,52,53
EndSplineSet
EndChar

StartChar: currency
Encoding: 164 164 103
Width: 570
Flags: W
LayerCount: 2
Fore
SplineSet
105 185 m 1,0,1
 94 210 94 210 89.5 239 c 128,-1,2
 85 268 85 268 85 300 c 0,3,4
 85 365 85 365 106 414 c 1,5,-1
 33 487 l 1,6,-1
 118 572 l 1,7,-1
 184 506 l 1,8,9
 235 537 235 537 305 537 c 0,10,11
 373 537 373 537 426 506 c 1,12,-1
 492 572 l 1,13,-1
 577 487 l 1,14,-1
 509 419 l 1,15,16
 535 367 535 367 535 300 c 0,17,18
 535 234 535 234 509 180 c 1,19,-1
 577 113 l 1,20,-1
 492 28 l 1,21,-1
 427 92 l 1,22,23
 377 63 377 63 305 63 c 0,24,25
 232 63 232 63 182 92 c 1,26,-1
 118 28 l 1,27,-1
 33 113 l 1,28,-1
 105 185 l 1,0,1
403 300 m 0,29,30
 403 356 403 356 379 393 c 128,-1,31
 355 430 355 430 305 430 c 256,32,33
 255 430 255 430 231 393 c 128,-1,34
 207 356 207 356 207 300 c 256,35,36
 207 244 207 244 231 207 c 128,-1,37
 255 170 255 170 305 170 c 0,38,39
 330 170 330 170 348.5 180 c 128,-1,40
 367 190 367 190 379 207.5 c 128,-1,41
 391 225 391 225 397 248.5 c 128,-1,42
 403 272 403 272 403 300 c 0,29,30
EndSplineSet
EndChar

StartChar: quotesingle
Encoding: 39 39 104
Width: 225
Flags: W
LayerCount: 2
Fore
SplineSet
182 433 m 1,0,-1
 97 433 l 1,1,-1
 81 590 l 1,2,-1
 91 700 l 1,3,-1
 236 700 l 1,4,-1
 226 590 l 1,5,-1
 182 433 l 1,0,-1
EndSplineSet
EndChar

StartChar: quotedblleft
Encoding: 8220 8220 105
Width: 405
Flags: W
LayerCount: 2
Fore
SplineSet
159 699 m 1,0,-1
 256 699 l 1,1,-1
 212 542 l 1,2,-1
 202 432 l 1,3,-1
 67 432 l 1,4,-1
 77 542 l 1,5,-1
 159 699 l 1,0,-1
329 699 m 1,6,-1
 426 699 l 1,7,-1
 382 542 l 1,8,-1
 372 432 l 1,9,-1
 237 432 l 1,10,-1
 247 542 l 1,11,-1
 329 699 l 1,6,-1
EndSplineSet
EndChar

StartChar: guillemotleft
Encoding: 171 171 106
Width: 465
Flags: W
LayerCount: 2
Fore
SplineSet
135 92 m 1,0,-1
 66 299 l 1,1,-1
 171 506 l 1,2,-1
 280 506 l 1,3,-1
 200 299 l 1,4,-1
 242 92 l 1,5,-1
 135 92 l 1,0,-1
305 92 m 1,6,-1
 236 299 l 1,7,-1
 341 506 l 1,8,-1
 450 506 l 1,9,-1
 370 299 l 1,10,-1
 412 92 l 1,11,-1
 305 92 l 1,6,-1
EndSplineSet
EndChar

StartChar: guilsinglleft
Encoding: 8249 8249 107
Width: 295
Flags: W
LayerCount: 2
Fore
SplineSet
135 92 m 1,0,-1
 66 299 l 1,1,-1
 171 506 l 1,2,-1
 278 506 l 1,3,-1
 200 299 l 1,4,-1
 244 92 l 1,5,-1
 135 92 l 1,0,-1
EndSplineSet
EndChar

StartChar: guilsinglright
Encoding: 8250 8250 108
Width: 295
Flags: W
LayerCount: 2
Fore
SplineSet
47 92 m 1,0,-1
 127 299 l 1,1,-1
 85 506 l 1,2,-1
 192 506 l 1,3,-1
 261 299 l 1,4,-1
 156 92 l 1,5,-1
 47 92 l 1,0,-1
EndSplineSet
EndChar

StartChar: fi
Encoding: 64257 64257 109
Width: 543
Flags: W
LayerCount: 2
Fore
SplineSet
113 387 m 1,0,-1
 48 387 l 1,1,-1
 58 500 l 1,2,-1
 123 500 l 1,3,-1
 127 540 l 2,4,5
 132 591 132 591 144.5 624 c 128,-1,6
 157 657 157 657 179.5 676 c 128,-1,7
 202 695 202 695 234.5 702 c 128,-1,8
 267 709 267 709 313 709 c 0,9,10
 343 709 343 709 371.5 707 c 128,-1,11
 400 705 400 705 424.5 702 c 128,-1,12
 449 699 449 699 466.5 696 c 128,-1,13
 484 693 484 693 491 691 c 1,14,-1
 481 578 l 1,15,16
 465 582 465 582 423.5 588.5 c 128,-1,17
 382 595 382 595 328 595 c 0,18,19
 306 595 306 595 293 592 c 128,-1,20
 280 589 280 589 273 583.5 c 128,-1,21
 266 578 266 578 264 569.5 c 128,-1,22
 262 561 262 561 261 549 c 2,23,-1
 257 500 l 1,24,-1
 511 500 l 1,25,-1
 468 0 l 1,26,-1
 335 0 l 1,27,-1
 368 387 l 1,28,-1
 247 387 l 1,29,-1
 212 -13 l 2,30,31
 208 -63 208 -63 196.5 -94.5 c 128,-1,32
 185 -126 185 -126 164 -144.5 c 128,-1,33
 143 -163 143 -163 112 -170 c 128,-1,34
 81 -177 81 -177 39 -177 c 0,35,36
 16 -177 16 -177 -4.5 -175.5 c 128,-1,37
 -25 -174 -25 -174 -45 -172 c 1,38,-1
 -35 -59 l 1,39,40
 -22 -61 -22 -61 -3 -62 c 128,-1,41
 16 -63 16 -63 27 -63 c 0,42,43
 54 -63 54 -63 65 -53.5 c 128,-1,44
 76 -44 76 -44 78 -18 c 2,45,-1
 113 387 l 1,0,-1
EndSplineSet
Ligature2: "'liga' Standard Ligatures in Latin lookup 3 subtable" f i
EndChar

StartChar: fl
Encoding: 64258 64258 110
Width: 570
Flags: W
LayerCount: 2
Fore
SplineSet
535 3 m 1,0,1
 524 1 524 1 498 -2 c 128,-1,2
 472 -5 472 -5 443 -5 c 0,3,4
 386 -5 386 -5 365.5 21 c 128,-1,5
 345 47 345 47 345 101 c 0,6,7
 345 112 345 112 345.5 123.5 c 128,-1,8
 346 135 346 135 347 148 c 2,9,-1
 368 387 l 1,10,-1
 247 387 l 1,11,-1
 212 -13 l 2,12,13
 208 -63 208 -63 196.5 -94.5 c 128,-1,14
 185 -126 185 -126 164 -144.5 c 128,-1,15
 143 -163 143 -163 112 -170 c 128,-1,16
 81 -177 81 -177 39 -177 c 0,17,18
 16 -177 16 -177 -4.5 -175.5 c 128,-1,19
 -25 -174 -25 -174 -45 -172 c 1,20,-1
 -35 -59 l 1,21,22
 -22 -61 -22 -61 -3 -62 c 128,-1,23
 16 -63 16 -63 27 -63 c 0,24,25
 54 -63 54 -63 65 -53.5 c 128,-1,26
 76 -44 76 -44 78 -18 c 2,27,-1
 113 387 l 1,28,-1
 48 387 l 1,29,-1
 58 500 l 1,30,-1
 123 500 l 1,31,-1
 127 540 l 2,32,33
 132 591 132 591 144.5 624 c 128,-1,34
 157 657 157 657 179.5 676 c 128,-1,35
 202 695 202 695 234.5 702 c 128,-1,36
 267 709 267 709 313 709 c 0,37,38
 334 709 334 709 357 706.5 c 128,-1,39
 380 704 380 704 396 700 c 1,40,-1
 529 700 l 1,41,-1
 483 176 l 2,42,43
 480 146 480 146 480 139 c 0,44,45
 480 123 480 123 486 116.5 c 128,-1,46
 492 110 492 110 508 110 c 0,47,48
 519 110 519 110 529.5 111.5 c 128,-1,49
 540 113 540 113 544 114 c 1,50,-1
 535 3 l 1,0,1
257 500 m 1,51,-1
 378 500 l 1,52,-1
 386 592 l 1,53,54
 359 595 359 595 328 595 c 0,55,56
 306 595 306 595 293 592 c 128,-1,57
 280 589 280 589 273 583.5 c 128,-1,58
 266 578 266 578 264 569.5 c 128,-1,59
 262 561 262 561 261 549 c 2,60,-1
 257 500 l 1,51,-1
EndSplineSet
Ligature2: "'liga' Standard Ligatures in Latin lookup 3 subtable" f l
EndChar

StartChar: endash
Encoding: 8211 8211 111
Width: 550
Flags: W
LayerCount: 2
Fore
SplineSet
86 245 m 1,0,-1
 96 360 l 1,1,-1
 496 360 l 1,2,-1
 486 245 l 1,3,-1
 86 245 l 1,0,-1
EndSplineSet
EndChar

StartChar: dagger
Encoding: 8224 8224 112
Width: 470
Flags: W
LayerCount: 2
Fore
SplineSet
161 0 m 1,0,-1
 194 385 l 1,1,-1
 73 385 l 1,2,-1
 83 500 l 1,3,-1
 204 500 l 1,4,-1
 222 700 l 1,5,-1
 352 700 l 1,6,-1
 334 500 l 1,7,-1
 454 500 l 1,8,-1
 444 385 l 1,9,-1
 324 385 l 1,10,-1
 291 0 l 1,11,-1
 161 0 l 1,0,-1
EndSplineSet
EndChar

StartChar: daggerdbl
Encoding: 8225 8225 113
Width: 470
Flags: W
LayerCount: 2
Fore
SplineSet
161 0 m 1,0,-1
 178 200 l 1,1,-1
 57 200 l 1,2,-1
 67 315 l 1,3,-1
 188 315 l 1,4,-1
 195 395 l 1,5,-1
 74 395 l 1,6,-1
 84 510 l 1,7,-1
 205 510 l 1,8,-1
 222 700 l 1,9,-1
 352 700 l 1,10,-1
 335 510 l 1,11,-1
 455 510 l 1,12,-1
 445 395 l 1,13,-1
 325 395 l 1,14,-1
 318 315 l 1,15,-1
 438 315 l 1,16,-1
 428 200 l 1,17,-1
 308 200 l 1,18,-1
 291 0 l 1,19,-1
 161 0 l 1,0,-1
EndSplineSet
EndChar

StartChar: periodcentered
Encoding: 183 183 114
Width: 250
Flags: W
LayerCount: 2
Fore
SplineSet
61 244 m 1,0,-1
 72 374 l 1,1,-1
 222 374 l 1,2,-1
 211 244 l 1,3,-1
 61 244 l 1,0,-1
EndSplineSet
EndChar

StartChar: paragraph
Encoding: 182 182 115
Width: 555
Flags: W
LayerCount: 2
Fore
SplineSet
323 0 m 1,0,-1
 197 0 l 1,1,-1
 227 354 l 1,2,-1
 208 354 l 2,3,4
 187 354 187 354 163.5 360 c 128,-1,5
 140 366 140 366 120.5 382 c 128,-1,6
 101 398 101 398 88 427.5 c 128,-1,7
 75 457 75 457 75 503 c 0,8,9
 75 567 75 567 90 607 c 128,-1,10
 105 647 105 647 130.5 669.5 c 128,-1,11
 156 692 156 692 190 700.5 c 128,-1,12
 224 709 224 709 261 709 c 0,13,14
 286 709 286 709 308 708 c 128,-1,15
 330 707 330 707 347 705 c 0,16,17
 367 703 367 703 384 700 c 1,18,-1
 374 593 l 1,19,20
 354 597 354 597 330 599.5 c 128,-1,21
 306 602 306 602 291 602 c 0,22,23
 239 602 239 602 219 584.5 c 128,-1,24
 199 567 199 567 199 517 c 0,25,26
 199 486 199 486 214 474 c 128,-1,27
 229 462 229 462 258 462 c 2,28,-1
 363 462 l 1,29,-1
 323 0 l 1,0,-1
488 -20 m 2,30,31
 484 -70 484 -70 473.5 -101 c 128,-1,32
 463 -132 463 -132 444.5 -148.5 c 128,-1,33
 426 -165 426 -165 397 -170.5 c 128,-1,34
 368 -176 368 -176 326 -176 c 0,35,36
 303 -176 303 -176 282.5 -174.5 c 128,-1,37
 262 -173 262 -173 242 -171 c 1,38,-1
 253 -63 l 1,39,40
 266 -65 266 -65 285.5 -66.5 c 128,-1,41
 305 -68 305 -68 315 -68 c 0,42,43
 342 -68 342 -68 352.5 -56 c 128,-1,44
 363 -44 363 -44 365 -18 c 2,45,-1
 428 700 l 1,46,-1
 551 700 l 1,47,-1
 488 -20 l 2,30,31
EndSplineSet
EndChar

StartChar: bullet
Encoding: 8226 8226 116
Width: 305
Flags: W
LayerCount: 2
Fore
SplineSet
58 215 m 1,0,-1
 75 410 l 1,1,-1
 280 410 l 1,2,-1
 263 215 l 1,3,-1
 58 215 l 1,0,-1
EndSplineSet
EndChar

StartChar: quotesinglbase
Encoding: 8218 8218 117
Width: 235
Flags: W
LayerCount: 2
Fore
SplineSet
103 -157 m 1,0,-1
 6 -157 l 1,1,-1
 50 0 l 1,2,-1
 59 110 l 1,3,-1
 194 110 l 1,4,-1
 185 0 l 1,5,-1
 103 -157 l 1,0,-1
EndSplineSet
EndChar

StartChar: quotedblbase
Encoding: 8222 8222 118
Width: 395
Flags: W
LayerCount: 2
Fore
SplineSet
273 -157 m 1,0,-1
 176 -157 l 1,1,-1
 220 0 l 1,2,-1
 229 110 l 1,3,-1
 364 110 l 1,4,-1
 355 0 l 1,5,-1
 273 -157 l 1,0,-1
103 -157 m 1,6,-1
 6 -157 l 1,7,-1
 50 0 l 1,8,-1
 59 110 l 1,9,-1
 194 110 l 1,10,-1
 185 0 l 1,11,-1
 103 -157 l 1,6,-1
EndSplineSet
EndChar

StartChar: quotedblright
Encoding: 8221 8221 119
Width: 395
Flags: W
LayerCount: 2
Fore
SplineSet
324 433 m 1,0,-1
 227 433 l 1,1,-1
 271 590 l 1,2,-1
 281 700 l 1,3,-1
 416 700 l 1,4,-1
 406 590 l 1,5,-1
 324 433 l 1,0,-1
154 433 m 1,6,-1
 57 433 l 1,7,-1
 101 590 l 1,8,-1
 111 700 l 1,9,-1
 246 700 l 1,10,-1
 236 590 l 1,11,-1
 154 433 l 1,6,-1
EndSplineSet
EndChar

StartChar: guillemotright
Encoding: 187 187 120
Width: 465
Flags: W
LayerCount: 2
Fore
SplineSet
217 92 m 1,0,-1
 297 299 l 1,1,-1
 255 506 l 1,2,-1
 362 506 l 1,3,-1
 431 299 l 1,4,-1
 326 92 l 1,5,-1
 217 92 l 1,0,-1
47 92 m 1,6,-1
 127 299 l 1,7,-1
 85 506 l 1,8,-1
 192 506 l 1,9,-1
 261 299 l 1,10,-1
 156 92 l 1,11,-1
 47 92 l 1,6,-1
EndSplineSet
EndChar

StartChar: ellipsis
Encoding: 8230 8230 121
Width: 750
Flags: W
LayerCount: 2
Fore
SplineSet
40 0 m 1,0,-1
 51 130 l 1,1,-1
 201 130 l 1,2,-1
 190 0 l 1,3,-1
 40 0 l 1,0,-1
290 0 m 1,4,-1
 301 130 l 1,5,-1
 451 130 l 1,6,-1
 440 0 l 1,7,-1
 290 0 l 1,4,-1
540 0 m 1,8,-1
 551 130 l 1,9,-1
 701 130 l 1,10,-1
 690 0 l 1,11,-1
 540 0 l 1,8,-1
EndSplineSet
EndChar

StartChar: perthousand
Encoding: 8240 8240 122
Width: 1269
Flags: W
LayerCount: 2
Fore
SplineSet
1102 204 m 0,0,1
 1104 224 1104 224 1105 239 c 128,-1,2
 1106 254 1106 254 1106 266 c 0,3,4
 1106 303 1106 303 1096.5 315.5 c 128,-1,5
 1087 328 1087 328 1065 328 c 0,6,7
 1050 328 1050 328 1040.5 323.5 c 128,-1,8
 1031 319 1031 319 1024.5 305.5 c 128,-1,9
 1018 292 1018 292 1013.5 267.5 c 128,-1,10
 1009 243 1009 243 1006 204 c 0,11,12
 1003 167 1003 167 1003 142 c 0,13,14
 1003 106 1003 106 1011.5 93 c 128,-1,15
 1020 80 1020 80 1043 80 c 0,16,17
 1058 80 1058 80 1068 85.5 c 128,-1,18
 1078 91 1078 91 1084.5 105 c 128,-1,19
 1091 119 1091 119 1095 143 c 128,-1,20
 1099 167 1099 167 1102 204 c 0,0,1
303 496 m 0,21,22
 305 516 305 516 306 531 c 128,-1,23
 307 546 307 546 307 558 c 0,24,25
 307 595 307 595 297.5 607.5 c 128,-1,26
 288 620 288 620 266 620 c 0,27,28
 251 620 251 620 241.5 615.5 c 128,-1,29
 232 611 232 611 225.5 597.5 c 128,-1,30
 219 584 219 584 214.5 559.5 c 128,-1,31
 210 535 210 535 207 496 c 0,32,33
 205 476 205 476 204 461 c 128,-1,34
 203 446 203 446 203 433 c 0,35,36
 203 397 203 397 212 384.5 c 128,-1,37
 221 372 221 372 244 372 c 0,38,39
 259 372 259 372 269 377.5 c 128,-1,40
 279 383 279 383 285.5 397 c 128,-1,41
 292 411 292 411 296 435 c 128,-1,42
 300 459 300 459 303 496 c 0,21,22
412 500 m 0,43,44
 408 453 408 453 399 413.5 c 128,-1,45
 390 374 390 374 371 345 c 128,-1,46
 352 316 352 316 319.5 299.5 c 128,-1,47
 287 283 287 283 236 283 c 0,48,49
 196 283 196 283 169 295.5 c 128,-1,50
 142 308 142 308 126 330 c 128,-1,51
 110 352 110 352 103 383 c 128,-1,52
 96 414 96 414 96 451 c 0,53,54
 96 508 96 508 103 555 c 128,-1,55
 110 602 110 602 129.5 636.5 c 128,-1,56
 149 671 149 671 184 690 c 128,-1,57
 219 709 219 709 274 709 c 0,58,59
 314 709 314 709 341 698 c 128,-1,60
 368 687 368 687 384 666 c 128,-1,61
 400 645 400 645 407 615.5 c 128,-1,62
 414 586 414 586 414 549 c 0,63,64
 414 538 414 538 414 525.5 c 128,-1,65
 414 513 414 513 412 500 c 0,43,44
385 0 m 1,66,-1
 267 0 l 1,67,-1
 573 700 l 1,68,-1
 691 700 l 1,69,-1
 385 0 l 1,66,-1
749 204 m 0,70,71
 751 224 751 224 752 239 c 128,-1,72
 753 254 753 254 753 266 c 0,73,74
 753 303 753 303 743.5 315.5 c 128,-1,75
 734 328 734 328 712 328 c 0,76,77
 697 328 697 328 687.5 323.5 c 128,-1,78
 678 319 678 319 671.5 305.5 c 128,-1,79
 665 292 665 292 660.5 267.5 c 128,-1,80
 656 243 656 243 653 204 c 0,81,82
 650 167 650 167 650 142 c 0,83,84
 650 106 650 106 658.5 93 c 128,-1,85
 667 80 667 80 690 80 c 0,86,87
 705 80 705 80 715 85.5 c 128,-1,88
 725 91 725 91 731.5 105 c 128,-1,89
 738 119 738 119 742 143 c 128,-1,90
 746 167 746 167 749 204 c 0,70,71
858 208 m 0,91,92
 854 161 854 161 845 121.5 c 128,-1,93
 836 82 836 82 817 53 c 128,-1,94
 798 24 798 24 765.5 7.5 c 128,-1,95
 733 -9 733 -9 682 -9 c 0,96,97
 642 -9 642 -9 615 3.5 c 128,-1,98
 588 16 588 16 572 38 c 128,-1,99
 556 60 556 60 549 91 c 128,-1,100
 542 122 542 122 542 159 c 0,101,102
 542 216 542 216 549 263 c 128,-1,103
 556 310 556 310 575.5 344.5 c 128,-1,104
 595 379 595 379 630 398 c 128,-1,105
 665 417 665 417 720 417 c 0,106,107
 760 417 760 417 787 406 c 128,-1,108
 814 395 814 395 830 374 c 128,-1,109
 846 353 846 353 853 323.5 c 128,-1,110
 860 294 860 294 860 257 c 0,111,112
 860 246 860 246 860 233.5 c 128,-1,113
 860 221 860 221 858 208 c 0,91,92
1211 208 m 0,114,115
 1207 161 1207 161 1198 121.5 c 128,-1,116
 1189 82 1189 82 1170 53 c 128,-1,117
 1151 24 1151 24 1118.5 7.5 c 128,-1,118
 1086 -9 1086 -9 1035 -9 c 0,119,120
 995 -9 995 -9 968 3.5 c 128,-1,121
 941 16 941 16 925 38 c 128,-1,122
 909 60 909 60 902 91 c 128,-1,123
 895 122 895 122 895 159 c 0,124,125
 895 216 895 216 902 263 c 128,-1,126
 909 310 909 310 928.5 344.5 c 128,-1,127
 948 379 948 379 983 398 c 128,-1,128
 1018 417 1018 417 1073 417 c 0,129,130
 1113 417 1113 417 1140 406 c 128,-1,131
 1167 395 1167 395 1183 374 c 128,-1,132
 1199 353 1199 353 1206 323.5 c 128,-1,133
 1213 294 1213 294 1213 257 c 0,134,135
 1213 246 1213 246 1213 233.5 c 128,-1,136
 1213 221 1213 221 1211 208 c 0,114,115
EndSplineSet
Ligature2: "'frac' Diagonal Fractions in Latin lookup 1 subtable" zero fraction zero zero
Ligature2: "'frac' Diagonal Fractions in Latin lookup 1 subtable" zero slash zero zero
EndChar

StartChar: questiondown
Encoding: 191 191 123
Width: 380
Flags: W
LayerCount: 2
Fore
SplineSet
331 500 m 1,0,-1
 320 370 l 1,1,-1
 170 370 l 1,2,-1
 181 500 l 1,3,-1
 331 500 l 1,0,-1
17 -28 m 0,4,5
 19 -3 19 -3 23.5 16.5 c 128,-1,6
 28 36 28 36 35.5 52 c 128,-1,7
 43 68 43 68 54.5 83 c 128,-1,8
 66 98 66 98 82 116 c 2,9,-1
 163 204 l 1,10,-1
 169 272 l 1,11,-1
 304 272 l 1,12,-1
 295 163 l 1,13,-1
 206 65 l 2,14,15
 190 48 190 48 179.5 35.5 c 128,-1,16
 169 23 169 23 162.5 11 c 128,-1,17
 156 -1 156 -1 153.5 -14.5 c 128,-1,18
 151 -28 151 -28 151 -46 c 0,19,20
 151 -72 151 -72 166 -83.5 c 128,-1,21
 181 -95 181 -95 226 -95 c 0,22,23
 246 -95 246 -95 276.5 -90.5 c 128,-1,24
 307 -86 307 -86 333 -80 c 1,25,-1
 323 -195 l 1,26,27
 313 -197 313 -197 296.5 -199.5 c 128,-1,28
 280 -202 280 -202 262 -204 c 128,-1,29
 244 -206 244 -206 226 -207.5 c 128,-1,30
 208 -209 208 -209 194 -209 c 0,31,32
 153 -209 153 -209 120 -203 c 128,-1,33
 87 -197 87 -197 63.5 -180.5 c 128,-1,34
 40 -164 40 -164 27.5 -135.5 c 128,-1,35
 15 -107 15 -107 15 -61 c 0,36,37
 15 -53 15 -53 15.5 -45 c 128,-1,38
 16 -37 16 -37 17 -28 c 0,4,5
EndSplineSet
EndChar

StartChar: grave
Encoding: 96 96 124
Width: 313
Flags: W
LayerCount: 2
Fore
SplineSet
222 580 m 1,0,-1
 77 715 l 1,1,-1
 236 715 l 1,2,-1
 328 580 l 1,3,-1
 222 580 l 1,0,-1
EndSplineSet
EndChar

StartChar: acute
Encoding: 180 180 125
Width: 313
Flags: W
LayerCount: 2
Fore
SplineSet
65 580 m 1,0,-1
 176 715 l 1,1,-1
 340 715 l 1,2,-1
 176 580 l 1,3,-1
 65 580 l 1,0,-1
EndSplineSet
EndChar

StartChar: circumflex
Encoding: 710 710 126
Width: 433
Flags: W
LayerCount: 2
Fore
SplineSet
309 580 m 1,0,-1
 266 654 l 1,1,-1
 209 580 l 1,2,-1
 60 580 l 1,3,-1
 194 715 l 1,4,-1
 342 715 l 1,5,-1
 453 580 l 1,6,-1
 309 580 l 1,0,-1
EndSplineSet
EndChar

StartChar: tilde
Encoding: 732 732 127
Width: 380
Flags: W
LayerCount: 2
Fore
SplineSet
75 688 m 1,0,1
 99 707 99 707 126 713.5 c 128,-1,2
 153 720 153 720 173 720 c 0,3,4
 191 720 191 720 209.5 714 c 128,-1,5
 228 708 228 708 246.5 700.5 c 128,-1,6
 265 693 265 693 282 687 c 128,-1,7
 299 681 299 681 314 681 c 0,8,9
 340 681 340 681 363 690.5 c 128,-1,10
 386 700 386 700 407 717 c 1,11,-1
 398 612 l 1,12,13
 377 593 377 593 351 586.5 c 128,-1,14
 325 580 325 580 299 580 c 0,15,16
 280 580 280 580 262 586 c 128,-1,17
 244 592 244 592 226.5 599.5 c 128,-1,18
 209 607 209 607 192 613 c 128,-1,19
 175 619 175 619 159 619 c 0,20,21
 133 619 133 619 108 608 c 128,-1,22
 83 597 83 597 66 583 c 1,23,-1
 75 688 l 1,0,1
EndSplineSet
EndChar

StartChar: macron
Encoding: 175 175 128
Width: 345
Flags: W
LayerCount: 2
Fore
SplineSet
66 591 m 1,0,-1
 76 700 l 1,1,-1
 371 700 l 1,2,-1
 361 591 l 1,3,-1
 66 591 l 1,0,-1
EndSplineSet
EndChar

StartChar: breve
Encoding: 728 728 129
Width: 374
Flags: W
LayerCount: 2
Fore
SplineSet
194 716 m 1,0,1
 194 692 194 692 204.5 678.5 c 128,-1,2
 215 665 215 665 235 665 c 256,3,4
 255 665 255 665 268 679 c 128,-1,5
 281 693 281 693 284 716 c 1,6,-1
 401 716 l 1,7,8
 398 695 398 695 388 670 c 128,-1,9
 378 645 378 645 358 623 c 128,-1,10
 338 601 338 601 305 586 c 128,-1,11
 272 571 272 571 224 571 c 0,12,13
 181 571 181 571 152.5 586 c 128,-1,14
 124 601 124 601 107 623 c 128,-1,15
 90 645 90 645 83.5 670 c 128,-1,16
 77 695 77 695 77 716 c 1,17,-1
 194 716 l 1,0,1
EndSplineSet
EndChar

StartChar: dotaccent
Encoding: 729 729 130
Width: 193
Flags: W
LayerCount: 2
Fore
SplineSet
66 585 m 1,0,-1
 76 700 l 1,1,-1
 219 700 l 1,2,-1
 209 585 l 1,3,-1
 66 585 l 1,0,-1
EndSplineSet
EndChar

StartChar: dieresis
Encoding: 168 168 131
Width: 380
Flags: W
LayerCount: 2
Fore
SplineSet
263 560 m 1,0,-1
 274 675 l 1,1,-1
 404 675 l 1,2,-1
 393 560 l 1,3,-1
 263 560 l 1,0,-1
63 560 m 1,4,-1
 74 675 l 1,5,-1
 204 675 l 1,6,-1
 193 560 l 1,7,-1
 63 560 l 1,4,-1
EndSplineSet
EndChar

StartChar: ring
Encoding: 730 730 132
Width: 282
Flags: W
LayerCount: 2
Fore
SplineSet
215 646 m 0,0,1
 216 651 216 651 216 655.5 c 128,-1,2
 216 660 216 660 216 664 c 0,3,4
 216 680 216 680 210.5 687.5 c 128,-1,5
 205 695 205 695 191 695 c 0,6,7
 171 695 171 695 164.5 678.5 c 128,-1,8
 158 662 158 662 158 628 c 0,9,10
 158 612 158 612 163.5 604.5 c 128,-1,11
 169 597 169 597 183 597 c 0,12,13
 200 597 200 597 206.5 609 c 128,-1,14
 213 621 213 621 215 646 c 0,0,1
303 645 m 0,15,16
 298 587 298 587 269.5 555 c 128,-1,17
 241 523 241 523 176 523 c 0,18,19
 124 523 124 523 97 550 c 128,-1,20
 70 577 70 577 70 627 c 0,21,22
 70 693 70 693 100 730 c 128,-1,23
 130 767 130 767 198 767 c 0,24,25
 249 767 249 767 276.5 740 c 128,-1,26
 304 713 304 713 304 663 c 0,27,28
 304 658 304 658 304 654 c 128,-1,29
 304 650 304 650 303 645 c 0,15,16
EndSplineSet
EndChar

StartChar: cedilla
Encoding: 184 184 133
Width: 336
Flags: W
LayerCount: 2
Fore
SplineSet
43 -127 m 1,0,1
 57 -129 57 -129 71.5 -130.5 c 128,-1,2
 86 -132 86 -132 97 -132 c 0,3,4
 119 -132 119 -132 129 -127.5 c 128,-1,5
 139 -123 139 -123 139 -109 c 0,6,7
 139 -103 139 -103 135.5 -98.5 c 128,-1,8
 132 -94 132 -94 123 -91 c 128,-1,9
 114 -88 114 -88 98.5 -87 c 128,-1,10
 83 -86 83 -86 58 -86 c 1,11,-1
 92 50 l 1,12,-1
 188 50 l 1,13,-1
 171 -19 l 1,14,15
 213 -24 213 -24 231.5 -47 c 128,-1,16
 250 -70 250 -70 250 -103 c 0,17,18
 250 -154 250 -154 217.5 -188 c 128,-1,19
 185 -222 185 -222 111 -222 c 0,20,21
 94 -222 94 -222 72 -219.5 c 128,-1,22
 50 -217 50 -217 36 -214 c 1,23,-1
 43 -127 l 1,0,1
EndSplineSet
EndChar

StartChar: hungarumlaut
Encoding: 733 733 134
Width: 518
Flags: W
LayerCount: 2
Fore
SplineSet
173 598 m 1,0,-1
 67 598 l 1,1,-1
 183 745 l 1,2,-1
 353 745 l 1,3,-1
 173 598 l 1,0,-1
368 598 m 1,4,-1
 262 598 l 1,5,-1
 378 745 l 1,6,-1
 548 745 l 1,7,-1
 368 598 l 1,4,-1
EndSplineSet
EndChar

StartChar: ogonek
Encoding: 731 731 135
Width: 338
Flags: W
LayerCount: 2
Fore
SplineSet
246 -188 m 1,0,1
 239 -190 239 -190 228 -191.5 c 128,-1,2
 217 -193 217 -193 205 -194.5 c 128,-1,3
 193 -196 193 -196 181.5 -197 c 128,-1,4
 170 -198 170 -198 161 -198 c 0,5,6
 97 -198 97 -198 72 -172 c 128,-1,7
 47 -146 47 -146 47 -95 c 0,8,9
 47 -37 47 -37 68.5 -0.5 c 128,-1,10
 90 36 90 36 114 60 c 1,11,-1
 214 60 l 1,12,13
 189 27 189 27 174 -7.5 c 128,-1,14
 159 -42 159 -42 159 -60 c 0,15,16
 159 -77 159 -77 167.5 -88.5 c 128,-1,17
 176 -100 176 -100 194 -100 c 0,18,19
 205 -100 205 -100 222 -97.5 c 128,-1,20
 239 -95 239 -95 253 -93 c 1,21,-1
 246 -188 l 1,0,1
EndSplineSet
EndChar

StartChar: caron
Encoding: 711 711 136
Width: 433
Flags: W
LayerCount: 2
Fore
SplineSet
216 716 m 1,0,-1
 260 642 l 1,1,-1
 316 716 l 1,2,-1
 465 716 l 1,3,-1
 331 581 l 1,4,-1
 183 581 l 1,5,-1
 72 716 l 1,6,-1
 216 716 l 1,0,-1
EndSplineSet
EndChar

StartChar: emdash
Encoding: 8212 8212 137
Width: 605
Flags: W
LayerCount: 2
Fore
SplineSet
66 245 m 1,0,-1
 76 360 l 1,1,-1
 571 360 l 1,2,-1
 561 245 l 1,3,-1
 66 245 l 1,0,-1
EndSplineSet
EndChar

StartChar: AE
Encoding: 198 198 138
Width: 781
Flags: W
LayerCount: 2
Fore
SplineSet
377 0 m 1,0,-1
 372 163 l 1,1,-1
 208 163 l 1,2,-1
 148 0 l 1,3,-1
 5 0 l 1,4,-1
 276 700 l 1,5,-1
 762 700 l 1,6,-1
 752 592 l 1,7,-1
 485 592 l 1,8,-1
 496 415 l 1,9,-1
 729 415 l 1,10,-1
 719 308 l 1,11,-1
 502 308 l 1,12,-1
 515 108 l 1,13,-1
 730 108 l 1,14,-1
 721 0 l 1,15,-1
 377 0 l 1,0,-1
250 281 m 1,16,-1
 368 281 l 1,17,-1
 359 580 l 1,18,-1
 250 281 l 1,16,-1
EndSplineSet
Position2: "'cpsp' Capital Spacing in Latin lookup 0 subtable" dx=5 dy=0 dh=10 dv=0
EndChar

StartChar: ordfeminine
Encoding: 170 170 139
Width: 431
Flags: W
LayerCount: 2
Fore
SplineSet
85 503 m 0,0,1
 90 561 90 561 104 600 c 128,-1,2
 118 639 118 639 141 663 c 128,-1,3
 164 687 164 687 197.5 697 c 128,-1,4
 231 707 231 707 276 707 c 0,5,6
 305 707 305 707 339.5 701.5 c 128,-1,7
 374 696 374 696 399 689 c 1,8,-1
 376 425 l 2,9,10
 376 415 376 415 381 410 c 128,-1,11
 386 405 386 405 401 405 c 1,12,-1
 395 325 l 1,13,-1
 354 325 l 2,14,15
 345 325 345 325 335 326.5 c 128,-1,16
 325 328 325 328 315 332.5 c 128,-1,17
 305 337 305 337 298 345.5 c 128,-1,18
 291 354 291 354 288 367 c 1,19,20
 270 344 270 344 245.5 331 c 128,-1,21
 221 318 221 318 187 318 c 0,22,23
 133 318 133 318 107.5 348 c 128,-1,24
 82 378 82 378 82 451 c 0,25,26
 82 475 82 475 85 503 c 0,0,1
52 0 m 1,27,-1
 62 115 l 1,28,-1
 363 115 l 1,29,-1
 353 0 l 1,30,-1
 52 0 l 1,27,-1
221 409 m 0,31,32
 237 409 237 409 247.5 417.5 c 128,-1,33
 258 426 258 426 264.5 439.5 c 128,-1,34
 271 453 271 453 274 468.5 c 128,-1,35
 277 484 277 484 278 498 c 2,36,-1
 288 615 l 1,37,38
 280 615 280 615 273.5 615.5 c 128,-1,39
 267 616 267 616 261 616 c 0,40,41
 246 616 246 616 232.5 610.5 c 128,-1,42
 219 605 219 605 209 587.5 c 128,-1,43
 199 570 199 570 193.5 537.5 c 128,-1,44
 188 505 188 505 188 451 c 0,45,46
 188 424 188 424 195 416.5 c 128,-1,47
 202 409 202 409 221 409 c 0,31,32
EndSplineSet
EndChar

StartChar: Lslash
Encoding: 321 321 140
Width: 430
Flags: W
LayerCount: 2
Fore
SplineSet
70 0 m 1,0,-1
 98 320 l 1,1,-1
 35 290 l 1,2,-1
 45 408 l 1,3,-1
 108 439 l 1,4,-1
 131 700 l 1,5,-1
 268 700 l 1,6,-1
 251 509 l 1,7,-1
 343 555 l 1,8,-1
 333 435 l 1,9,-1
 241 390 l 1,10,-1
 217 116 l 1,11,-1
 420 116 l 1,12,-1
 410 0 l 1,13,-1
 70 0 l 1,0,-1
EndSplineSet
Position2: "'cpsp' Capital Spacing in Latin lookup 0 subtable" dx=5 dy=0 dh=10 dv=0
EndChar

StartChar: Oslash
Encoding: 216 216 141
Width: 548
Flags: W
LayerCount: 2
Fore
SplineSet
544 358 m 0,0,1
 536 266 536 266 522.5 197 c 128,-1,2
 509 128 509 128 480.5 82 c 128,-1,3
 452 36 452 36 404 13 c 128,-1,4
 356 -10 356 -10 278 -10 c 0,5,6
 258 -10 258 -10 240.5 -8 c 128,-1,7
 223 -6 223 -6 208 -3 c 1,8,-1
 172 -91 l 1,9,-1
 73 -91 l 1,10,-1
 126 39 l 1,11,12
 95 71 95 71 82.5 121 c 128,-1,13
 70 171 70 171 70 242 c 0,14,15
 70 295 70 295 76 358 c 0,16,17
 84 446 84 446 97.5 512 c 128,-1,18
 111 578 111 578 140 622 c 128,-1,19
 169 666 169 666 217 688 c 128,-1,20
 265 710 265 710 341 710 c 0,21,22
 357 710 357 710 371 708.5 c 128,-1,23
 385 707 385 707 399 705 c 1,24,-1
 434 791 l 1,25,-1
 534 791 l 1,26,-1
 483 668 l 1,27,28
 518 637 518 637 533.5 585 c 128,-1,29
 549 533 549 533 549 458 c 0,30,31
 549 435 549 435 547.5 410 c 128,-1,32
 546 385 546 385 544 358 c 0,0,1
404 353 m 0,33,34
 410 424 410 424 410 469 c 2,35,-1
 410 489 l 1,36,-1
 252 104 l 1,37,38
 267 98 267 98 287 98 c 0,39,40
 314 98 314 98 333 109.5 c 128,-1,41
 352 121 352 121 365.5 150 c 128,-1,42
 379 179 379 179 388.5 228 c 128,-1,43
 398 277 398 277 404 353 c 0,33,34
214 353 m 0,44,45
 208 286 208 286 208 238 c 1,46,-1
 355 599 l 1,47,48
 345 602 345 602 331 602 c 0,49,50
 304 602 304 602 285 592 c 128,-1,51
 266 582 266 582 252.5 554.5 c 128,-1,52
 239 527 239 527 230 478.5 c 128,-1,53
 221 430 221 430 214 353 c 0,44,45
EndSplineSet
Position2: "'cpsp' Capital Spacing in Latin lookup 0 subtable" dx=5 dy=0 dh=10 dv=0
EndChar

StartChar: OE
Encoding: 338 338 142
Width: 795
Flags: W
LayerCount: 2
Fore
SplineSet
358 0 m 1,0,1
 339 -5 339 -5 318 -7.5 c 128,-1,2
 297 -10 297 -10 273 -10 c 0,3,4
 214 -10 214 -10 174 6 c 128,-1,5
 134 22 134 22 110 54 c 128,-1,6
 86 86 86 86 75.5 133.5 c 128,-1,7
 65 181 65 181 65 245 c 0,8,9
 65 250 65 250 66 266 c 128,-1,10
 67 282 67 282 68 301 c 128,-1,11
 69 320 69 320 70 336.5 c 128,-1,12
 71 353 71 353 71 358 c 0,13,14
 79 446 79 446 93 512 c 128,-1,15
 107 578 107 578 136 622 c 128,-1,16
 165 666 165 666 213 688 c 128,-1,17
 261 710 261 710 336 710 c 0,18,19
 360 710 360 710 380.5 707.5 c 128,-1,20
 401 705 401 705 419 700 c 1,21,-1
 796 700 l 1,22,-1
 786 592 l 1,23,-1
 527 592 l 1,24,25
 543 538 543 538 543 458 c 0,26,27
 543 447 543 447 543 436.5 c 128,-1,28
 543 426 543 426 542 415 c 1,29,-1
 746 415 l 1,30,-1
 736 308 l 1,31,-1
 533 308 l 1,32,33
 526 245 526 245 515.5 195.5 c 128,-1,34
 505 146 505 146 487 108 c 1,35,-1
 744 108 l 1,36,-1
 735 0 l 1,37,-1
 358 0 l 1,0,1
399 353 m 0,38,39
 405 424 405 424 405 469 c 0,40,41
 405 509 405 509 400.5 534.5 c 128,-1,42
 396 560 396 560 386 575 c 128,-1,43
 376 590 376 590 361.5 596 c 128,-1,44
 347 602 347 602 326 602 c 0,45,46
 299 602 299 602 280 592 c 128,-1,47
 261 582 261 582 247.5 554.5 c 128,-1,48
 234 527 234 527 225 478.5 c 128,-1,49
 216 430 216 430 209 353 c 0,50,51
 203 286 203 286 203 238 c 0,52,53
 203 157 203 157 222 127.5 c 128,-1,54
 241 98 241 98 282 98 c 0,55,56
 309 98 309 98 328 109.5 c 128,-1,57
 347 121 347 121 360.5 150 c 128,-1,58
 374 179 374 179 383.5 228 c 128,-1,59
 393 277 393 277 399 353 c 0,38,39
EndSplineSet
Position2: "'cpsp' Capital Spacing in Latin lookup 0 subtable" dx=5 dy=0 dh=10 dv=0
EndChar

StartChar: ordmasculine
Encoding: 186 186 143
Width: 434
Flags: W
LayerCount: 2
Fore
SplineSet
303 512 m 0,0,1
 306 539 306 539 306 559 c 0,2,3
 306 597 306 597 295.5 610 c 128,-1,4
 285 623 285 623 261 623 c 0,5,6
 246 623 246 623 234.5 617 c 128,-1,7
 223 611 223 611 214.5 594.5 c 128,-1,8
 206 578 206 578 201.5 549.5 c 128,-1,9
 197 521 197 521 197 476 c 0,10,11
 197 439 197 439 207 422 c 128,-1,12
 217 405 217 405 242 405 c 0,13,14
 272 405 272 405 285 430.5 c 128,-1,15
 298 456 298 456 303 512 c 0,0,1
414 522 m 0,16,17
 409 463 409 463 396.5 424 c 128,-1,18
 384 385 384 385 362.5 361.5 c 128,-1,19
 341 338 341 338 309.5 328.5 c 128,-1,20
 278 319 278 319 234 319 c 0,21,22
 200 319 200 319 173 326.5 c 128,-1,23
 146 334 146 334 127 352.5 c 128,-1,24
 108 371 108 371 98 401.5 c 128,-1,25
 88 432 88 432 88 478 c 0,26,27
 88 537 88 537 97.5 580.5 c 128,-1,28
 107 624 107 624 128 652.5 c 128,-1,29
 149 681 149 681 183.5 695 c 128,-1,30
 218 709 218 709 269 709 c 0,31,32
 344 709 344 709 380 671.5 c 128,-1,33
 416 634 416 634 416 556 c 0,34,35
 416 548 416 548 415.5 539.5 c 128,-1,36
 415 531 415 531 414 522 c 0,16,17
48 0 m 1,37,-1
 58 115 l 1,38,-1
 372 115 l 1,39,-1
 362 0 l 1,40,-1
 48 0 l 1,37,-1
EndSplineSet
EndChar

StartChar: ae
Encoding: 230 230 144
Width: 740
Flags: W
LayerCount: 2
Fore
SplineSet
715 364 m 0,0,1
 715 281 715 281 670 235.5 c 128,-1,2
 625 190 625 190 516 190 c 0,3,4
 500 190 500 190 483.5 191 c 128,-1,5
 467 192 467 192 448 194 c 1,6,7
 448 142 448 142 463 123.5 c 128,-1,8
 478 105 478 105 524 105 c 0,9,10
 558 105 558 105 594 110 c 128,-1,11
 630 115 630 115 653 120 c 1,12,-1
 643 8 l 1,13,14
 631 5 631 5 614 1.5 c 128,-1,15
 597 -2 597 -2 579.5 -4 c 128,-1,16
 562 -6 562 -6 545 -7.5 c 128,-1,17
 528 -9 528 -9 514 -9 c 0,18,19
 459 -9 459 -9 418.5 3.5 c 128,-1,20
 378 16 378 16 353 52 c 1,21,22
 330 25 330 25 288.5 8 c 128,-1,23
 247 -9 247 -9 192 -9 c 0,24,25
 164 -9 164 -9 138.5 -2.5 c 128,-1,26
 113 4 113 4 93.5 19.5 c 128,-1,27
 74 35 74 35 62.5 61 c 128,-1,28
 51 87 51 87 51 126 c 0,29,30
 51 229 51 229 107.5 272.5 c 128,-1,31
 164 316 164 316 273 316 c 0,32,33
 282 316 282 316 295.5 315 c 128,-1,34
 309 314 309 314 323 312 c 1,35,-1
 326 339 l 2,36,37
 327 343 327 343 327 350 c 0,38,39
 327 373 327 373 312.5 386 c 128,-1,40
 298 399 298 399 264 399 c 0,41,42
 221 399 221 399 184 392.5 c 128,-1,43
 147 386 147 386 108 375 c 1,44,-1
 118 489 l 1,45,46
 132 493 132 493 151.5 496.5 c 128,-1,47
 171 500 171 500 192 503 c 128,-1,48
 213 506 213 506 234.5 507.5 c 128,-1,49
 256 509 256 509 274 509 c 0,50,51
 330 509 330 509 364.5 500 c 128,-1,52
 399 491 399 491 419 474 c 1,53,54
 469 509 469 509 546 509 c 0,55,56
 599 509 599 509 632 494 c 128,-1,57
 665 479 665 479 683.5 457 c 128,-1,58
 702 435 702 435 708.5 409.5 c 128,-1,59
 715 384 715 384 715 364 c 0,0,1
240 103 m 0,60,61
 261 103 261 103 274.5 110.5 c 128,-1,62
 288 118 288 118 296 129 c 128,-1,63
 304 140 304 140 307.5 152.5 c 128,-1,64
 311 165 311 165 312 175 c 2,65,-1
 315 214 l 1,66,67
 290 219 290 219 265 219 c 0,68,69
 231 219 231 219 209.5 200.5 c 128,-1,70
 188 182 188 182 188 147 c 0,71,72
 188 127 188 127 200 115 c 128,-1,73
 212 103 212 103 240 103 c 0,60,61
534 399 m 0,74,75
 505 399 505 399 487 376.5 c 128,-1,76
 469 354 469 354 458 297 c 1,77,78
 481 294 481 294 501 294 c 0,79,80
 538 294 538 294 561 306 c 128,-1,81
 584 318 584 318 584 348 c 0,82,83
 584 369 584 369 575.5 384 c 128,-1,84
 567 399 567 399 534 399 c 0,74,75
EndSplineSet
EndChar

StartChar: dotlessi
Encoding: 305 305 145
Width: 263
Flags: W
LayerCount: 2
Fore
SplineSet
55 0 m 1,0,-1
 98 500 l 1,1,-1
 231 500 l 1,2,-1
 188 0 l 1,3,-1
 55 0 l 1,0,-1
EndSplineSet
EndChar

StartChar: lslash
Encoding: 322 322 146
Width: 300
Flags: W
LayerCount: 2
Fore
SplineSet
265 3 m 1,0,1
 254 1 254 1 228 -2 c 128,-1,2
 202 -5 202 -5 173 -5 c 0,3,4
 116 -5 116 -5 95.5 21 c 128,-1,5
 75 47 75 47 75 101 c 0,6,7
 75 112 75 112 75.5 123.5 c 128,-1,8
 76 135 76 135 77 148 c 2,9,-1
 92 319 l 1,10,-1
 40 290 l 1,11,-1
 50 408 l 1,12,-1
 102 438 l 1,13,-1
 126 700 l 1,14,-1
 259 700 l 1,15,-1
 243 518 l 1,16,-1
 308 555 l 1,17,-1
 298 435 l 1,18,-1
 232 398 l 1,19,-1
 213 176 l 2,20,21
 210 146 210 146 210 139 c 0,22,23
 210 123 210 123 216 116.5 c 128,-1,24
 222 110 222 110 238 110 c 0,25,26
 249 110 249 110 259.5 111.5 c 128,-1,27
 270 113 270 113 274 114 c 1,28,-1
 265 3 l 1,0,1
EndSplineSet
EndChar

StartChar: oslash
Encoding: 248 248 147
Width: 530
Flags: W
LayerCount: 2
Fore
SplineSet
497 305 m 0,0,1
 497 294 497 294 496.5 283 c 128,-1,2
 496 272 496 272 495 260 c 0,3,4
 488 181 488 181 471.5 129.5 c 128,-1,5
 455 78 455 78 426 47.5 c 128,-1,6
 397 17 397 17 355 5 c 128,-1,7
 313 -7 313 -7 256 -7 c 0,8,9
 242 -7 242 -7 229.5 -6 c 128,-1,10
 217 -5 217 -5 205 -3 c 1,11,-1
 165 -89 l 1,12,-1
 70 -89 l 1,13,-1
 124 26 l 1,14,15
 93 49 93 49 77.5 91 c 128,-1,16
 62 133 62 133 62 202 c 0,17,18
 62 281 62 281 75 338.5 c 128,-1,19
 88 396 88 396 117 433.5 c 128,-1,20
 146 471 146 471 191.5 489 c 128,-1,21
 237 507 237 507 301 507 c 0,22,23
 329 507 329 507 349 503 c 1,24,-1
 390 589 l 1,25,-1
 484 589 l 1,26,-1
 429 473 l 1,27,28
 497 425 497 425 497 305 c 0,0,1
358 245 m 0,29,30
 361 277 361 277 361 300 c 0,31,32
 361 307 361 307 360.5 313 c 128,-1,33
 360 319 360 319 360 325 c 1,34,-1
 254 101 l 1,35,-1
 265 101 l 2,36,37
 288 101 288 101 304 108 c 128,-1,38
 320 115 320 115 331 131.5 c 128,-1,39
 342 148 342 148 348 175.5 c 128,-1,40
 354 203 354 203 358 245 c 0,29,30
197 179 m 1,41,-1
 300 399 l 1,42,-1
 291 399 l 2,43,44
 269 399 269 399 253 391.5 c 128,-1,45
 237 384 237 384 226.5 366 c 128,-1,46
 216 348 216 348 210 318.5 c 128,-1,47
 204 289 204 289 200 245 c 0,48,49
 197 212 197 212 197 188 c 2,50,-1
 197 179 l 1,41,-1
EndSplineSet
EndChar

StartChar: oe
Encoding: 339 339 148
Width: 774
Flags: W
LayerCount: 2
Fore
SplineSet
749 364 m 0,0,1
 749 322 749 322 738.5 290 c 128,-1,2
 728 258 728 258 704.5 236 c 128,-1,3
 681 214 681 214 643 202.5 c 128,-1,4
 605 191 605 191 551 191 c 0,5,6
 535 191 535 191 518 192 c 128,-1,7
 501 193 501 193 482 195 c 1,8,9
 482 169 482 169 485 152 c 128,-1,10
 488 135 488 135 496.5 124.5 c 128,-1,11
 505 114 505 114 520 109.5 c 128,-1,12
 535 105 535 105 558 105 c 0,13,14
 592 105 592 105 628 110 c 128,-1,15
 664 115 664 115 687 120 c 1,16,-1
 677 8 l 1,17,18
 665 5 665 5 648 1.5 c 128,-1,19
 631 -2 631 -2 613.5 -4 c 128,-1,20
 596 -6 596 -6 579 -7.5 c 128,-1,21
 562 -9 562 -9 548 -9 c 0,22,23
 500 -9 500 -9 463 1.5 c 128,-1,24
 426 12 426 12 401 37 c 1,25,26
 375 15 375 15 339 4 c 128,-1,27
 303 -7 303 -7 253 -7 c 0,28,29
 207 -7 207 -7 171 2.5 c 128,-1,30
 135 12 135 12 110 36 c 128,-1,31
 85 60 85 60 72 100.5 c 128,-1,32
 59 141 59 141 59 202 c 0,33,34
 59 281 59 281 72 338.5 c 128,-1,35
 85 396 85 396 114 433.5 c 128,-1,36
 143 471 143 471 188.5 489 c 128,-1,37
 234 507 234 507 298 507 c 0,38,39
 345 507 345 507 379 494 c 128,-1,40
 413 481 413 481 436 458 c 1,41,42
 489 509 489 509 580 509 c 0,43,44
 633 509 633 509 666 494 c 128,-1,45
 699 479 699 479 717.5 457 c 128,-1,46
 736 435 736 435 742.5 409.5 c 128,-1,47
 749 384 749 384 749 364 c 0,0,1
355 245 m 0,48,49
 358 277 358 277 358 300 c 0,50,51
 358 356 358 356 341.5 377.5 c 128,-1,52
 325 399 325 399 288 399 c 0,53,54
 266 399 266 399 250 391.5 c 128,-1,55
 234 384 234 384 223.5 366 c 128,-1,56
 213 348 213 348 207 318.5 c 128,-1,57
 201 289 201 289 197 245 c 0,58,59
 194 212 194 212 194 188 c 0,60,61
 194 138 194 138 209 119.5 c 128,-1,62
 224 101 224 101 262 101 c 0,63,64
 285 101 285 101 301 108 c 128,-1,65
 317 115 317 115 328 131.5 c 128,-1,66
 339 148 339 148 345 175.5 c 128,-1,67
 351 203 351 203 355 245 c 0,48,49
568 399 m 0,68,69
 539 399 539 399 521 377 c 128,-1,70
 503 355 503 355 492 299 c 1,71,72
 516 296 516 296 538 296 c 0,73,74
 574 296 574 296 596 307.5 c 128,-1,75
 618 319 618 319 618 348 c 0,76,77
 618 369 618 369 609.5 384 c 128,-1,78
 601 399 601 399 568 399 c 0,68,69
EndSplineSet
EndChar

StartChar: germandbls
Encoding: 223 223 149
Width: 537
Flags: W
LayerCount: 2
Fore
SplineSet
497 187 m 0,0,1
 497 130 497 130 483 92.5 c 128,-1,2
 469 55 469 55 443.5 32.5 c 128,-1,3
 418 10 418 10 382.5 0.5 c 128,-1,4
 347 -9 347 -9 304 -9 c 0,5,6
 295 -9 295 -9 283.5 -8.5 c 128,-1,7
 272 -8 272 -8 259 -6.5 c 128,-1,8
 246 -5 246 -5 234 -3.5 c 128,-1,9
 222 -2 222 -2 213 0 c 1,10,-1
 222 114 l 1,11,12
 236 109 236 109 256.5 106 c 128,-1,13
 277 103 277 103 287 103 c 0,14,15
 328 103 328 103 343.5 121 c 128,-1,16
 359 139 359 139 359 174 c 0,17,18
 359 200 359 200 345 214 c 128,-1,19
 331 228 331 228 302 239 c 0,20,21
 264 254 264 254 248 283 c 128,-1,22
 232 312 232 312 232 350 c 0,23,24
 232 378 232 378 240 403.5 c 128,-1,25
 248 429 248 429 263.5 449 c 128,-1,26
 279 469 279 469 301.5 482 c 128,-1,27
 324 495 324 495 352 496 c 1,28,29
 359 508 359 508 362 524.5 c 128,-1,30
 365 541 365 541 365 550 c 0,31,32
 365 572 365 572 352 584.5 c 128,-1,33
 339 597 339 597 304 597 c 0,34,35
 268 597 268 597 252.5 576.5 c 128,-1,36
 237 556 237 556 233 510 c 2,37,-1
 189 0 l 1,38,-1
 55 0 l 1,39,-1
 99 503 l 2,40,41
 103 545 103 545 114 582 c 128,-1,42
 125 619 125 619 149.5 647.5 c 128,-1,43
 174 676 174 676 213.5 692.5 c 128,-1,44
 253 709 253 709 314 709 c 0,45,46
 351 709 351 709 382.5 699.5 c 128,-1,47
 414 690 414 690 437.5 672.5 c 128,-1,48
 461 655 461 655 474 629.5 c 128,-1,49
 487 604 487 604 487 572 c 0,50,51
 487 532 487 532 478 493 c 128,-1,52
 469 454 469 454 458 412 c 1,53,54
 404 412 404 412 383 401 c 128,-1,55
 362 390 362 390 362 363 c 0,56,57
 362 340 362 340 393 329 c 0,58,59
 437 314 437 314 467 281.5 c 128,-1,60
 497 249 497 249 497 187 c 0,0,1
EndSplineSet
EndChar

StartChar: onesuperior
Encoding: 185 185 150
Width: 410
Flags: W
LayerCount: 2
Fore
SplineSet
84 205 m 1,0,-1
 93 305 l 1,1,-1
 176 305 l 1,2,-1
 202 596 l 1,3,-1
 107 557 l 1,4,-1
 116 662 l 1,5,-1
 203 700 l 1,6,-1
 326 700 l 1,7,-1
 291 305 l 1,8,-1
 358 305 l 1,9,-1
 349 205 l 1,10,-1
 84 205 l 1,0,-1
EndSplineSet
EndChar

StartChar: logicalnot
Encoding: 172 172 151
Width: 575
Flags: W
LayerCount: 2
Fore
SplineSet
394 106 m 1,0,-1
 405 245 l 1,1,-1
 71 245 l 1,2,-1
 81 360 l 1,3,-1
 536 360 l 1,4,-1
 514 106 l 1,5,-1
 394 106 l 1,0,-1
EndSplineSet
EndChar

StartChar: mu
Encoding: 181 181 152
Width: 523
Flags: W
LayerCount: 2
Fore
SplineSet
226 500 m 1,0,-1
 198 189 l 2,1,2
 197 182 197 182 197 177 c 128,-1,3
 197 172 197 172 197 168 c 2,4,-1
 197 159 l 2,5,6
 197 127 197 127 210.5 116.5 c 128,-1,7
 224 106 224 106 245 106 c 256,8,9
 266 106 266 106 281.5 119 c 128,-1,10
 297 132 297 132 307 150.5 c 128,-1,11
 317 169 317 169 323 191 c 128,-1,12
 329 213 329 213 330 231 c 2,13,-1
 353 500 l 1,14,-1
 486 500 l 1,15,-1
 443 0 l 1,16,-1
 335 0 l 1,17,-1
 330 50 l 1,18,19
 306 24 306 24 273.5 7.5 c 128,-1,20
 241 -9 241 -9 198 -9 c 0,21,22
 193 -9 193 -9 189 -9 c 128,-1,23
 185 -9 185 -9 181 -8 c 1,24,-1
 167 -170 l 1,25,-1
 34 -170 l 1,26,-1
 65 181 l 2,27,28
 65 189 65 189 66 193 c 2,29,-1
 93 500 l 1,30,-1
 226 500 l 1,0,-1
EndSplineSet
EndChar

StartChar: trademark
Encoding: 8482 8482 153
Width: 810
Flags: W
LayerCount: 2
Fore
SplineSet
658 194 m 1,0,-1
 695 612 l 1,1,-1
 612 361 l 1,2,-1
 514 361 l 1,3,-1
 481 612 l 1,4,-1
 444 194 l 1,5,-1
 340 194 l 1,6,-1
 377 609 l 1,7,-1
 287 609 l 1,8,-1
 250 194 l 1,9,-1
 142 194 l 1,10,-1
 179 609 l 1,11,-1
 73 609 l 1,12,-1
 81 700 l 1,13,-1
 557 700 l 1,14,-1
 580 505 l 1,15,-1
 633 700 l 1,16,-1
 806 700 l 1,17,-1
 761 194 l 1,18,-1
 658 194 l 1,0,-1
EndSplineSet
EndChar

StartChar: Eth
Encoding: 208 208 154
Width: 546
Flags: W
LayerCount: 2
Fore
SplineSet
517 361 m 0,0,1
 507 249 507 249 487 177 c 128,-1,2
 467 105 467 105 434.5 63.5 c 128,-1,3
 402 22 402 22 356 6 c 128,-1,4
 310 -10 310 -10 248 -10 c 0,5,6
 222 -10 222 -10 189 -8.5 c 128,-1,7
 156 -7 156 -7 127 -5 c 0,8,9
 94 -2 94 -2 60 0 c 1,10,-1
 88 325 l 1,11,-1
 48 325 l 1,12,-1
 58 440 l 1,13,-1
 98 440 l 1,14,-1
 121 700 l 1,15,16
 156 702 156 702 189 705 c 0,17,18
 218 707 218 707 248 708.5 c 128,-1,19
 278 710 278 710 299 710 c 0,20,21
 349 710 349 710 390 700 c 128,-1,22
 431 690 431 690 460 662 c 128,-1,23
 489 634 489 634 505 583.5 c 128,-1,24
 521 533 521 533 521 452 c 0,25,26
 521 432 521 432 520 409 c 128,-1,27
 519 386 519 386 517 361 c 0,0,1
377 354 m 0,28,29
 383 425 383 425 383 468 c 0,30,31
 383 509 383 509 378 533 c 128,-1,32
 373 557 373 557 364 569.5 c 128,-1,33
 355 582 355 582 341.5 585.5 c 128,-1,34
 328 589 328 589 310 589 c 0,35,36
 296 589 296 589 284.5 588.5 c 128,-1,37
 273 588 273 588 265 587 c 0,38,39
 255 586 255 586 248 585 c 1,40,-1
 235 440 l 1,41,-1
 333 440 l 1,42,-1
 323 325 l 1,43,-1
 225 325 l 1,44,-1
 207 115 l 1,45,46
 212 114 212 114 221 113 c 0,47,48
 229 112 229 112 240 111.5 c 128,-1,49
 251 111 251 111 267 111 c 0,50,51
 290 111 290 111 308 122 c 128,-1,52
 326 133 326 133 339.5 160.5 c 128,-1,53
 353 188 353 188 362 235 c 128,-1,54
 371 282 371 282 377 354 c 0,28,29
EndSplineSet
Position2: "'cpsp' Capital Spacing in Latin lookup 0 subtable" dx=5 dy=0 dh=10 dv=0
EndChar

StartChar: onehalf
Encoding: 189 189 155
Width: 875
Flags: W
LayerCount: 2
Fore
SplineSet
59 205 m 1,0,-1
 68 305 l 1,1,-1
 151 305 l 1,2,-1
 177 596 l 1,3,-1
 82 557 l 1,4,-1
 91 662 l 1,5,-1
 178 700 l 1,6,-1
 301 700 l 1,7,-1
 266 305 l 1,8,-1
 333 305 l 1,9,-1
 324 205 l 1,10,-1
 59 205 l 1,0,-1
581 0 m 1,11,-1
 591 104 l 1,12,-1
 703 228 l 1,13,14
 722 247 722 247 734.5 263 c 128,-1,15
 747 279 747 279 754.5 294 c 128,-1,16
 762 309 762 309 765 325 c 128,-1,17
 768 341 768 341 768 360 c 0,18,19
 768 377 768 377 756 391 c 128,-1,20
 744 405 744 405 712 405 c 0,21,22
 688 405 688 405 667.5 401.5 c 128,-1,23
 647 398 647 398 629 394 c 1,24,-1
 637 491 l 1,25,26
 640 491 640 491 651 493 c 128,-1,27
 662 495 662 495 677 497 c 128,-1,28
 692 499 692 499 708.5 500.5 c 128,-1,29
 725 502 725 502 740 502 c 0,30,31
 806 502 806 502 844.5 465 c 128,-1,32
 883 428 883 428 883 363 c 0,33,34
 883 316 883 316 868.5 275.5 c 128,-1,35
 854 235 854 235 826 205 c 2,36,-1
 727 98 l 1,37,-1
 866 98 l 1,38,-1
 857 0 l 1,39,-1
 581 0 l 1,11,-1
336 -100 m 1,40,-1
 218 -100 l 1,41,-1
 606 810 l 1,42,-1
 725 810 l 1,43,-1
 336 -100 l 1,40,-1
EndSplineSet
Ligature2: "'frac' Diagonal Fractions in Latin lookup 1 subtable" onesuperior fraction twosuperior
Ligature2: "'frac' Diagonal Fractions in Latin lookup 1 subtable" onesuperior fraction two
Ligature2: "'frac' Diagonal Fractions in Latin lookup 1 subtable" onesuperior slash twosuperior
Ligature2: "'frac' Diagonal Fractions in Latin lookup 1 subtable" onesuperior slash two
Ligature2: "'frac' Diagonal Fractions in Latin lookup 1 subtable" one fraction twosuperior
Ligature2: "'frac' Diagonal Fractions in Latin lookup 1 subtable" one fraction two
Ligature2: "'frac' Diagonal Fractions in Latin lookup 1 subtable" one slash twosuperior
Ligature2: "'frac' Diagonal Fractions in Latin lookup 1 subtable" one slash two
EndChar

StartChar: plusminus
Encoding: 177 177 156
Width: 550
Flags: W
LayerCount: 2
Fore
SplineSet
65 0 m 1,0,-1
 75 115 l 1,1,-1
 485 115 l 1,2,-1
 475 0 l 1,3,-1
 65 0 l 1,0,-1
352 245 m 1,4,-1
 344 157 l 1,5,-1
 222 157 l 1,6,-1
 230 245 l 1,7,-1
 80 245 l 1,8,-1
 90 360 l 1,9,-1
 240 360 l 1,10,-1
 254 518 l 1,11,-1
 376 518 l 1,12,-1
 362 360 l 1,13,-1
 512 360 l 1,14,-1
 502 245 l 1,15,-1
 352 245 l 1,4,-1
EndSplineSet
EndChar

StartChar: Thorn
Encoding: 222 222 157
Width: 530
Flags: W
LayerCount: 2
Fore
SplineSet
506 360 m 0,0,1
 500 294 500 294 483.5 249 c 128,-1,2
 467 204 467 204 437.5 176 c 128,-1,3
 408 148 408 148 365 136 c 128,-1,4
 322 124 322 124 264 124 c 2,5,-1
 207 124 l 1,6,-1
 197 0 l 1,7,-1
 60 0 l 1,8,-1
 121 700 l 1,9,-1
 258 700 l 1,10,-1
 248 592 l 1,11,12
 260 592 260 592 271.5 592.5 c 128,-1,13
 283 593 283 593 295 593 c 0,14,15
 411 593 411 593 459.5 543.5 c 128,-1,16
 508 494 508 494 508 401 c 0,17,18
 508 391 508 391 507.5 381 c 128,-1,19
 507 371 507 371 506 360 c 0,0,1
366 353 m 0,20,21
 367 362 367 362 367.5 371 c 128,-1,22
 368 380 368 380 368 388 c 0,23,24
 368 430 368 430 353.5 451.5 c 128,-1,25
 339 473 339 473 303 473 c 0,26,27
 271 473 271 473 254 470 c 0,28,29
 244 468 244 468 237 467 c 1,30,-1
 218 242 l 1,31,-1
 281 242 l 2,32,33
 316 242 316 242 338.5 272 c 128,-1,34
 361 302 361 302 366 353 c 0,20,21
EndSplineSet
Position2: "'cpsp' Capital Spacing in Latin lookup 0 subtable" dx=5 dy=0 dh=10 dv=0
EndChar

StartChar: onequarter
Encoding: 188 188 158
Width: 875
Flags: W
LayerCount: 2
Fore
SplineSet
59 205 m 1,0,-1
 68 305 l 1,1,-1
 151 305 l 1,2,-1
 177 596 l 1,3,-1
 82 557 l 1,4,-1
 91 662 l 1,5,-1
 178 700 l 1,6,-1
 301 700 l 1,7,-1
 266 305 l 1,8,-1
 333 305 l 1,9,-1
 324 205 l 1,10,-1
 59 205 l 1,0,-1
788 117 m 1,11,-1
 777 0 l 1,12,-1
 663 0 l 1,13,-1
 674 117 l 1,14,-1
 530 117 l 1,15,-1
 539 221 l 1,16,-1
 634 495 l 1,17,-1
 744 495 l 1,18,-1
 646 211 l 1,19,-1
 684 211 l 1,20,-1
 709 324 l 1,21,-1
 806 324 l 1,22,-1
 796 211 l 1,23,-1
 841 205 l 1,24,-1
 833 117 l 1,25,-1
 788 117 l 1,11,-1
331 -100 m 1,26,-1
 213 -100 l 1,27,-1
 601 810 l 1,28,-1
 720 810 l 1,29,-1
 331 -100 l 1,26,-1
EndSplineSet
Ligature2: "'frac' Diagonal Fractions in Latin lookup 1 subtable" onesuperior fraction four
Ligature2: "'frac' Diagonal Fractions in Latin lookup 1 subtable" onesuperior slash four
Ligature2: "'frac' Diagonal Fractions in Latin lookup 1 subtable" one fraction four
Ligature2: "'frac' Diagonal Fractions in Latin lookup 1 subtable" one slash four
EndChar

StartChar: divide
Encoding: 247 247 159
Width: 550
Flags: W
LayerCount: 2
Fore
SplineSet
81 245 m 1,0,-1
 91 360 l 1,1,-1
 501 360 l 1,2,-1
 491 245 l 1,3,-1
 81 245 l 1,0,-1
193 45 m 1,4,-1
 205 175 l 1,5,-1
 355 175 l 1,6,-1
 343 45 l 1,7,-1
 193 45 l 1,4,-1
227 430 m 1,8,-1
 238 560 l 1,9,-1
 388 560 l 1,10,-1
 377 430 l 1,11,-1
 227 430 l 1,8,-1
EndSplineSet
EndChar

StartChar: brokenbar
Encoding: 166 166 160
Width: 310
Flags: W
LayerCount: 2
Fore
SplineSet
70 -110 m 1,0,-1
 101 250 l 1,1,-1
 231 250 l 1,2,-1
 200 -110 l 1,3,-1
 70 -110 l 1,0,-1
119 450 m 1,4,-1
 150 810 l 1,5,-1
 280 810 l 1,6,-1
 249 450 l 1,7,-1
 119 450 l 1,4,-1
EndSplineSet
EndChar

StartChar: degree
Encoding: 176 176 161
Width: 383
Flags: W
LayerCount: 2
Fore
SplineSet
286 542 m 0,0,1
 287 547 287 547 287 557 c 0,2,3
 287 584 287 584 275 599.5 c 128,-1,4
 263 615 263 615 234 615 c 0,5,6
 199 615 199 615 184 591.5 c 128,-1,7
 169 568 169 568 169 527 c 0,8,9
 169 499 169 499 180.5 481.5 c 128,-1,10
 192 464 192 464 221 464 c 0,11,12
 253 464 253 464 268 486 c 128,-1,13
 283 508 283 508 286 542 c 0,0,1
400 541 m 0,14,15
 392 457 392 457 348 413.5 c 128,-1,16
 304 370 304 370 213 370 c 0,17,18
 138 370 138 370 97 408 c 128,-1,19
 56 446 56 446 56 518 c 0,20,21
 56 613 56 613 101.5 660 c 128,-1,22
 147 707 147 707 242 707 c 0,23,24
 317 707 317 707 359 671.5 c 128,-1,25
 401 636 401 636 401 564 c 0,26,27
 401 559 401 559 401 553 c 128,-1,28
 401 547 401 547 400 541 c 0,14,15
EndSplineSet
EndChar

StartChar: thorn
Encoding: 254 254 162
Width: 519
Flags: W
LayerCount: 2
Fore
SplineSet
40 -170 m 1,0,-1
 116 700 l 1,1,-1
 249 700 l 1,2,-1
 228 462 l 1,3,4
 251 484 251 484 280 496.5 c 128,-1,5
 309 509 309 509 347 509 c 0,6,7
 418 509 418 509 451.5 464.5 c 128,-1,8
 485 420 485 420 485 332 c 0,9,10
 485 321 485 321 484.5 303 c 128,-1,11
 484 285 484 285 482 272 c 0,12,13
 475 193 475 193 458 139 c 128,-1,14
 441 85 441 85 410.5 52 c 128,-1,15
 380 19 380 19 334.5 5 c 128,-1,16
 289 -9 289 -9 225 -9 c 0,17,18
 214 -9 214 -9 204.5 -9 c 128,-1,19
 195 -9 195 -9 187 -8 c 1,20,-1
 173 -170 l 1,21,-1
 40 -170 l 1,0,-1
302 395 m 0,22,23
 283 395 283 395 267 385 c 128,-1,24
 251 375 251 375 240 359 c 128,-1,25
 229 343 229 343 222 323.5 c 128,-1,26
 215 304 215 304 213 286 c 2,27,-1
 197 107 l 1,28,29
 209 106 209 106 221 105.5 c 128,-1,30
 233 105 233 105 244 105 c 0,31,32
 266 105 266 105 285.5 114.5 c 128,-1,33
 305 124 305 124 319.5 147.5 c 128,-1,34
 334 171 334 171 342.5 212 c 128,-1,35
 351 253 351 253 351 316 c 0,36,37
 351 363 351 363 338.5 379 c 128,-1,38
 326 395 326 395 302 395 c 0,22,23
EndSplineSet
EndChar

StartChar: threequarters
Encoding: 190 190 163
Width: 875
Flags: W
LayerCount: 2
Fore
SplineSet
345 381 m 0,0,1
 345 284 345 284 302 241 c 128,-1,2
 259 198 259 198 177 198 c 0,3,4
 163 198 163 198 146.5 199 c 128,-1,5
 130 200 130 200 114.5 201.5 c 128,-1,6
 99 203 99 203 86.5 205 c 128,-1,7
 74 207 74 207 69 208 c 1,8,-1
 77 302 l 1,9,10
 91 299 91 299 113 295 c 128,-1,11
 135 291 135 291 160 291 c 0,12,13
 192 291 192 291 210.5 309.5 c 128,-1,14
 229 328 229 328 229 366 c 0,15,16
 229 424 229 424 170 424 c 2,17,-1
 127 424 l 1,18,-1
 135 515 l 1,19,-1
 171 515 l 2,20,21
 193 515 193 515 206.5 520 c 128,-1,22
 220 525 220 525 227 533.5 c 128,-1,23
 234 542 234 542 236.5 553 c 128,-1,24
 239 564 239 564 239 577 c 0,25,26
 239 614 239 614 189 614 c 0,27,28
 168 614 168 614 146 610 c 128,-1,29
 124 606 124 606 107 602 c 1,30,-1
 115 696 l 1,31,32
 118 697 118 697 129 698.5 c 128,-1,33
 140 700 140 700 154.5 702 c 128,-1,34
 169 704 169 704 185.5 705.5 c 128,-1,35
 202 707 202 707 217 707 c 0,36,37
 289 707 289 707 321.5 679.5 c 128,-1,38
 354 652 354 652 354 592 c 0,39,40
 354 576 354 576 350.5 557 c 128,-1,41
 347 538 347 538 338.5 521 c 128,-1,42
 330 504 330 504 316.5 490.5 c 128,-1,43
 303 477 303 477 282 472 c 1,44,45
 296 469 296 469 307.5 459 c 128,-1,46
 319 449 319 449 327 436.5 c 128,-1,47
 335 424 335 424 340 409.5 c 128,-1,48
 345 395 345 395 345 381 c 0,0,1
781 117 m 1,49,-1
 770 0 l 1,50,-1
 656 0 l 1,51,-1
 667 117 l 1,52,-1
 523 117 l 1,53,-1
 532 221 l 1,54,-1
 627 495 l 1,55,-1
 737 495 l 1,56,-1
 639 211 l 1,57,-1
 677 211 l 1,58,-1
 702 324 l 1,59,-1
 799 324 l 1,60,-1
 789 211 l 1,61,-1
 834 211 l 1,62,-1
 826 117 l 1,63,-1
 781 117 l 1,49,-1
320 -100 m 1,64,-1
 202 -100 l 1,65,-1
 590 810 l 1,66,-1
 709 810 l 1,67,-1
 320 -100 l 1,64,-1
EndSplineSet
Ligature2: "'frac' Diagonal Fractions in Latin lookup 1 subtable" threesuperior fraction four
Ligature2: "'frac' Diagonal Fractions in Latin lookup 1 subtable" threesuperior slash four
Ligature2: "'frac' Diagonal Fractions in Latin lookup 1 subtable" three fraction four
Ligature2: "'frac' Diagonal Fractions in Latin lookup 1 subtable" three slash four
EndChar

StartChar: twosuperior
Encoding: 178 178 164
Width: 410
Flags: W
LayerCount: 2
Fore
SplineSet
64 205 m 1,0,-1
 74 309 l 1,1,-1
 186 433 l 1,2,3
 205 452 205 452 217.5 468 c 128,-1,4
 230 484 230 484 237.5 499 c 128,-1,5
 245 514 245 514 248 530 c 128,-1,6
 251 546 251 546 251 565 c 0,7,8
 251 582 251 582 239 596 c 128,-1,9
 227 610 227 610 195 610 c 0,10,11
 171 610 171 610 150.5 606.5 c 128,-1,12
 130 603 130 603 112 599 c 1,13,-1
 120 696 l 1,14,15
 123 696 123 696 134 698 c 128,-1,16
 145 700 145 700 160 702 c 128,-1,17
 175 704 175 704 191.5 705.5 c 128,-1,18
 208 707 208 707 223 707 c 0,19,20
 289 707 289 707 327.5 670 c 128,-1,21
 366 633 366 633 366 568 c 0,22,23
 366 521 366 521 351.5 480.5 c 128,-1,24
 337 440 337 440 309 410 c 2,25,-1
 210 303 l 1,26,-1
 349 303 l 1,27,-1
 340 205 l 1,28,-1
 64 205 l 1,0,-1
EndSplineSet
EndChar

StartChar: registered
Encoding: 174 174 165
Width: 810
Flags: W
LayerCount: 2
Fore
SplineSet
760 350 m 256,0,1
 760 267 760 267 744 200.5 c 128,-1,2
 728 134 728 134 690 87.5 c 128,-1,3
 652 41 652 41 588.5 16 c 128,-1,4
 525 -9 525 -9 430 -9 c 256,5,6
 335 -9 335 -9 270 15.5 c 128,-1,7
 205 40 205 40 165 86 c 128,-1,8
 125 132 125 132 107.5 198.5 c 128,-1,9
 90 265 90 265 90 350 c 0,10,11
 90 433 90 433 107.5 499.5 c 128,-1,12
 125 566 125 566 165.5 612.5 c 128,-1,13
 206 659 206 659 271 684 c 128,-1,14
 336 709 336 709 430 709 c 0,15,16
 525 709 525 709 588 684 c 128,-1,17
 651 659 651 659 689.5 612 c 128,-1,18
 728 565 728 565 744 499 c 128,-1,19
 760 433 760 433 760 350 c 256,0,1
643 350 m 256,20,21
 643 416 643 416 636.5 465 c 128,-1,22
 630 514 630 514 608 546.5 c 128,-1,23
 586 579 586 579 543.5 595 c 128,-1,24
 501 611 501 611 430 611 c 256,25,26
 359 611 359 611 315 595.5 c 128,-1,27
 271 580 271 580 247 547.5 c 128,-1,28
 223 515 223 515 215 466 c 128,-1,29
 207 417 207 417 207 350 c 0,30,31
 207 284 207 284 215 234.5 c 128,-1,32
 223 185 223 185 247 153 c 128,-1,33
 271 121 271 121 315 105 c 128,-1,34
 359 89 359 89 430 89 c 256,35,36
 501 89 501 89 543.5 105 c 128,-1,37
 586 121 586 121 608 153.5 c 128,-1,38
 630 186 630 186 636.5 235 c 128,-1,39
 643 284 643 284 643 350 c 256,20,21
546 429 m 0,40,41
 546 384 546 384 532 358 c 128,-1,42
 518 332 518 332 494 319 c 1,43,-1
 569 159 l 1,44,-1
 476 159 l 1,45,-1
 415 306 l 1,46,-1
 403 306 l 1,47,-1
 403 159 l 1,48,-1
 320 159 l 1,49,-1
 320 544 l 1,50,51
 338 545 338 545 356 546 c 0,52,53
 372 547 372 547 390.5 547.5 c 128,-1,54
 409 548 409 548 426 548 c 0,55,56
 461 548 461 548 484 539.5 c 128,-1,57
 507 531 507 531 521 515.5 c 128,-1,58
 535 500 535 500 540.5 478 c 128,-1,59
 546 456 546 456 546 429 c 0,40,41
461 427 m 0,60,61
 461 457 461 457 454 467.5 c 128,-1,62
 447 478 447 478 420 478 c 0,63,64
 413 478 413 478 409 477 c 256,65,66
 405 476 405 476 403 476 c 1,67,-1
 403 378 l 1,68,-1
 413 378 l 2,69,70
 440 378 440 378 450.5 386.5 c 128,-1,71
 461 395 461 395 461 427 c 0,60,61
EndSplineSet
EndChar

StartChar: minus
Encoding: 8722 8722 166
Width: 550
Flags: W
LayerCount: 2
Fore
SplineSet
81 245 m 1,0,-1
 91 360 l 1,1,-1
 501 360 l 1,2,-1
 491 245 l 1,3,-1
 81 245 l 1,0,-1
EndSplineSet
EndChar

StartChar: eth
Encoding: 240 240 167
Width: 508
Flags: W
LayerCount: 2
Fore
SplineSet
58 210 m 0,0,1
 63 269 63 269 75 317 c 128,-1,2
 87 365 87 365 109.5 399 c 128,-1,3
 132 433 132 433 167 451 c 128,-1,4
 202 469 202 469 254 469 c 0,5,6
 279 469 279 469 301 463.5 c 128,-1,7
 323 458 323 458 342 448 c 1,8,9
 340 489 340 489 331 515 c 128,-1,10
 322 541 322 541 308 558 c 1,11,-1
 282 516 l 1,12,-1
 175 516 l 1,13,-1
 225 595 l 1,14,15
 205 597 205 597 183.5 596.5 c 128,-1,16
 162 596 162 596 139 597 c 1,17,-1
 149 709 l 1,18,19
 188 709 188 709 224 707.5 c 128,-1,20
 260 706 260 706 292 701 c 1,21,-1
 323 750 l 1,22,-1
 430 750 l 1,23,-1
 381 672 l 1,24,25
 404 659 404 659 422 639.5 c 128,-1,26
 440 620 440 620 452.5 592 c 128,-1,27
 465 564 465 564 471.5 526.5 c 128,-1,28
 478 489 478 489 478 440 c 0,29,30
 478 437 478 437 477.5 425.5 c 128,-1,31
 477 414 477 414 476.5 401 c 128,-1,32
 476 388 476 388 475 376.5 c 128,-1,33
 474 365 474 365 474 361 c 0,34,35
 465 253 465 253 448 181.5 c 128,-1,36
 431 110 431 110 402 68 c 128,-1,37
 373 26 373 26 330 8.5 c 128,-1,38
 287 -9 287 -9 225 -9 c 0,39,40
 201 -9 201 -9 172 -1 c 128,-1,41
 143 7 143 7 117.5 27.5 c 128,-1,42
 92 48 92 48 74.5 84.5 c 128,-1,43
 57 121 57 121 57 178 c 0,44,45
 57 186 57 186 57 194 c 128,-1,46
 57 202 57 202 58 210 c 0,0,1
268 361 m 0,47,48
 231 361 231 361 210.5 312 c 128,-1,49
 190 263 190 263 190 179 c 0,50,51
 190 132 190 132 204.5 116.5 c 128,-1,52
 219 101 219 101 247 101 c 0,53,54
 264 101 264 101 278 109 c 128,-1,55
 292 117 292 117 303 142.5 c 128,-1,56
 314 168 314 168 323 216.5 c 128,-1,57
 332 265 332 265 339 346 c 1,58,59
 325 352 325 352 306.5 356.5 c 128,-1,60
 288 361 288 361 268 361 c 0,47,48
EndSplineSet
EndChar

StartChar: multiply
Encoding: 215 215 168
Width: 570
Flags: W
LayerCount: 2
Fore
SplineSet
220 300 m 1,0,-1
 103 417 l 1,1,-1
 188 502 l 1,2,-1
 305 385 l 1,3,-1
 422 502 l 1,4,-1
 507 417 l 1,5,-1
 390 300 l 1,6,-1
 507 183 l 1,7,-1
 422 98 l 1,8,-1
 305 215 l 1,9,-1
 188 98 l 1,10,-1
 103 183 l 1,11,-1
 220 300 l 1,0,-1
EndSplineSet
EndChar

StartChar: threesuperior
Encoding: 179 179 169
Width: 410
Flags: W
LayerCount: 2
Fore
SplineSet
353 381 m 0,0,1
 353 284 353 284 310 241 c 128,-1,2
 267 198 267 198 185 198 c 0,3,4
 171 198 171 198 154.5 199 c 128,-1,5
 138 200 138 200 122.5 201.5 c 128,-1,6
 107 203 107 203 94.5 205 c 128,-1,7
 82 207 82 207 77 208 c 1,8,-1
 85 302 l 1,9,10
 99 299 99 299 121 295 c 128,-1,11
 143 291 143 291 168 291 c 0,12,13
 200 291 200 291 218.5 309.5 c 128,-1,14
 237 328 237 328 237 366 c 0,15,16
 237 424 237 424 178 424 c 2,17,-1
 135 424 l 1,18,-1
 143 515 l 1,19,-1
 179 515 l 2,20,21
 201 515 201 515 214.5 520 c 128,-1,22
 228 525 228 525 235 533.5 c 128,-1,23
 242 542 242 542 244.5 553 c 128,-1,24
 247 564 247 564 247 577 c 0,25,26
 247 614 247 614 197 614 c 0,27,28
 176 614 176 614 154 610 c 128,-1,29
 132 606 132 606 115 602 c 1,30,-1
 123 696 l 1,31,32
 126 697 126 697 137 698.5 c 128,-1,33
 148 700 148 700 162.5 702 c 128,-1,34
 177 704 177 704 193.5 705.5 c 128,-1,35
 210 707 210 707 225 707 c 0,36,37
 297 707 297 707 329.5 679.5 c 128,-1,38
 362 652 362 652 362 592 c 0,39,40
 362 576 362 576 358.5 557 c 128,-1,41
 355 538 355 538 346.5 521 c 128,-1,42
 338 504 338 504 324.5 490.5 c 128,-1,43
 311 477 311 477 290 472 c 1,44,45
 304 469 304 469 315.5 459 c 128,-1,46
 327 449 327 449 335 436.5 c 128,-1,47
 343 424 343 424 348 409.5 c 128,-1,48
 353 395 353 395 353 381 c 0,0,1
EndSplineSet
EndChar

StartChar: copyright
Encoding: 169 169 170
Width: 810
Flags: W
LayerCount: 2
Fore
SplineSet
509 162 m 1,0,1
 505 161 505 161 495 159.5 c 128,-1,2
 485 158 485 158 473.5 157 c 128,-1,3
 462 156 462 156 451 155 c 128,-1,4
 440 154 440 154 433 154 c 0,5,6
 401 154 401 154 378.5 162.5 c 128,-1,7
 356 171 356 171 341.5 193.5 c 128,-1,8
 327 216 327 216 320.5 255.5 c 128,-1,9
 314 295 314 295 314 356 c 256,10,11
 314 417 314 417 321 454 c 128,-1,12
 328 491 328 491 343.5 511.5 c 128,-1,13
 359 532 359 532 382.5 539 c 128,-1,14
 406 546 406 546 439 546 c 0,15,16
 445 546 445 546 455 545 c 128,-1,17
 465 544 465 544 475.5 543 c 128,-1,18
 486 542 486 542 495.5 540.5 c 128,-1,19
 505 539 505 539 509 538 c 1,20,-1
 509 465 l 1,21,22
 495 468 495 468 481 469.5 c 128,-1,23
 467 471 467 471 456 471 c 0,24,25
 440 471 440 471 429.5 468.5 c 128,-1,26
 419 466 419 466 413 455 c 128,-1,27
 407 444 407 444 405 420 c 128,-1,28
 403 396 403 396 403 352 c 0,29,30
 403 307 403 307 405.5 282.5 c 128,-1,31
 408 258 408 258 414 246 c 128,-1,32
 420 234 420 234 430.5 231.5 c 128,-1,33
 441 229 441 229 457 229 c 0,34,35
 470 229 470 229 484 231 c 128,-1,36
 498 233 498 233 509 235 c 1,37,-1
 509 162 l 1,0,1
760 350 m 256,38,39
 760 267 760 267 744 200.5 c 128,-1,40
 728 134 728 134 690 87.5 c 128,-1,41
 652 41 652 41 588.5 16 c 128,-1,42
 525 -9 525 -9 430 -9 c 256,43,44
 335 -9 335 -9 270 15.5 c 128,-1,45
 205 40 205 40 165 86 c 128,-1,46
 125 132 125 132 107.5 198.5 c 128,-1,47
 90 265 90 265 90 350 c 0,48,49
 90 433 90 433 107.5 499.5 c 128,-1,50
 125 566 125 566 165.5 612.5 c 128,-1,51
 206 659 206 659 271 684 c 128,-1,52
 336 709 336 709 430 709 c 0,53,54
 525 709 525 709 588 684 c 128,-1,55
 651 659 651 659 689.5 612 c 128,-1,56
 728 565 728 565 744 499 c 128,-1,57
 760 433 760 433 760 350 c 256,38,39
643 350 m 256,58,59
 643 416 643 416 636.5 465 c 128,-1,60
 630 514 630 514 608 546.5 c 128,-1,61
 586 579 586 579 543.5 595 c 128,-1,62
 501 611 501 611 430 611 c 256,63,64
 359 611 359 611 315 595.5 c 128,-1,65
 271 580 271 580 247 547.5 c 128,-1,66
 223 515 223 515 215 466 c 128,-1,67
 207 417 207 417 207 350 c 0,68,69
 207 284 207 284 215 234.5 c 128,-1,70
 223 185 223 185 247 153 c 128,-1,71
 271 121 271 121 315 105 c 128,-1,72
 359 89 359 89 430 89 c 256,73,74
 501 89 501 89 543.5 105 c 128,-1,75
 586 121 586 121 608 153.5 c 128,-1,76
 630 186 630 186 636.5 235 c 128,-1,77
 643 284 643 284 643 350 c 256,58,59
EndSplineSet
EndChar

StartChar: Aacute
Encoding: 193 193 171
Width: 545
Flags: W
LayerCount: 2
Fore
SplineSet
217 726 m 1,0,-1
 331 841 l 1,1,-1
 492 841 l 1,2,-1
 335 726 l 1,3,-1
 217 726 l 1,0,-1
319 612 m 1,4,-1
 227 281 l 1,5,-1
 352 281 l 1,6,-1
 319 612 l 1,4,-1
382 0 m 1,7,-1
 364 163 l 1,8,-1
 194 163 l 1,9,-1
 148 0 l 1,10,-1
 5 0 l 1,11,-1
 224 700 l 1,12,-1
 426 700 l 1,13,-1
 520 0 l 1,14,-1
 382 0 l 1,7,-1
EndSplineSet
Position2: "'cpsp' Capital Spacing in Latin lookup 0 subtable" dx=5 dy=0 dh=10 dv=0
EndChar

StartChar: Acircumflex
Encoding: 194 194 172
Width: 545
Flags: W
LayerCount: 2
Fore
SplineSet
374 730 m 1,0,-1
 340 791 l 1,1,-1
 294 730 l 1,2,-1
 146 730 l 1,3,-1
 266 845 l 1,4,-1
 418 845 l 1,5,-1
 519 730 l 1,6,-1
 374 730 l 1,0,-1
319 612 m 1,7,-1
 227 281 l 1,8,-1
 352 281 l 1,9,-1
 319 612 l 1,7,-1
382 0 m 1,10,-1
 364 163 l 1,11,-1
 194 163 l 1,12,-1
 148 0 l 1,13,-1
 5 0 l 1,14,-1
 224 700 l 1,15,-1
 426 700 l 1,16,-1
 520 0 l 1,17,-1
 382 0 l 1,10,-1
EndSplineSet
Position2: "'cpsp' Capital Spacing in Latin lookup 0 subtable" dx=5 dy=0 dh=10 dv=0
EndChar

StartChar: Adieresis
Encoding: 196 196 173
Width: 545
Flags: W
LayerCount: 2
Fore
SplineSet
319 612 m 1,0,-1
 227 281 l 1,1,-1
 352 281 l 1,2,-1
 319 612 l 1,0,-1
382 0 m 1,3,-1
 364 163 l 1,4,-1
 194 163 l 1,5,-1
 148 0 l 1,6,-1
 5 0 l 1,7,-1
 224 700 l 1,8,-1
 426 700 l 1,9,-1
 520 0 l 1,10,-1
 382 0 l 1,3,-1
359 730 m 1,11,-1
 370 845 l 1,12,-1
 500 845 l 1,13,-1
 489 730 l 1,14,-1
 359 730 l 1,11,-1
159 730 m 1,15,-1
 170 845 l 1,16,-1
 300 845 l 1,17,-1
 289 730 l 1,18,-1
 159 730 l 1,15,-1
EndSplineSet
Position2: "'cpsp' Capital Spacing in Latin lookup 0 subtable" dx=5 dy=0 dh=10 dv=0
EndChar

StartChar: Agrave
Encoding: 192 192 174
Width: 545
Flags: W
LayerCount: 2
Fore
SplineSet
305 726 m 1,0,-1
 158 841 l 1,1,-1
 319 841 l 1,2,-1
 413 726 l 1,3,-1
 305 726 l 1,0,-1
319 612 m 1,4,-1
 227 281 l 1,5,-1
 352 281 l 1,6,-1
 319 612 l 1,4,-1
382 0 m 1,7,-1
 364 163 l 1,8,-1
 194 163 l 1,9,-1
 148 0 l 1,10,-1
 5 0 l 1,11,-1
 224 700 l 1,12,-1
 426 700 l 1,13,-1
 520 0 l 1,14,-1
 382 0 l 1,7,-1
EndSplineSet
Position2: "'cpsp' Capital Spacing in Latin lookup 0 subtable" dx=5 dy=0 dh=10 dv=0
EndChar

StartChar: Aring
Encoding: 197 197 175
Width: 545
Flags: W
LayerCount: 2
Fore
SplineSet
448 763 m 0,0,1
 446 741 446 741 441 722.5 c 128,-1,2
 436 704 436 704 427 690 c 1,3,-1
 520 0 l 1,4,-1
 382 0 l 1,5,-1
 364 163 l 1,6,-1
 194 163 l 1,7,-1
 148 0 l 1,8,-1
 5 0 l 1,9,-1
 223 697 l 1,10,11
 215 719 215 719 215 745 c 0,12,13
 215 811 215 811 245 848 c 128,-1,14
 275 885 275 885 343 885 c 0,15,16
 394 885 394 885 421.5 858 c 128,-1,17
 449 831 449 831 449 781 c 0,18,19
 449 776 449 776 449 772 c 128,-1,20
 449 768 449 768 448 763 c 0,0,1
319 612 m 1,21,-1
 227 281 l 1,22,-1
 352 281 l 1,23,-1
 319 612 l 1,21,-1
360 764 m 0,24,25
 361 769 361 769 361 773.5 c 128,-1,26
 361 778 361 778 361 782 c 0,27,28
 361 798 361 798 355.5 805.5 c 128,-1,29
 350 813 350 813 336 813 c 0,30,31
 316 813 316 813 309.5 796.5 c 128,-1,32
 303 780 303 780 303 746 c 0,33,34
 303 730 303 730 308.5 722.5 c 128,-1,35
 314 715 314 715 328 715 c 0,36,37
 345 715 345 715 351.5 727 c 128,-1,38
 358 739 358 739 360 764 c 0,24,25
EndSplineSet
Position2: "'cpsp' Capital Spacing in Latin lookup 0 subtable" dx=5 dy=0 dh=10 dv=0
EndChar

StartChar: Atilde
Encoding: 195 195 176
Width: 545
Flags: W
LayerCount: 2
Fore
SplineSet
319 612 m 1,0,-1
 227 281 l 1,1,-1
 352 281 l 1,2,-1
 319 612 l 1,0,-1
382 0 m 1,3,-1
 364 163 l 1,4,-1
 194 163 l 1,5,-1
 148 0 l 1,6,-1
 5 0 l 1,7,-1
 224 700 l 1,8,-1
 426 700 l 1,9,-1
 520 0 l 1,10,-1
 382 0 l 1,3,-1
176 828 m 1,11,12
 200 847 200 847 227 853.5 c 128,-1,13
 254 860 254 860 274 860 c 0,14,15
 292 860 292 860 310.5 854 c 128,-1,16
 329 848 329 848 347.5 840.5 c 128,-1,17
 366 833 366 833 383 827 c 128,-1,18
 400 821 400 821 415 821 c 0,19,20
 441 821 441 821 464 830.5 c 128,-1,21
 487 840 487 840 508 857 c 1,22,-1
 499 752 l 1,23,24
 478 733 478 733 452 726.5 c 128,-1,25
 426 720 426 720 400 720 c 0,26,27
 381 720 381 720 363 726 c 128,-1,28
 345 732 345 732 327.5 739.5 c 128,-1,29
 310 747 310 747 293 753 c 128,-1,30
 276 759 276 759 260 759 c 0,31,32
 234 759 234 759 209 748 c 128,-1,33
 184 737 184 737 167 723 c 1,34,-1
 176 828 l 1,11,12
EndSplineSet
Position2: "'cpsp' Capital Spacing in Latin lookup 0 subtable" dx=5 dy=0 dh=10 dv=0
EndChar

StartChar: Ccedilla
Encoding: 199 199 177
Width: 433
Flags: W
LayerCount: 2
Fore
SplineSet
159 -127 m 1,0,1
 173 -129 173 -129 187.5 -130.5 c 128,-1,2
 202 -132 202 -132 213 -132 c 0,3,4
 235 -132 235 -132 245 -127.5 c 128,-1,5
 255 -123 255 -123 255 -109 c 0,6,7
 255 -103 255 -103 251.5 -98.5 c 128,-1,8
 248 -94 248 -94 239 -91 c 128,-1,9
 230 -88 230 -88 214.5 -87 c 128,-1,10
 199 -86 199 -86 174 -86 c 1,11,-1
 195 -1 l 1,12,13
 164 6 164 6 140 22 c 128,-1,14
 116 38 116 38 99.5 67.5 c 128,-1,15
 83 97 83 97 74.5 141.5 c 128,-1,16
 66 186 66 186 66 249 c 0,17,18
 66 274 66 274 67 301.5 c 128,-1,19
 68 329 68 329 71 361 c 0,20,21
 81 475 81 475 101 543.5 c 128,-1,22
 121 612 121 612 152.5 648 c 128,-1,23
 184 684 184 684 229.5 695.5 c 128,-1,24
 275 707 275 707 336 707 c 0,25,26
 346 707 346 707 362 705.5 c 128,-1,27
 378 704 378 704 394.5 702 c 128,-1,28
 411 700 411 700 424.5 697.5 c 128,-1,29
 438 695 438 695 443 693 c 1,30,-1
 433 571 l 1,31,32
 408 578 408 578 374 582.5 c 128,-1,33
 340 587 340 587 313 587 c 0,34,35
 292 587 292 587 275.5 579.5 c 128,-1,36
 259 572 259 572 246.5 548 c 128,-1,37
 234 524 234 524 225 478 c 128,-1,38
 216 432 216 432 209 354 c 0,39,40
 208 347 208 347 207 329 c 128,-1,41
 206 311 206 311 205 291 c 128,-1,42
 204 271 204 271 203.5 254.5 c 128,-1,43
 203 238 203 238 203 233 c 0,44,45
 203 195 203 195 207 171.5 c 128,-1,46
 211 148 211 148 219.5 135 c 128,-1,47
 228 122 228 122 241 117.5 c 128,-1,48
 254 113 254 113 271 113 c 0,49,50
 286 113 286 113 303.5 114.5 c 128,-1,51
 321 116 321 116 338 118.5 c 128,-1,52
 355 121 355 121 369.5 123.5 c 128,-1,53
 384 126 384 126 394 128 c 1,54,-1
 383 7 l 1,55,56
 370 3 370 3 343 -0.5 c 128,-1,57
 316 -4 316 -4 290 -6 c 1,58,-1
 287 -19 l 1,59,60
 329 -24 329 -24 347.5 -47 c 128,-1,61
 366 -70 366 -70 366 -103 c 0,62,63
 366 -154 366 -154 333.5 -188 c 128,-1,64
 301 -222 301 -222 227 -222 c 0,65,66
 210 -222 210 -222 188 -219.5 c 128,-1,67
 166 -217 166 -217 152 -214 c 1,68,-1
 159 -127 l 1,0,1
EndSplineSet
Position2: "'cpsp' Capital Spacing in Latin lookup 0 subtable" dx=5 dy=0 dh=10 dv=0
EndChar

StartChar: Eacute
Encoding: 201 201 178
Width: 478
Flags: W
LayerCount: 2
Fore
SplineSet
202 726 m 1,0,-1
 316 841 l 1,1,-1
 477 841 l 1,2,-1
 320 726 l 1,3,-1
 202 726 l 1,0,-1
60 0 m 1,4,-1
 121 700 l 1,5,-1
 479 700 l 1,6,-1
 469 592 l 1,7,-1
 248 592 l 1,8,-1
 233 415 l 1,9,-1
 429 415 l 1,10,-1
 419 308 l 1,11,-1
 223 308 l 1,12,-1
 206 108 l 1,13,-1
 427 108 l 1,14,-1
 418 0 l 1,15,-1
 60 0 l 1,4,-1
EndSplineSet
Position2: "'cpsp' Capital Spacing in Latin lookup 0 subtable" dx=5 dy=0 dh=10 dv=0
EndChar

StartChar: Ecircumflex
Encoding: 202 202 179
Width: 478
Flags: W
LayerCount: 2
Fore
SplineSet
344 730 m 1,0,-1
 310 791 l 1,1,-1
 264 730 l 1,2,-1
 116 730 l 1,3,-1
 236 845 l 1,4,-1
 388 845 l 1,5,-1
 489 730 l 1,6,-1
 344 730 l 1,0,-1
60 0 m 1,7,-1
 121 700 l 1,8,-1
 479 700 l 1,9,-1
 469 592 l 1,10,-1
 248 592 l 1,11,-1
 233 415 l 1,12,-1
 429 415 l 1,13,-1
 419 308 l 1,14,-1
 223 308 l 1,15,-1
 206 108 l 1,16,-1
 427 108 l 1,17,-1
 418 0 l 1,18,-1
 60 0 l 1,7,-1
EndSplineSet
Position2: "'cpsp' Capital Spacing in Latin lookup 0 subtable" dx=5 dy=0 dh=10 dv=0
EndChar

StartChar: Edieresis
Encoding: 203 203 180
Width: 478
Flags: W
LayerCount: 2
Fore
SplineSet
60 0 m 1,0,-1
 121 700 l 1,1,-1
 479 700 l 1,2,-1
 469 592 l 1,3,-1
 248 592 l 1,4,-1
 233 415 l 1,5,-1
 429 415 l 1,6,-1
 419 308 l 1,7,-1
 223 308 l 1,8,-1
 206 108 l 1,9,-1
 427 108 l 1,10,-1
 418 0 l 1,11,-1
 60 0 l 1,0,-1
333 720 m 1,12,-1
 344 835 l 1,13,-1
 474 835 l 1,14,-1
 463 720 l 1,15,-1
 333 720 l 1,12,-1
133 720 m 1,16,-1
 144 835 l 1,17,-1
 274 835 l 1,18,-1
 263 720 l 1,19,-1
 133 720 l 1,16,-1
EndSplineSet
Position2: "'cpsp' Capital Spacing in Latin lookup 0 subtable" dx=5 dy=0 dh=10 dv=0
EndChar

StartChar: Egrave
Encoding: 200 200 181
Width: 478
Flags: W
LayerCount: 2
Fore
SplineSet
307 726 m 1,0,-1
 160 841 l 1,1,-1
 321 841 l 1,2,-1
 415 726 l 1,3,-1
 307 726 l 1,0,-1
60 0 m 1,4,-1
 121 700 l 1,5,-1
 479 700 l 1,6,-1
 469 592 l 1,7,-1
 248 592 l 1,8,-1
 233 415 l 1,9,-1
 429 415 l 1,10,-1
 419 308 l 1,11,-1
 223 308 l 1,12,-1
 206 108 l 1,13,-1
 427 108 l 1,14,-1
 418 0 l 1,15,-1
 60 0 l 1,4,-1
EndSplineSet
Position2: "'cpsp' Capital Spacing in Latin lookup 0 subtable" dx=5 dy=0 dh=10 dv=0
EndChar

StartChar: Iacute
Encoding: 205 205 182
Width: 347
Flags: W
LayerCount: 2
Fore
SplineSet
108 726 m 1,0,-1
 222 841 l 1,1,-1
 383 841 l 1,2,-1
 226 726 l 1,3,-1
 108 726 l 1,0,-1
25 0 m 1,4,-1
 34 106 l 1,5,-1
 104 106 l 1,6,-1
 146 594 l 1,7,-1
 76 594 l 1,8,-1
 86 700 l 1,9,-1
 363 700 l 1,10,-1
 353 594 l 1,11,-1
 283 594 l 1,12,-1
 241 106 l 1,13,-1
 311 106 l 1,14,-1
 302 0 l 1,15,-1
 25 0 l 1,4,-1
EndSplineSet
Position2: "'cpsp' Capital Spacing in Latin lookup 0 subtable" dx=5 dy=0 dh=10 dv=0
EndChar

StartChar: Icircumflex
Encoding: 206 206 183
Width: 347
Flags: W
LayerCount: 2
Fore
SplineSet
268 730 m 1,0,-1
 234 791 l 1,1,-1
 188 730 l 1,2,-1
 40 730 l 1,3,-1
 160 845 l 1,4,-1
 312 845 l 1,5,-1
 413 730 l 1,6,-1
 268 730 l 1,0,-1
25 0 m 1,7,-1
 34 106 l 1,8,-1
 104 106 l 1,9,-1
 146 594 l 1,10,-1
 76 594 l 1,11,-1
 86 700 l 1,12,-1
 363 700 l 1,13,-1
 353 594 l 1,14,-1
 283 594 l 1,15,-1
 241 106 l 1,16,-1
 311 106 l 1,17,-1
 302 0 l 1,18,-1
 25 0 l 1,7,-1
EndSplineSet
Position2: "'cpsp' Capital Spacing in Latin lookup 0 subtable" dx=5 dy=0 dh=10 dv=0
EndChar

StartChar: Idieresis
Encoding: 207 207 184
Width: 347
Flags: W
LayerCount: 2
Fore
SplineSet
25 0 m 1,0,-1
 34 106 l 1,1,-1
 104 106 l 1,2,-1
 146 594 l 1,3,-1
 76 594 l 1,4,-1
 86 700 l 1,5,-1
 363 700 l 1,6,-1
 353 594 l 1,7,-1
 283 594 l 1,8,-1
 241 106 l 1,9,-1
 311 106 l 1,10,-1
 302 0 l 1,11,-1
 25 0 l 1,0,-1
257 720 m 1,12,-1
 268 835 l 1,13,-1
 398 835 l 1,14,-1
 387 720 l 1,15,-1
 257 720 l 1,12,-1
57 720 m 1,16,-1
 68 835 l 1,17,-1
 198 835 l 1,18,-1
 187 720 l 1,19,-1
 57 720 l 1,16,-1
EndSplineSet
Position2: "'cpsp' Capital Spacing in Latin lookup 0 subtable" dx=5 dy=0 dh=10 dv=0
EndChar

StartChar: Igrave
Encoding: 204 204 185
Width: 347
Flags: W
LayerCount: 2
Fore
SplineSet
234 726 m 1,0,-1
 87 841 l 1,1,-1
 248 841 l 1,2,-1
 342 726 l 1,3,-1
 234 726 l 1,0,-1
25 0 m 1,4,-1
 34 106 l 1,5,-1
 104 106 l 1,6,-1
 146 594 l 1,7,-1
 76 594 l 1,8,-1
 86 700 l 1,9,-1
 363 700 l 1,10,-1
 353 594 l 1,11,-1
 283 594 l 1,12,-1
 241 106 l 1,13,-1
 311 106 l 1,14,-1
 302 0 l 1,15,-1
 25 0 l 1,4,-1
EndSplineSet
Position2: "'cpsp' Capital Spacing in Latin lookup 0 subtable" dx=5 dy=0 dh=10 dv=0
EndChar

StartChar: Ntilde
Encoding: 209 209 186
Width: 592
Flags: W
LayerCount: 2
Fore
SplineSet
313 0 m 1,0,-1
 230 562 l 1,1,-1
 181 0 l 1,2,-1
 60 0 l 1,3,-1
 121 700 l 1,4,-1
 320 700 l 1,5,-1
 404 127 l 1,6,-1
 454 700 l 1,7,-1
 573 700 l 1,8,-1
 512 0 l 1,9,-1
 313 0 l 1,0,-1
194 828 m 1,10,11
 218 847 218 847 245 853.5 c 128,-1,12
 272 860 272 860 292 860 c 0,13,14
 310 860 310 860 328.5 854 c 128,-1,15
 347 848 347 848 365.5 840.5 c 128,-1,16
 384 833 384 833 401 827 c 128,-1,17
 418 821 418 821 433 821 c 0,18,19
 459 821 459 821 482 830.5 c 128,-1,20
 505 840 505 840 526 857 c 1,21,-1
 517 752 l 1,22,23
 496 733 496 733 470 726.5 c 128,-1,24
 444 720 444 720 418 720 c 0,25,26
 399 720 399 720 381 726 c 128,-1,27
 363 732 363 732 345.5 739.5 c 128,-1,28
 328 747 328 747 311 753 c 128,-1,29
 294 759 294 759 278 759 c 0,30,31
 252 759 252 759 227 748 c 128,-1,32
 202 737 202 737 185 723 c 1,33,-1
 194 828 l 1,10,11
EndSplineSet
Position2: "'cpsp' Capital Spacing in Latin lookup 0 subtable" dx=5 dy=0 dh=10 dv=0
EndChar

StartChar: Oacute
Encoding: 211 211 187
Width: 568
Flags: W
LayerCount: 2
Fore
SplineSet
249 726 m 1,0,-1
 363 841 l 1,1,-1
 524 841 l 1,2,-1
 367 726 l 1,3,-1
 249 726 l 1,0,-1
399 353 m 0,4,5
 405 424 405 424 405 469 c 0,6,7
 405 509 405 509 400.5 534.5 c 128,-1,8
 396 560 396 560 386 575 c 128,-1,9
 376 590 376 590 361.5 596 c 128,-1,10
 347 602 347 602 326 602 c 0,11,12
 299 602 299 602 280 592 c 128,-1,13
 261 582 261 582 247.5 554.5 c 128,-1,14
 234 527 234 527 225 478.5 c 128,-1,15
 216 430 216 430 209 353 c 0,16,17
 203 286 203 286 203 238 c 0,18,19
 203 157 203 157 222 127.5 c 128,-1,20
 241 98 241 98 282 98 c 0,21,22
 309 98 309 98 328 109.5 c 128,-1,23
 347 121 347 121 360.5 150 c 128,-1,24
 374 179 374 179 383.5 228 c 128,-1,25
 393 277 393 277 399 353 c 0,4,5
539 358 m 0,26,27
 531 266 531 266 517.5 197 c 128,-1,28
 504 128 504 128 475.5 82 c 128,-1,29
 447 36 447 36 399 13 c 128,-1,30
 351 -10 351 -10 273 -10 c 0,31,32
 214 -10 214 -10 174 6 c 128,-1,33
 134 22 134 22 110 53.5 c 128,-1,34
 86 85 86 85 75.5 132 c 128,-1,35
 65 179 65 179 65 242 c 0,36,37
 65 295 65 295 71 358 c 0,38,39
 79 446 79 446 92.5 512 c 128,-1,40
 106 578 106 578 135 622 c 128,-1,41
 164 666 164 666 212 688 c 128,-1,42
 260 710 260 710 336 710 c 0,43,44
 395 710 395 710 434.5 694.5 c 128,-1,45
 474 679 474 679 498.5 647.5 c 128,-1,46
 523 616 523 616 533.5 568.5 c 128,-1,47
 544 521 544 521 544 458 c 0,48,49
 544 435 544 435 542.5 410 c 128,-1,50
 541 385 541 385 539 358 c 0,26,27
EndSplineSet
Position2: "'cpsp' Capital Spacing in Latin lookup 0 subtable" dx=5 dy=0 dh=10 dv=0
EndChar

StartChar: Ocircumflex
Encoding: 212 212 188
Width: 568
Flags: W
LayerCount: 2
Fore
SplineSet
379 730 m 1,0,-1
 345 791 l 1,1,-1
 299 730 l 1,2,-1
 151 730 l 1,3,-1
 271 845 l 1,4,-1
 423 845 l 1,5,-1
 524 730 l 1,6,-1
 379 730 l 1,0,-1
399 353 m 0,7,8
 405 424 405 424 405 469 c 0,9,10
 405 509 405 509 400.5 534.5 c 128,-1,11
 396 560 396 560 386 575 c 128,-1,12
 376 590 376 590 361.5 596 c 128,-1,13
 347 602 347 602 326 602 c 0,14,15
 299 602 299 602 280 592 c 128,-1,16
 261 582 261 582 247.5 554.5 c 128,-1,17
 234 527 234 527 225 478.5 c 128,-1,18
 216 430 216 430 209 353 c 0,19,20
 203 286 203 286 203 238 c 0,21,22
 203 157 203 157 222 127.5 c 128,-1,23
 241 98 241 98 282 98 c 0,24,25
 309 98 309 98 328 109.5 c 128,-1,26
 347 121 347 121 360.5 150 c 128,-1,27
 374 179 374 179 383.5 228 c 128,-1,28
 393 277 393 277 399 353 c 0,7,8
539 358 m 0,29,30
 531 266 531 266 517.5 197 c 128,-1,31
 504 128 504 128 475.5 82 c 128,-1,32
 447 36 447 36 399 13 c 128,-1,33
 351 -10 351 -10 273 -10 c 0,34,35
 214 -10 214 -10 174 6 c 128,-1,36
 134 22 134 22 110 53.5 c 128,-1,37
 86 85 86 85 75.5 132 c 128,-1,38
 65 179 65 179 65 242 c 0,39,40
 65 295 65 295 71 358 c 0,41,42
 79 446 79 446 92.5 512 c 128,-1,43
 106 578 106 578 135 622 c 128,-1,44
 164 666 164 666 212 688 c 128,-1,45
 260 710 260 710 336 710 c 0,46,47
 395 710 395 710 434.5 694.5 c 128,-1,48
 474 679 474 679 498.5 647.5 c 128,-1,49
 523 616 523 616 533.5 568.5 c 128,-1,50
 544 521 544 521 544 458 c 0,51,52
 544 435 544 435 542.5 410 c 128,-1,53
 541 385 541 385 539 358 c 0,29,30
EndSplineSet
Position2: "'cpsp' Capital Spacing in Latin lookup 0 subtable" dx=5 dy=0 dh=10 dv=0
EndChar

StartChar: Odieresis
Encoding: 214 214 189
Width: 568
Flags: W
LayerCount: 2
Fore
SplineSet
367 730 m 1,0,-1
 378 845 l 1,1,-1
 508 845 l 1,2,-1
 497 730 l 1,3,-1
 367 730 l 1,0,-1
167 730 m 1,4,-1
 178 845 l 1,5,-1
 308 845 l 1,6,-1
 297 730 l 1,7,-1
 167 730 l 1,4,-1
399 353 m 0,8,9
 405 424 405 424 405 469 c 0,10,11
 405 509 405 509 400.5 534.5 c 128,-1,12
 396 560 396 560 386 575 c 128,-1,13
 376 590 376 590 361.5 596 c 128,-1,14
 347 602 347 602 326 602 c 0,15,16
 299 602 299 602 280 592 c 128,-1,17
 261 582 261 582 247.5 554.5 c 128,-1,18
 234 527 234 527 225 478.5 c 128,-1,19
 216 430 216 430 209 353 c 0,20,21
 203 286 203 286 203 238 c 0,22,23
 203 157 203 157 222 127.5 c 128,-1,24
 241 98 241 98 282 98 c 0,25,26
 309 98 309 98 328 109.5 c 128,-1,27
 347 121 347 121 360.5 150 c 128,-1,28
 374 179 374 179 383.5 228 c 128,-1,29
 393 277 393 277 399 353 c 0,8,9
539 358 m 0,30,31
 531 266 531 266 517.5 197 c 128,-1,32
 504 128 504 128 475.5 82 c 128,-1,33
 447 36 447 36 399 13 c 128,-1,34
 351 -10 351 -10 273 -10 c 0,35,36
 214 -10 214 -10 174 6 c 128,-1,37
 134 22 134 22 110 53.5 c 128,-1,38
 86 85 86 85 75.5 132 c 128,-1,39
 65 179 65 179 65 242 c 0,40,41
 65 295 65 295 71 358 c 0,42,43
 79 446 79 446 92.5 512 c 128,-1,44
 106 578 106 578 135 622 c 128,-1,45
 164 666 164 666 212 688 c 128,-1,46
 260 710 260 710 336 710 c 0,47,48
 395 710 395 710 434.5 694.5 c 128,-1,49
 474 679 474 679 498.5 647.5 c 128,-1,50
 523 616 523 616 533.5 568.5 c 128,-1,51
 544 521 544 521 544 458 c 0,52,53
 544 435 544 435 542.5 410 c 128,-1,54
 541 385 541 385 539 358 c 0,30,31
EndSplineSet
Position2: "'cpsp' Capital Spacing in Latin lookup 0 subtable" dx=5 dy=0 dh=10 dv=0
EndChar

StartChar: Ograve
Encoding: 210 210 190
Width: 568
Flags: W
LayerCount: 2
Fore
SplineSet
311 726 m 1,0,-1
 164 841 l 1,1,-1
 325 841 l 1,2,-1
 419 726 l 1,3,-1
 311 726 l 1,0,-1
399 353 m 0,4,5
 405 424 405 424 405 469 c 0,6,7
 405 509 405 509 400.5 534.5 c 128,-1,8
 396 560 396 560 386 575 c 128,-1,9
 376 590 376 590 361.5 596 c 128,-1,10
 347 602 347 602 326 602 c 0,11,12
 299 602 299 602 280 592 c 128,-1,13
 261 582 261 582 247.5 554.5 c 128,-1,14
 234 527 234 527 225 478.5 c 128,-1,15
 216 430 216 430 209 353 c 0,16,17
 203 286 203 286 203 238 c 0,18,19
 203 157 203 157 222 127.5 c 128,-1,20
 241 98 241 98 282 98 c 0,21,22
 309 98 309 98 328 109.5 c 128,-1,23
 347 121 347 121 360.5 150 c 128,-1,24
 374 179 374 179 383.5 228 c 128,-1,25
 393 277 393 277 399 353 c 0,4,5
539 358 m 0,26,27
 531 266 531 266 517.5 197 c 128,-1,28
 504 128 504 128 475.5 82 c 128,-1,29
 447 36 447 36 399 13 c 128,-1,30
 351 -10 351 -10 273 -10 c 0,31,32
 214 -10 214 -10 174 6 c 128,-1,33
 134 22 134 22 110 53.5 c 128,-1,34
 86 85 86 85 75.5 132 c 128,-1,35
 65 179 65 179 65 242 c 0,36,37
 65 295 65 295 71 358 c 0,38,39
 79 446 79 446 92.5 512 c 128,-1,40
 106 578 106 578 135 622 c 128,-1,41
 164 666 164 666 212 688 c 128,-1,42
 260 710 260 710 336 710 c 0,43,44
 395 710 395 710 434.5 694.5 c 128,-1,45
 474 679 474 679 498.5 647.5 c 128,-1,46
 523 616 523 616 533.5 568.5 c 128,-1,47
 544 521 544 521 544 458 c 0,48,49
 544 435 544 435 542.5 410 c 128,-1,50
 541 385 541 385 539 358 c 0,26,27
EndSplineSet
Position2: "'cpsp' Capital Spacing in Latin lookup 0 subtable" dx=5 dy=0 dh=10 dv=0
EndChar

StartChar: Otilde
Encoding: 213 213 191
Width: 568
Flags: W
LayerCount: 2
Fore
SplineSet
399 353 m 0,0,1
 405 424 405 424 405 469 c 0,2,3
 405 509 405 509 400.5 534.5 c 128,-1,4
 396 560 396 560 386 575 c 128,-1,5
 376 590 376 590 361.5 596 c 128,-1,6
 347 602 347 602 326 602 c 0,7,8
 299 602 299 602 280 592 c 128,-1,9
 261 582 261 582 247.5 554.5 c 128,-1,10
 234 527 234 527 225 478.5 c 128,-1,11
 216 430 216 430 209 353 c 0,12,13
 203 286 203 286 203 238 c 0,14,15
 203 157 203 157 222 127.5 c 128,-1,16
 241 98 241 98 282 98 c 0,17,18
 309 98 309 98 328 109.5 c 128,-1,19
 347 121 347 121 360.5 150 c 128,-1,20
 374 179 374 179 383.5 228 c 128,-1,21
 393 277 393 277 399 353 c 0,0,1
539 358 m 0,22,23
 531 266 531 266 517.5 197 c 128,-1,24
 504 128 504 128 475.5 82 c 128,-1,25
 447 36 447 36 399 13 c 128,-1,26
 351 -10 351 -10 273 -10 c 0,27,28
 214 -10 214 -10 174 6 c 128,-1,29
 134 22 134 22 110 53.5 c 128,-1,30
 86 85 86 85 75.5 132 c 128,-1,31
 65 179 65 179 65 242 c 0,32,33
 65 295 65 295 71 358 c 0,34,35
 79 446 79 446 92.5 512 c 128,-1,36
 106 578 106 578 135 622 c 128,-1,37
 164 666 164 666 212 688 c 128,-1,38
 260 710 260 710 336 710 c 0,39,40
 395 710 395 710 434.5 694.5 c 128,-1,41
 474 679 474 679 498.5 647.5 c 128,-1,42
 523 616 523 616 533.5 568.5 c 128,-1,43
 544 521 544 521 544 458 c 0,44,45
 544 435 544 435 542.5 410 c 128,-1,46
 541 385 541 385 539 358 c 0,22,23
178 828 m 1,47,48
 202 847 202 847 229 853.5 c 128,-1,49
 256 860 256 860 276 860 c 0,50,51
 294 860 294 860 312.5 854 c 128,-1,52
 331 848 331 848 349.5 840.5 c 128,-1,53
 368 833 368 833 385 827 c 128,-1,54
 402 821 402 821 417 821 c 0,55,56
 443 821 443 821 466 830.5 c 128,-1,57
 489 840 489 840 510 857 c 1,58,-1
 501 752 l 1,59,60
 480 733 480 733 454 726.5 c 128,-1,61
 428 720 428 720 402 720 c 0,62,63
 383 720 383 720 365 726 c 128,-1,64
 347 732 347 732 329.5 739.5 c 128,-1,65
 312 747 312 747 295 753 c 128,-1,66
 278 759 278 759 262 759 c 0,67,68
 236 759 236 759 211 748 c 128,-1,69
 186 737 186 737 169 723 c 1,70,-1
 178 828 l 1,47,48
EndSplineSet
Position2: "'cpsp' Capital Spacing in Latin lookup 0 subtable" dx=5 dy=0 dh=10 dv=0
EndChar

StartChar: Scaron
Encoding: 352 352 192
Width: 424
Flags: W
LayerCount: 2
Fore
SplineSet
247 845 m 1,0,-1
 282 784 l 1,1,-1
 327 845 l 1,2,-1
 473 845 l 1,3,-1
 353 730 l 1,4,-1
 201 730 l 1,5,-1
 100 845 l 1,6,-1
 247 845 l 1,0,-1
414 252 m 0,7,8
 414 244 414 244 413.5 235 c 128,-1,9
 413 226 413 226 412 217 c 0,10,11
 405 145 405 145 385.5 101 c 128,-1,12
 366 57 366 57 334 33 c 128,-1,13
 302 9 302 9 259 1 c 128,-1,14
 216 -7 216 -7 162 -7 c 0,15,16
 146 -7 146 -7 126.5 -6 c 128,-1,17
 107 -5 107 -5 87.5 -3 c 128,-1,18
 68 -1 68 -1 50.5 2 c 128,-1,19
 33 5 33 5 21 8 c 1,20,-1
 32 127 l 1,21,22
 43 124 43 124 59.5 121 c 128,-1,23
 76 118 76 118 94 116 c 128,-1,24
 112 114 112 114 130 112.5 c 128,-1,25
 148 111 148 111 162 111 c 0,26,27
 212 111 212 111 242.5 136.5 c 128,-1,28
 273 162 273 162 273 225 c 0,29,30
 273 266 273 266 253 282 c 128,-1,31
 233 298 233 298 196 307 c 0,32,33
 121 325 121 325 89.5 367 c 128,-1,34
 58 409 58 409 58 472 c 0,35,36
 58 594 58 594 118.5 650.5 c 128,-1,37
 179 707 179 707 312 707 c 0,38,39
 326 707 326 707 343.5 706 c 128,-1,40
 361 705 361 705 378 703 c 128,-1,41
 395 701 395 701 411 698.5 c 128,-1,42
 427 696 427 696 437 693 c 1,43,-1
 427 574 l 1,44,45
 401 582 401 582 366.5 585.5 c 128,-1,46
 332 589 332 589 294 589 c 0,47,48
 246 589 246 589 222 565 c 128,-1,49
 198 541 198 541 198 487 c 0,50,51
 198 458 198 458 213.5 445.5 c 128,-1,52
 229 433 229 433 270 424 c 0,53,54
 302 417 302 417 328.5 404 c 128,-1,55
 355 391 355 391 374 370.5 c 128,-1,56
 393 350 393 350 403.5 321 c 128,-1,57
 414 292 414 292 414 252 c 0,7,8
EndSplineSet
Position2: "'cpsp' Capital Spacing in Latin lookup 0 subtable" dx=5 dy=0 dh=10 dv=0
EndChar

StartChar: Uacute
Encoding: 218 218 193
Width: 555
Flags: W
LayerCount: 2
Fore
SplineSet
254 726 m 1,0,-1
 368 841 l 1,1,-1
 529 841 l 1,2,-1
 372 726 l 1,3,-1
 254 726 l 1,0,-1
498 215 m 2,4,5
 492 153 492 153 476 110.5 c 128,-1,6
 460 68 460 68 431.5 42 c 128,-1,7
 403 16 403 16 362.5 4.5 c 128,-1,8
 322 -7 322 -7 267 -7 c 0,9,10
 224 -7 224 -7 187.5 2.5 c 128,-1,11
 151 12 151 12 125.5 34 c 128,-1,12
 100 56 100 56 85.5 92 c 128,-1,13
 71 128 71 128 71 180 c 0,14,15
 71 188 71 188 71.5 197 c 128,-1,16
 72 206 72 206 73 215 c 2,17,-1
 116 700 l 1,18,-1
 253 700 l 1,19,-1
 210 211 l 2,20,21
 209 200 209 200 208.5 193 c 128,-1,22
 208 186 208 186 208 181 c 0,23,24
 208 111 208 111 277 111 c 0,25,26
 316 111 316 111 336 132.5 c 128,-1,27
 356 154 356 154 360 196 c 2,28,-1
 404 700 l 1,29,-1
 541 700 l 1,30,-1
 498 215 l 2,4,5
EndSplineSet
Position2: "'cpsp' Capital Spacing in Latin lookup 0 subtable" dx=5 dy=0 dh=10 dv=0
EndChar

StartChar: Ucircumflex
Encoding: 219 219 194
Width: 555
Flags: W
LayerCount: 2
Fore
SplineSet
371 730 m 1,0,-1
 337 791 l 1,1,-1
 291 730 l 1,2,-1
 143 730 l 1,3,-1
 263 845 l 1,4,-1
 415 845 l 1,5,-1
 516 730 l 1,6,-1
 371 730 l 1,0,-1
498 215 m 2,7,8
 492 153 492 153 476 110.5 c 128,-1,9
 460 68 460 68 431.5 42 c 128,-1,10
 403 16 403 16 362.5 4.5 c 128,-1,11
 322 -7 322 -7 267 -7 c 0,12,13
 224 -7 224 -7 187.5 2.5 c 128,-1,14
 151 12 151 12 125.5 34 c 128,-1,15
 100 56 100 56 85.5 92 c 128,-1,16
 71 128 71 128 71 180 c 0,17,18
 71 188 71 188 71.5 197 c 128,-1,19
 72 206 72 206 73 215 c 2,20,-1
 116 700 l 1,21,-1
 253 700 l 1,22,-1
 210 211 l 2,23,24
 209 200 209 200 208.5 193 c 128,-1,25
 208 186 208 186 208 181 c 0,26,27
 208 111 208 111 277 111 c 0,28,29
 316 111 316 111 336 132.5 c 128,-1,30
 356 154 356 154 360 196 c 2,31,-1
 404 700 l 1,32,-1
 541 700 l 1,33,-1
 498 215 l 2,7,8
EndSplineSet
Position2: "'cpsp' Capital Spacing in Latin lookup 0 subtable" dx=5 dy=0 dh=10 dv=0
EndChar

StartChar: Udieresis
Encoding: 220 220 195
Width: 555
Flags: W
LayerCount: 2
Fore
SplineSet
369 730 m 1,0,-1
 380 845 l 1,1,-1
 510 845 l 1,2,-1
 499 730 l 1,3,-1
 369 730 l 1,0,-1
169 730 m 1,4,-1
 180 845 l 1,5,-1
 310 845 l 1,6,-1
 299 730 l 1,7,-1
 169 730 l 1,4,-1
498 215 m 2,8,9
 492 153 492 153 476 110.5 c 128,-1,10
 460 68 460 68 431.5 42 c 128,-1,11
 403 16 403 16 362.5 4.5 c 128,-1,12
 322 -7 322 -7 267 -7 c 0,13,14
 224 -7 224 -7 187.5 2.5 c 128,-1,15
 151 12 151 12 125.5 34 c 128,-1,16
 100 56 100 56 85.5 92 c 128,-1,17
 71 128 71 128 71 180 c 0,18,19
 71 188 71 188 71.5 197 c 128,-1,20
 72 206 72 206 73 215 c 2,21,-1
 116 700 l 1,22,-1
 253 700 l 1,23,-1
 210 211 l 2,24,25
 209 200 209 200 208.5 193 c 128,-1,26
 208 186 208 186 208 181 c 0,27,28
 208 111 208 111 277 111 c 0,29,30
 316 111 316 111 336 132.5 c 128,-1,31
 356 154 356 154 360 196 c 2,32,-1
 404 700 l 1,33,-1
 541 700 l 1,34,-1
 498 215 l 2,8,9
EndSplineSet
Position2: "'cpsp' Capital Spacing in Latin lookup 0 subtable" dx=5 dy=0 dh=10 dv=0
EndChar

StartChar: Ugrave
Encoding: 217 217 196
Width: 555
Flags: W
LayerCount: 2
Fore
SplineSet
301 726 m 1,0,-1
 154 841 l 1,1,-1
 315 841 l 1,2,-1
 409 726 l 1,3,-1
 301 726 l 1,0,-1
498 215 m 2,4,5
 492 153 492 153 476 110.5 c 128,-1,6
 460 68 460 68 431.5 42 c 128,-1,7
 403 16 403 16 362.5 4.5 c 128,-1,8
 322 -7 322 -7 267 -7 c 0,9,10
 224 -7 224 -7 187.5 2.5 c 128,-1,11
 151 12 151 12 125.5 34 c 128,-1,12
 100 56 100 56 85.5 92 c 128,-1,13
 71 128 71 128 71 180 c 0,14,15
 71 188 71 188 71.5 197 c 128,-1,16
 72 206 72 206 73 215 c 2,17,-1
 116 700 l 1,18,-1
 253 700 l 1,19,-1
 210 211 l 2,20,21
 209 200 209 200 208.5 193 c 128,-1,22
 208 186 208 186 208 181 c 0,23,24
 208 111 208 111 277 111 c 0,25,26
 316 111 316 111 336 132.5 c 128,-1,27
 356 154 356 154 360 196 c 2,28,-1
 404 700 l 1,29,-1
 541 700 l 1,30,-1
 498 215 l 2,4,5
EndSplineSet
Position2: "'cpsp' Capital Spacing in Latin lookup 0 subtable" dx=5 dy=0 dh=10 dv=0
EndChar

StartChar: Yacute
Encoding: 221 221 197
Width: 531
Flags: W
LayerCount: 2
Fore
SplineSet
249 726 m 1,0,-1
 363 841 l 1,1,-1
 524 841 l 1,2,-1
 362 726 l 1,3,-1
 249 726 l 1,0,-1
350 308 m 1,4,-1
 324 0 l 1,5,-1
 184 0 l 1,6,-1
 210 308 l 1,7,-1
 61 700 l 1,8,-1
 206 700 l 1,9,-1
 293 430 l 1,10,-1
 428 700 l 1,11,-1
 572 700 l 1,12,-1
 350 308 l 1,4,-1
EndSplineSet
Position2: "'cpsp' Capital Spacing in Latin lookup 0 subtable" dx=5 dy=0 dh=10 dv=0
EndChar

StartChar: Ydieresis
Encoding: 376 376 198
Width: 531
Flags: W
LayerCount: 2
Fore
SplineSet
350 308 m 1,0,-1
 324 0 l 1,1,-1
 184 0 l 1,2,-1
 210 308 l 1,3,-1
 61 700 l 1,4,-1
 206 700 l 1,5,-1
 293 430 l 1,6,-1
 428 700 l 1,7,-1
 572 700 l 1,8,-1
 350 308 l 1,0,-1
352 720 m 1,9,-1
 363 835 l 1,10,-1
 493 835 l 1,11,-1
 482 720 l 1,12,-1
 352 720 l 1,9,-1
152 720 m 1,13,-1
 163 835 l 1,14,-1
 293 835 l 1,15,-1
 282 720 l 1,16,-1
 152 720 l 1,13,-1
EndSplineSet
Position2: "'cpsp' Capital Spacing in Latin lookup 0 subtable" dx=5 dy=0 dh=10 dv=0
EndChar

StartChar: Zcaron
Encoding: 381 381 199
Width: 466
Flags: W
LayerCount: 2
Fore
SplineSet
270 845 m 1,0,-1
 305 784 l 1,1,-1
 350 845 l 1,2,-1
 496 845 l 1,3,-1
 376 730 l 1,4,-1
 224 730 l 1,5,-1
 123 845 l 1,6,-1
 270 845 l 1,0,-1
187 119 m 1,7,-1
 421 119 l 1,8,-1
 411 0 l 1,9,-1
 25 0 l 1,10,-1
 36 133 l 1,11,-1
 320 581 l 1,12,-1
 98 581 l 1,13,-1
 109 700 l 1,14,-1
 482 700 l 1,15,-1
 470 567 l 1,16,-1
 187 119 l 1,7,-1
EndSplineSet
Position2: "'cpsp' Capital Spacing in Latin lookup 0 subtable" dx=5 dy=0 dh=10 dv=0
EndChar

StartChar: aacute
Encoding: 225 225 200
Width: 521
Flags: W
LayerCount: 2
Fore
SplineSet
60 237 m 0,0,1
 67 314 67 314 84 366 c 128,-1,2
 101 418 101 418 131.5 450 c 128,-1,3
 162 482 162 482 207 495.5 c 128,-1,4
 252 509 252 509 314 509 c 0,5,6
 354 509 354 509 399.5 501.5 c 128,-1,7
 445 494 445 494 478 485 c 1,8,-1
 448 127 l 1,9,10
 448 114 448 114 455 107 c 128,-1,11
 462 100 462 100 484 100 c 1,12,-1
 476 0 l 1,13,-1
 418 0 l 2,14,15
 407 0 407 0 393.5 2 c 128,-1,16
 380 4 380 4 367 10.5 c 128,-1,17
 354 17 354 17 344.5 28 c 128,-1,18
 335 39 335 39 331 57 c 1,19,20
 306 26 306 26 273.5 8.5 c 128,-1,21
 241 -9 241 -9 196 -9 c 0,22,23
 124 -9 124 -9 90.5 30.5 c 128,-1,24
 57 70 57 70 57 167 c 0,25,26
 57 200 57 200 60 237 c 0,0,1
241 105 m 0,27,28
 261 105 261 105 275.5 116 c 128,-1,29
 290 127 290 127 300 144.5 c 128,-1,30
 310 162 310 162 316 182.5 c 128,-1,31
 322 203 322 203 323 221 c 2,32,-1
 337 393 l 1,33,34
 326 394 326 394 315 394.5 c 128,-1,35
 304 395 304 395 295 395 c 0,36,37
 275 395 275 395 256.5 386.5 c 128,-1,38
 238 378 238 378 223.5 354 c 128,-1,39
 209 330 209 330 200.5 287.5 c 128,-1,40
 192 245 192 245 192 177 c 0,41,42
 192 133 192 133 203.5 119 c 128,-1,43
 215 105 215 105 241 105 c 0,27,28
228 580 m 1,44,-1
 339 715 l 1,45,-1
 503 715 l 1,46,-1
 339 580 l 1,47,-1
 228 580 l 1,44,-1
EndSplineSet
EndChar

StartChar: acircumflex
Encoding: 226 226 201
Width: 521
Flags: W
LayerCount: 2
Fore
SplineSet
60 237 m 0,0,1
 67 314 67 314 84 366 c 128,-1,2
 101 418 101 418 131.5 450 c 128,-1,3
 162 482 162 482 207 495.5 c 128,-1,4
 252 509 252 509 314 509 c 0,5,6
 354 509 354 509 399.5 501.5 c 128,-1,7
 445 494 445 494 478 485 c 1,8,-1
 448 127 l 1,9,10
 448 114 448 114 455 107 c 128,-1,11
 462 100 462 100 484 100 c 1,12,-1
 476 0 l 1,13,-1
 418 0 l 2,14,15
 407 0 407 0 393.5 2 c 128,-1,16
 380 4 380 4 367 10.5 c 128,-1,17
 354 17 354 17 344.5 28 c 128,-1,18
 335 39 335 39 331 57 c 1,19,20
 306 26 306 26 273.5 8.5 c 128,-1,21
 241 -9 241 -9 196 -9 c 0,22,23
 124 -9 124 -9 90.5 30.5 c 128,-1,24
 57 70 57 70 57 167 c 0,25,26
 57 200 57 200 60 237 c 0,0,1
241 105 m 0,27,28
 261 105 261 105 275.5 116 c 128,-1,29
 290 127 290 127 300 144.5 c 128,-1,30
 310 162 310 162 316 182.5 c 128,-1,31
 322 203 322 203 323 221 c 2,32,-1
 337 393 l 1,33,34
 326 394 326 394 315 394.5 c 128,-1,35
 304 395 304 395 295 395 c 0,36,37
 275 395 275 395 256.5 386.5 c 128,-1,38
 238 378 238 378 223.5 354 c 128,-1,39
 209 330 209 330 200.5 287.5 c 128,-1,40
 192 245 192 245 192 177 c 0,41,42
 192 133 192 133 203.5 119 c 128,-1,43
 215 105 215 105 241 105 c 0,27,28
367 580 m 1,44,-1
 324 654 l 1,45,-1
 267 580 l 1,46,-1
 118 580 l 1,47,-1
 252 715 l 1,48,-1
 400 715 l 1,49,-1
 511 580 l 1,50,-1
 367 580 l 1,44,-1
EndSplineSet
EndChar

StartChar: adieresis
Encoding: 228 228 202
Width: 521
Flags: W
LayerCount: 2
Fore
SplineSet
60 237 m 0,0,1
 67 314 67 314 84 366 c 128,-1,2
 101 418 101 418 131.5 450 c 128,-1,3
 162 482 162 482 207 495.5 c 128,-1,4
 252 509 252 509 314 509 c 0,5,6
 354 509 354 509 399.5 501.5 c 128,-1,7
 445 494 445 494 478 485 c 1,8,-1
 448 127 l 1,9,10
 448 114 448 114 455 107 c 128,-1,11
 462 100 462 100 484 100 c 1,12,-1
 476 0 l 1,13,-1
 418 0 l 2,14,15
 407 0 407 0 393.5 2 c 128,-1,16
 380 4 380 4 367 10.5 c 128,-1,17
 354 17 354 17 344.5 28 c 128,-1,18
 335 39 335 39 331 57 c 1,19,20
 306 26 306 26 273.5 8.5 c 128,-1,21
 241 -9 241 -9 196 -9 c 0,22,23
 124 -9 124 -9 90.5 30.5 c 128,-1,24
 57 70 57 70 57 167 c 0,25,26
 57 200 57 200 60 237 c 0,0,1
241 105 m 0,27,28
 261 105 261 105 275.5 116 c 128,-1,29
 290 127 290 127 300 144.5 c 128,-1,30
 310 162 310 162 316 182.5 c 128,-1,31
 322 203 322 203 323 221 c 2,32,-1
 337 393 l 1,33,34
 326 394 326 394 315 394.5 c 128,-1,35
 304 395 304 395 295 395 c 0,36,37
 275 395 275 395 256.5 386.5 c 128,-1,38
 238 378 238 378 223.5 354 c 128,-1,39
 209 330 209 330 200.5 287.5 c 128,-1,40
 192 245 192 245 192 177 c 0,41,42
 192 133 192 133 203.5 119 c 128,-1,43
 215 105 215 105 241 105 c 0,27,28
343 560 m 1,44,-1
 354 675 l 1,45,-1
 484 675 l 1,46,-1
 473 560 l 1,47,-1
 343 560 l 1,44,-1
143 560 m 1,48,-1
 154 675 l 1,49,-1
 284 675 l 1,50,-1
 273 560 l 1,51,-1
 143 560 l 1,48,-1
EndSplineSet
EndChar

StartChar: agrave
Encoding: 224 224 203
Width: 521
Flags: W
LayerCount: 2
Fore
SplineSet
60 237 m 0,0,1
 67 314 67 314 84 366 c 128,-1,2
 101 418 101 418 131.5 450 c 128,-1,3
 162 482 162 482 207 495.5 c 128,-1,4
 252 509 252 509 314 509 c 0,5,6
 354 509 354 509 399.5 501.5 c 128,-1,7
 445 494 445 494 478 485 c 1,8,-1
 448 127 l 1,9,10
 448 114 448 114 455 107 c 128,-1,11
 462 100 462 100 484 100 c 1,12,-1
 476 0 l 1,13,-1
 418 0 l 2,14,15
 407 0 407 0 393.5 2 c 128,-1,16
 380 4 380 4 367 10.5 c 128,-1,17
 354 17 354 17 344.5 28 c 128,-1,18
 335 39 335 39 331 57 c 1,19,20
 306 26 306 26 273.5 8.5 c 128,-1,21
 241 -9 241 -9 196 -9 c 0,22,23
 124 -9 124 -9 90.5 30.5 c 128,-1,24
 57 70 57 70 57 167 c 0,25,26
 57 200 57 200 60 237 c 0,0,1
241 105 m 0,27,28
 261 105 261 105 275.5 116 c 128,-1,29
 290 127 290 127 300 144.5 c 128,-1,30
 310 162 310 162 316 182.5 c 128,-1,31
 322 203 322 203 323 221 c 2,32,-1
 337 393 l 1,33,34
 326 394 326 394 315 394.5 c 128,-1,35
 304 395 304 395 295 395 c 0,36,37
 275 395 275 395 256.5 386.5 c 128,-1,38
 238 378 238 378 223.5 354 c 128,-1,39
 209 330 209 330 200.5 287.5 c 128,-1,40
 192 245 192 245 192 177 c 0,41,42
 192 133 192 133 203.5 119 c 128,-1,43
 215 105 215 105 241 105 c 0,27,28
315 580 m 1,44,-1
 170 715 l 1,45,-1
 329 715 l 1,46,-1
 421 580 l 1,47,-1
 315 580 l 1,44,-1
EndSplineSet
EndChar

StartChar: aring
Encoding: 229 229 204
Width: 521
Flags: W
LayerCount: 2
Fore
SplineSet
348 646 m 0,0,1
 349 651 349 651 349 655.5 c 128,-1,2
 349 660 349 660 349 664 c 0,3,4
 349 680 349 680 343.5 687.5 c 128,-1,5
 338 695 338 695 324 695 c 0,6,7
 304 695 304 695 297.5 678.5 c 128,-1,8
 291 662 291 662 291 628 c 0,9,10
 291 612 291 612 296.5 604.5 c 128,-1,11
 302 597 302 597 316 597 c 0,12,13
 333 597 333 597 339.5 609 c 128,-1,14
 346 621 346 621 348 646 c 0,0,1
436 645 m 0,15,16
 431 587 431 587 402.5 555 c 128,-1,17
 374 523 374 523 309 523 c 0,18,19
 257 523 257 523 230 550 c 128,-1,20
 203 577 203 577 203 627 c 0,21,22
 203 693 203 693 233 730 c 128,-1,23
 263 767 263 767 331 767 c 0,24,25
 382 767 382 767 409.5 740 c 128,-1,26
 437 713 437 713 437 663 c 0,27,28
 437 658 437 658 437 654 c 128,-1,29
 437 650 437 650 436 645 c 0,15,16
60 237 m 0,30,31
 67 314 67 314 84 366 c 128,-1,32
 101 418 101 418 131.5 450 c 128,-1,33
 162 482 162 482 207 495.5 c 128,-1,34
 252 509 252 509 314 509 c 0,35,36
 354 509 354 509 399.5 501.5 c 128,-1,37
 445 494 445 494 478 485 c 1,38,-1
 448 127 l 1,39,40
 448 114 448 114 455 107 c 128,-1,41
 462 100 462 100 484 100 c 1,42,-1
 476 0 l 1,43,-1
 418 0 l 2,44,45
 407 0 407 0 393.5 2 c 128,-1,46
 380 4 380 4 367 10.5 c 128,-1,47
 354 17 354 17 344.5 28 c 128,-1,48
 335 39 335 39 331 57 c 1,49,50
 306 26 306 26 273.5 8.5 c 128,-1,51
 241 -9 241 -9 196 -9 c 0,52,53
 124 -9 124 -9 90.5 30.5 c 128,-1,54
 57 70 57 70 57 167 c 0,55,56
 57 200 57 200 60 237 c 0,30,31
241 105 m 0,57,58
 261 105 261 105 275.5 116 c 128,-1,59
 290 127 290 127 300 144.5 c 128,-1,60
 310 162 310 162 316 182.5 c 128,-1,61
 322 203 322 203 323 221 c 2,62,-1
 337 393 l 1,63,64
 326 394 326 394 315 394.5 c 128,-1,65
 304 395 304 395 295 395 c 0,66,67
 275 395 275 395 256.5 386.5 c 128,-1,68
 238 378 238 378 223.5 354 c 128,-1,69
 209 330 209 330 200.5 287.5 c 128,-1,70
 192 245 192 245 192 177 c 0,71,72
 192 133 192 133 203.5 119 c 128,-1,73
 215 105 215 105 241 105 c 0,57,58
EndSplineSet
EndChar

StartChar: atilde
Encoding: 227 227 205
Width: 521
Flags: W
LayerCount: 2
Fore
SplineSet
60 237 m 0,0,1
 67 314 67 314 84 366 c 128,-1,2
 101 418 101 418 131.5 450 c 128,-1,3
 162 482 162 482 207 495.5 c 128,-1,4
 252 509 252 509 314 509 c 0,5,6
 354 509 354 509 399.5 501.5 c 128,-1,7
 445 494 445 494 478 485 c 1,8,-1
 448 127 l 1,9,10
 448 114 448 114 455 107 c 128,-1,11
 462 100 462 100 484 100 c 1,12,-1
 476 0 l 1,13,-1
 418 0 l 2,14,15
 407 0 407 0 393.5 2 c 128,-1,16
 380 4 380 4 367 10.5 c 128,-1,17
 354 17 354 17 344.5 28 c 128,-1,18
 335 39 335 39 331 57 c 1,19,20
 306 26 306 26 273.5 8.5 c 128,-1,21
 241 -9 241 -9 196 -9 c 0,22,23
 124 -9 124 -9 90.5 30.5 c 128,-1,24
 57 70 57 70 57 167 c 0,25,26
 57 200 57 200 60 237 c 0,0,1
241 105 m 0,27,28
 261 105 261 105 275.5 116 c 128,-1,29
 290 127 290 127 300 144.5 c 128,-1,30
 310 162 310 162 316 182.5 c 128,-1,31
 322 203 322 203 323 221 c 2,32,-1
 337 393 l 1,33,34
 326 394 326 394 315 394.5 c 128,-1,35
 304 395 304 395 295 395 c 0,36,37
 275 395 275 395 256.5 386.5 c 128,-1,38
 238 378 238 378 223.5 354 c 128,-1,39
 209 330 209 330 200.5 287.5 c 128,-1,40
 192 245 192 245 192 177 c 0,41,42
 192 133 192 133 203.5 119 c 128,-1,43
 215 105 215 105 241 105 c 0,27,28
156 688 m 1,44,45
 180 707 180 707 207 713.5 c 128,-1,46
 234 720 234 720 254 720 c 0,47,48
 272 720 272 720 290.5 714 c 128,-1,49
 309 708 309 708 327.5 700.5 c 128,-1,50
 346 693 346 693 363 687 c 128,-1,51
 380 681 380 681 395 681 c 0,52,53
 421 681 421 681 444 690.5 c 128,-1,54
 467 700 467 700 488 717 c 1,55,-1
 479 612 l 1,56,57
 458 593 458 593 432 586.5 c 128,-1,58
 406 580 406 580 380 580 c 0,59,60
 361 580 361 580 343 586 c 128,-1,61
 325 592 325 592 307.5 599.5 c 128,-1,62
 290 607 290 607 273 613 c 128,-1,63
 256 619 256 619 240 619 c 0,64,65
 214 619 214 619 189 608 c 128,-1,66
 164 597 164 597 147 583 c 1,67,-1
 156 688 l 1,44,45
EndSplineSet
EndChar

StartChar: ccedilla
Encoding: 231 231 206
Width: 408
Flags: W
LayerCount: 2
Fore
SplineSet
140 -127 m 1,0,1
 154 -129 154 -129 168.5 -130.5 c 128,-1,2
 183 -132 183 -132 194 -132 c 0,3,4
 216 -132 216 -132 226 -127.5 c 128,-1,5
 236 -123 236 -123 236 -109 c 0,6,7
 236 -103 236 -103 232.5 -98.5 c 128,-1,8
 229 -94 229 -94 220 -91 c 128,-1,9
 211 -88 211 -88 195.5 -87 c 128,-1,10
 180 -86 180 -86 155 -86 c 1,11,-1
 175 -3 l 1,12,13
 148 2 148 2 127 14.5 c 128,-1,14
 106 27 106 27 91 50 c 128,-1,15
 76 73 76 73 68 108 c 128,-1,16
 60 143 60 143 60 193 c 0,17,18
 60 279 60 279 74 339 c 128,-1,19
 88 399 88 399 116 437 c 128,-1,20
 144 475 144 475 187 492 c 128,-1,21
 230 509 230 509 288 509 c 0,22,23
 313 509 313 509 346 504.5 c 128,-1,24
 379 500 379 500 401 495 c 1,25,-1
 391 378 l 1,26,27
 377 381 377 381 366 383.5 c 128,-1,28
 355 386 355 386 343 388 c 128,-1,29
 331 390 331 390 317 391 c 128,-1,30
 303 392 303 392 284 392 c 0,31,32
 267 392 267 392 253 386 c 128,-1,33
 239 380 239 380 228.5 363.5 c 128,-1,34
 218 347 218 347 210.5 317.5 c 128,-1,35
 203 288 203 288 198 240 c 0,36,37
 197 229 197 229 196.5 219.5 c 128,-1,38
 196 210 196 210 196 201 c 0,39,40
 196 148 196 148 211.5 128 c 128,-1,41
 227 108 227 108 257 108 c 0,42,43
 295 108 295 108 320.5 113 c 128,-1,44
 346 118 346 118 368 122 c 1,45,-1
 358 6 l 1,46,47
 339 1 339 1 316 -2.5 c 128,-1,48
 293 -6 293 -6 270 -8 c 1,49,-1
 268 -19 l 1,50,51
 310 -24 310 -24 328.5 -47 c 128,-1,52
 347 -70 347 -70 347 -103 c 0,53,54
 347 -154 347 -154 314.5 -188 c 128,-1,55
 282 -222 282 -222 208 -222 c 0,56,57
 191 -222 191 -222 169 -219.5 c 128,-1,58
 147 -217 147 -217 133 -214 c 1,59,-1
 140 -127 l 1,0,1
EndSplineSet
EndChar

StartChar: eacute
Encoding: 233 233 207
Width: 484
Flags: W
LayerCount: 2
Fore
SplineSet
459 364 m 0,0,1
 459 323 459 323 448.5 291 c 128,-1,2
 438 259 438 259 415 237 c 128,-1,3
 392 215 392 215 354 203.5 c 128,-1,4
 316 192 316 192 262 192 c 0,5,6
 246 192 246 192 228.5 192.5 c 128,-1,7
 211 193 211 193 192 195 c 1,8,-1
 192 187 l 2,9,10
 192 140 192 140 208.5 122.5 c 128,-1,11
 225 105 225 105 268 105 c 0,12,13
 302 105 302 105 338 110 c 128,-1,14
 374 115 374 115 397 120 c 1,15,-1
 387 8 l 1,16,17
 375 5 375 5 358 1.5 c 128,-1,18
 341 -2 341 -2 323.5 -4 c 128,-1,19
 306 -6 306 -6 289 -7.5 c 128,-1,20
 272 -9 272 -9 258 -9 c 0,21,22
 213 -9 213 -9 176.5 -1.5 c 128,-1,23
 140 6 140 6 114 27.5 c 128,-1,24
 88 49 88 49 73.5 88.5 c 128,-1,25
 59 128 59 128 59 192 c 0,26,27
 59 219 59 219 62 250 c 0,28,29
 68 319 68 319 85 368.5 c 128,-1,30
 102 418 102 418 130 449 c 128,-1,31
 158 480 158 480 198 494.5 c 128,-1,32
 238 509 238 509 290 509 c 0,33,34
 343 509 343 509 376 494 c 128,-1,35
 409 479 409 479 427.5 457 c 128,-1,36
 446 435 446 435 452.5 409.5 c 128,-1,37
 459 384 459 384 459 364 c 0,0,1
278 399 m 0,38,39
 249 399 249 399 231 377 c 128,-1,40
 213 355 213 355 202 299 c 1,41,42
 228 296 228 296 249 296 c 0,43,44
 285 296 285 296 306.5 307.5 c 128,-1,45
 328 319 328 319 328 348 c 0,46,47
 328 369 328 369 319.5 384 c 128,-1,48
 311 399 311 399 278 399 c 0,38,39
203 580 m 1,49,-1
 314 715 l 1,50,-1
 478 715 l 1,51,-1
 314 580 l 1,52,-1
 203 580 l 1,49,-1
EndSplineSet
EndChar

StartChar: ecircumflex
Encoding: 234 234 208
Width: 484
Flags: W
LayerCount: 2
Fore
SplineSet
459 364 m 0,0,1
 459 323 459 323 448.5 291 c 128,-1,2
 438 259 438 259 415 237 c 128,-1,3
 392 215 392 215 354 203.5 c 128,-1,4
 316 192 316 192 262 192 c 0,5,6
 246 192 246 192 228.5 192.5 c 128,-1,7
 211 193 211 193 192 195 c 1,8,-1
 192 187 l 2,9,10
 192 140 192 140 208.5 122.5 c 128,-1,11
 225 105 225 105 268 105 c 0,12,13
 302 105 302 105 338 110 c 128,-1,14
 374 115 374 115 397 120 c 1,15,-1
 387 8 l 1,16,17
 375 5 375 5 358 1.5 c 128,-1,18
 341 -2 341 -2 323.5 -4 c 128,-1,19
 306 -6 306 -6 289 -7.5 c 128,-1,20
 272 -9 272 -9 258 -9 c 0,21,22
 213 -9 213 -9 176.5 -1.5 c 128,-1,23
 140 6 140 6 114 27.5 c 128,-1,24
 88 49 88 49 73.5 88.5 c 128,-1,25
 59 128 59 128 59 192 c 0,26,27
 59 219 59 219 62 250 c 0,28,29
 68 319 68 319 85 368.5 c 128,-1,30
 102 418 102 418 130 449 c 128,-1,31
 158 480 158 480 198 494.5 c 128,-1,32
 238 509 238 509 290 509 c 0,33,34
 343 509 343 509 376 494 c 128,-1,35
 409 479 409 479 427.5 457 c 128,-1,36
 446 435 446 435 452.5 409.5 c 128,-1,37
 459 384 459 384 459 364 c 0,0,1
278 399 m 0,38,39
 249 399 249 399 231 377 c 128,-1,40
 213 355 213 355 202 299 c 1,41,42
 228 296 228 296 249 296 c 0,43,44
 285 296 285 296 306.5 307.5 c 128,-1,45
 328 319 328 319 328 348 c 0,46,47
 328 369 328 369 319.5 384 c 128,-1,48
 311 399 311 399 278 399 c 0,38,39
341 580 m 1,49,-1
 298 654 l 1,50,-1
 241 580 l 1,51,-1
 92 580 l 1,52,-1
 226 715 l 1,53,-1
 374 715 l 1,54,-1
 485 580 l 1,55,-1
 341 580 l 1,49,-1
EndSplineSet
EndChar

StartChar: edieresis
Encoding: 235 235 209
Width: 484
Flags: W
LayerCount: 2
Fore
SplineSet
459 364 m 0,0,1
 459 323 459 323 448.5 291 c 128,-1,2
 438 259 438 259 415 237 c 128,-1,3
 392 215 392 215 354 203.5 c 128,-1,4
 316 192 316 192 262 192 c 0,5,6
 246 192 246 192 228.5 192.5 c 128,-1,7
 211 193 211 193 192 195 c 1,8,-1
 192 187 l 2,9,10
 192 140 192 140 208.5 122.5 c 128,-1,11
 225 105 225 105 268 105 c 0,12,13
 302 105 302 105 338 110 c 128,-1,14
 374 115 374 115 397 120 c 1,15,-1
 387 8 l 1,16,17
 375 5 375 5 358 1.5 c 128,-1,18
 341 -2 341 -2 323.5 -4 c 128,-1,19
 306 -6 306 -6 289 -7.5 c 128,-1,20
 272 -9 272 -9 258 -9 c 0,21,22
 213 -9 213 -9 176.5 -1.5 c 128,-1,23
 140 6 140 6 114 27.5 c 128,-1,24
 88 49 88 49 73.5 88.5 c 128,-1,25
 59 128 59 128 59 192 c 0,26,27
 59 219 59 219 62 250 c 0,28,29
 68 319 68 319 85 368.5 c 128,-1,30
 102 418 102 418 130 449 c 128,-1,31
 158 480 158 480 198 494.5 c 128,-1,32
 238 509 238 509 290 509 c 0,33,34
 343 509 343 509 376 494 c 128,-1,35
 409 479 409 479 427.5 457 c 128,-1,36
 446 435 446 435 452.5 409.5 c 128,-1,37
 459 384 459 384 459 364 c 0,0,1
278 399 m 0,38,39
 249 399 249 399 231 377 c 128,-1,40
 213 355 213 355 202 299 c 1,41,42
 228 296 228 296 249 296 c 0,43,44
 285 296 285 296 306.5 307.5 c 128,-1,45
 328 319 328 319 328 348 c 0,46,47
 328 369 328 369 319.5 384 c 128,-1,48
 311 399 311 399 278 399 c 0,38,39
328 560 m 1,49,-1
 339 675 l 1,50,-1
 469 675 l 1,51,-1
 458 560 l 1,52,-1
 328 560 l 1,49,-1
128 560 m 1,53,-1
 139 675 l 1,54,-1
 269 675 l 1,55,-1
 258 560 l 1,56,-1
 128 560 l 1,53,-1
EndSplineSet
EndChar

StartChar: egrave
Encoding: 232 232 210
Width: 484
Flags: W
LayerCount: 2
Fore
SplineSet
459 364 m 0,0,1
 459 323 459 323 448.5 291 c 128,-1,2
 438 259 438 259 415 237 c 128,-1,3
 392 215 392 215 354 203.5 c 128,-1,4
 316 192 316 192 262 192 c 0,5,6
 246 192 246 192 228.5 192.5 c 128,-1,7
 211 193 211 193 192 195 c 1,8,-1
 192 187 l 2,9,10
 192 140 192 140 208.5 122.5 c 128,-1,11
 225 105 225 105 268 105 c 0,12,13
 302 105 302 105 338 110 c 128,-1,14
 374 115 374 115 397 120 c 1,15,-1
 387 8 l 1,16,17
 375 5 375 5 358 1.5 c 128,-1,18
 341 -2 341 -2 323.5 -4 c 128,-1,19
 306 -6 306 -6 289 -7.5 c 128,-1,20
 272 -9 272 -9 258 -9 c 0,21,22
 213 -9 213 -9 176.5 -1.5 c 128,-1,23
 140 6 140 6 114 27.5 c 128,-1,24
 88 49 88 49 73.5 88.5 c 128,-1,25
 59 128 59 128 59 192 c 0,26,27
 59 219 59 219 62 250 c 0,28,29
 68 319 68 319 85 368.5 c 128,-1,30
 102 418 102 418 130 449 c 128,-1,31
 158 480 158 480 198 494.5 c 128,-1,32
 238 509 238 509 290 509 c 0,33,34
 343 509 343 509 376 494 c 128,-1,35
 409 479 409 479 427.5 457 c 128,-1,36
 446 435 446 435 452.5 409.5 c 128,-1,37
 459 384 459 384 459 364 c 0,0,1
278 399 m 0,38,39
 249 399 249 399 231 377 c 128,-1,40
 213 355 213 355 202 299 c 1,41,42
 228 296 228 296 249 296 c 0,43,44
 285 296 285 296 306.5 307.5 c 128,-1,45
 328 319 328 319 328 348 c 0,46,47
 328 369 328 369 319.5 384 c 128,-1,48
 311 399 311 399 278 399 c 0,38,39
294 580 m 1,49,-1
 149 715 l 1,50,-1
 308 715 l 1,51,-1
 400 580 l 1,52,-1
 294 580 l 1,49,-1
EndSplineSet
EndChar

StartChar: iacute
Encoding: 237 237 211
Width: 263
Flags: W
LayerCount: 2
Fore
SplineSet
55 0 m 1,0,-1
 98 500 l 1,1,-1
 231 500 l 1,2,-1
 188 0 l 1,3,-1
 55 0 l 1,0,-1
76 580 m 1,4,-1
 187 715 l 1,5,-1
 351 715 l 1,6,-1
 187 580 l 1,7,-1
 76 580 l 1,4,-1
EndSplineSet
EndChar

StartChar: icircumflex
Encoding: 238 238 212
Width: 263
Flags: W
LayerCount: 2
Fore
SplineSet
55 0 m 1,0,-1
 98 500 l 1,1,-1
 231 500 l 1,2,-1
 188 0 l 1,3,-1
 55 0 l 1,0,-1
224 580 m 1,4,-1
 181 654 l 1,5,-1
 124 580 l 1,6,-1
 -25 580 l 1,7,-1
 109 715 l 1,8,-1
 257 715 l 1,9,-1
 368 580 l 1,10,-1
 224 580 l 1,4,-1
EndSplineSet
EndChar

StartChar: idieresis
Encoding: 239 239 213
Width: 263
Flags: W
LayerCount: 2
Fore
SplineSet
55 0 m 1,0,-1
 98 500 l 1,1,-1
 231 500 l 1,2,-1
 188 0 l 1,3,-1
 55 0 l 1,0,-1
205 560 m 1,4,-1
 216 675 l 1,5,-1
 346 675 l 1,6,-1
 335 560 l 1,7,-1
 205 560 l 1,4,-1
5 560 m 1,8,-1
 16 675 l 1,9,-1
 146 675 l 1,10,-1
 135 560 l 1,11,-1
 5 560 l 1,8,-1
EndSplineSet
EndChar

StartChar: igrave
Encoding: 236 236 214
Width: 263
Flags: W
LayerCount: 2
Fore
SplineSet
55 0 m 1,0,-1
 98 500 l 1,1,-1
 231 500 l 1,2,-1
 188 0 l 1,3,-1
 55 0 l 1,0,-1
158 580 m 1,4,-1
 13 715 l 1,5,-1
 172 715 l 1,6,-1
 264 580 l 1,7,-1
 158 580 l 1,4,-1
EndSplineSet
EndChar

StartChar: ntilde
Encoding: 241 241 215
Width: 524
Flags: W
LayerCount: 2
Fore
SplineSet
55 0 m 1,0,-1
 98 500 l 1,1,-1
 206 500 l 1,2,-1
 211 447 l 1,3,4
 236 475 236 475 269.5 492 c 128,-1,5
 303 509 303 509 347 509 c 0,6,7
 423 509 423 509 453 472.5 c 128,-1,8
 483 436 483 436 483 358 c 0,9,10
 483 338 483 338 480 300 c 2,11,-1
 454 0 l 1,12,-1
 321 0 l 1,13,-1
 347 297 l 2,14,15
 348 305 348 305 348.5 316 c 128,-1,16
 349 327 349 327 349 336 c 0,17,18
 349 371 349 371 336.5 382.5 c 128,-1,19
 324 394 324 394 300 394 c 0,20,21
 279 394 279 394 263 381 c 128,-1,22
 247 368 247 368 236 349.5 c 128,-1,23
 225 331 225 331 219 309 c 128,-1,24
 213 287 213 287 211 269 c 2,25,-1
 188 0 l 1,26,-1
 55 0 l 1,0,-1
167 688 m 1,27,28
 191 707 191 707 218 713.5 c 128,-1,29
 245 720 245 720 265 720 c 0,30,31
 283 720 283 720 301.5 714 c 128,-1,32
 320 708 320 708 338.5 700.5 c 128,-1,33
 357 693 357 693 374 687 c 128,-1,34
 391 681 391 681 406 681 c 0,35,36
 432 681 432 681 455 690.5 c 128,-1,37
 478 700 478 700 499 717 c 1,38,-1
 490 612 l 1,39,40
 469 593 469 593 443 586.5 c 128,-1,41
 417 580 417 580 391 580 c 0,42,43
 372 580 372 580 354 586 c 128,-1,44
 336 592 336 592 318.5 599.5 c 128,-1,45
 301 607 301 607 284 613 c 128,-1,46
 267 619 267 619 251 619 c 0,47,48
 225 619 225 619 200 608 c 128,-1,49
 175 597 175 597 158 583 c 1,50,-1
 167 688 l 1,27,28
EndSplineSet
EndChar

StartChar: oacute
Encoding: 243 243 216
Width: 530
Flags: W
LayerCount: 2
Fore
SplineSet
497 305 m 0,0,1
 497 294 497 294 496.5 283 c 128,-1,2
 496 272 496 272 495 260 c 0,3,4
 488 181 488 181 471.5 129.5 c 128,-1,5
 455 78 455 78 426 47.5 c 128,-1,6
 397 17 397 17 355 5 c 128,-1,7
 313 -7 313 -7 256 -7 c 0,8,9
 209 -7 209 -7 173 2.5 c 128,-1,10
 137 12 137 12 112 36 c 128,-1,11
 87 60 87 60 74.5 100.5 c 128,-1,12
 62 141 62 141 62 202 c 0,13,14
 62 281 62 281 75 338.5 c 128,-1,15
 88 396 88 396 117 433.5 c 128,-1,16
 146 471 146 471 191.5 489 c 128,-1,17
 237 507 237 507 301 507 c 0,18,19
 399 507 399 507 448 458.5 c 128,-1,20
 497 410 497 410 497 305 c 0,0,1
358 245 m 0,21,22
 361 277 361 277 361 300 c 0,23,24
 361 356 361 356 344.5 377.5 c 128,-1,25
 328 399 328 399 291 399 c 0,26,27
 269 399 269 399 253 391.5 c 128,-1,28
 237 384 237 384 226.5 366 c 128,-1,29
 216 348 216 348 210 318.5 c 128,-1,30
 204 289 204 289 200 245 c 0,31,32
 197 212 197 212 197 188 c 0,33,34
 197 138 197 138 212 119.5 c 128,-1,35
 227 101 227 101 265 101 c 0,36,37
 288 101 288 101 304 108 c 128,-1,38
 320 115 320 115 331 131.5 c 128,-1,39
 342 148 342 148 348 175.5 c 128,-1,40
 354 203 354 203 358 245 c 0,21,22
210 580 m 1,41,-1
 321 715 l 1,42,-1
 485 715 l 1,43,-1
 321 580 l 1,44,-1
 210 580 l 1,41,-1
EndSplineSet
EndChar

StartChar: ocircumflex
Encoding: 244 244 217
Width: 530
Flags: W
LayerCount: 2
Fore
SplineSet
497 305 m 0,0,1
 497 294 497 294 496.5 283 c 128,-1,2
 496 272 496 272 495 260 c 0,3,4
 488 181 488 181 471.5 129.5 c 128,-1,5
 455 78 455 78 426 47.5 c 128,-1,6
 397 17 397 17 355 5 c 128,-1,7
 313 -7 313 -7 256 -7 c 0,8,9
 209 -7 209 -7 173 2.5 c 128,-1,10
 137 12 137 12 112 36 c 128,-1,11
 87 60 87 60 74.5 100.5 c 128,-1,12
 62 141 62 141 62 202 c 0,13,14
 62 281 62 281 75 338.5 c 128,-1,15
 88 396 88 396 117 433.5 c 128,-1,16
 146 471 146 471 191.5 489 c 128,-1,17
 237 507 237 507 301 507 c 0,18,19
 399 507 399 507 448 458.5 c 128,-1,20
 497 410 497 410 497 305 c 0,0,1
358 245 m 0,21,22
 361 277 361 277 361 300 c 0,23,24
 361 356 361 356 344.5 377.5 c 128,-1,25
 328 399 328 399 291 399 c 0,26,27
 269 399 269 399 253 391.5 c 128,-1,28
 237 384 237 384 226.5 366 c 128,-1,29
 216 348 216 348 210 318.5 c 128,-1,30
 204 289 204 289 200 245 c 0,31,32
 197 212 197 212 197 188 c 0,33,34
 197 138 197 138 212 119.5 c 128,-1,35
 227 101 227 101 265 101 c 0,36,37
 288 101 288 101 304 108 c 128,-1,38
 320 115 320 115 331 131.5 c 128,-1,39
 342 148 342 148 348 175.5 c 128,-1,40
 354 203 354 203 358 245 c 0,21,22
358 580 m 1,41,-1
 315 654 l 1,42,-1
 258 580 l 1,43,-1
 109 580 l 1,44,-1
 243 715 l 1,45,-1
 391 715 l 1,46,-1
 502 580 l 1,47,-1
 358 580 l 1,41,-1
EndSplineSet
EndChar

StartChar: odieresis
Encoding: 246 246 218
Width: 530
Flags: W
LayerCount: 2
Fore
SplineSet
497 305 m 0,0,1
 497 294 497 294 496.5 283 c 128,-1,2
 496 272 496 272 495 260 c 0,3,4
 488 181 488 181 471.5 129.5 c 128,-1,5
 455 78 455 78 426 47.5 c 128,-1,6
 397 17 397 17 355 5 c 128,-1,7
 313 -7 313 -7 256 -7 c 0,8,9
 209 -7 209 -7 173 2.5 c 128,-1,10
 137 12 137 12 112 36 c 128,-1,11
 87 60 87 60 74.5 100.5 c 128,-1,12
 62 141 62 141 62 202 c 0,13,14
 62 281 62 281 75 338.5 c 128,-1,15
 88 396 88 396 117 433.5 c 128,-1,16
 146 471 146 471 191.5 489 c 128,-1,17
 237 507 237 507 301 507 c 0,18,19
 399 507 399 507 448 458.5 c 128,-1,20
 497 410 497 410 497 305 c 0,0,1
358 245 m 0,21,22
 361 277 361 277 361 300 c 0,23,24
 361 356 361 356 344.5 377.5 c 128,-1,25
 328 399 328 399 291 399 c 0,26,27
 269 399 269 399 253 391.5 c 128,-1,28
 237 384 237 384 226.5 366 c 128,-1,29
 216 348 216 348 210 318.5 c 128,-1,30
 204 289 204 289 200 245 c 0,31,32
 197 212 197 212 197 188 c 0,33,34
 197 138 197 138 212 119.5 c 128,-1,35
 227 101 227 101 265 101 c 0,36,37
 288 101 288 101 304 108 c 128,-1,38
 320 115 320 115 331 131.5 c 128,-1,39
 342 148 342 148 348 175.5 c 128,-1,40
 354 203 354 203 358 245 c 0,21,22
341 560 m 1,41,-1
 352 675 l 1,42,-1
 482 675 l 1,43,-1
 471 560 l 1,44,-1
 341 560 l 1,41,-1
141 560 m 1,45,-1
 152 675 l 1,46,-1
 282 675 l 1,47,-1
 271 560 l 1,48,-1
 141 560 l 1,45,-1
EndSplineSet
EndChar

StartChar: ograve
Encoding: 242 242 219
Width: 530
Flags: W
LayerCount: 2
Fore
SplineSet
497 305 m 0,0,1
 497 294 497 294 496.5 283 c 128,-1,2
 496 272 496 272 495 260 c 0,3,4
 488 181 488 181 471.5 129.5 c 128,-1,5
 455 78 455 78 426 47.5 c 128,-1,6
 397 17 397 17 355 5 c 128,-1,7
 313 -7 313 -7 256 -7 c 0,8,9
 209 -7 209 -7 173 2.5 c 128,-1,10
 137 12 137 12 112 36 c 128,-1,11
 87 60 87 60 74.5 100.5 c 128,-1,12
 62 141 62 141 62 202 c 0,13,14
 62 281 62 281 75 338.5 c 128,-1,15
 88 396 88 396 117 433.5 c 128,-1,16
 146 471 146 471 191.5 489 c 128,-1,17
 237 507 237 507 301 507 c 0,18,19
 399 507 399 507 448 458.5 c 128,-1,20
 497 410 497 410 497 305 c 0,0,1
358 245 m 0,21,22
 360 261 360 261 360.5 274.5 c 128,-1,23
 361 288 361 288 361 300 c 0,24,25
 361 356 361 356 344.5 377.5 c 128,-1,26
 328 399 328 399 291 399 c 0,27,28
 269 399 269 399 253 391.5 c 128,-1,29
 237 384 237 384 226.5 366 c 128,-1,30
 216 348 216 348 210 318.5 c 128,-1,31
 204 289 204 289 200 245 c 0,32,33
 197 212 197 212 197 188 c 0,34,35
 197 138 197 138 212 119.5 c 128,-1,36
 227 101 227 101 265 101 c 0,37,38
 288 101 288 101 304 108 c 128,-1,39
 320 115 320 115 331 131.5 c 128,-1,40
 342 148 342 148 348 175.5 c 128,-1,41
 354 203 354 203 358 245 c 0,21,22
293 580 m 1,42,-1
 148 715 l 1,43,-1
 307 715 l 1,44,-1
 399 580 l 1,45,-1
 293 580 l 1,42,-1
EndSplineSet
EndChar

StartChar: otilde
Encoding: 245 245 220
Width: 530
Flags: W
LayerCount: 2
Fore
SplineSet
497 305 m 0,0,1
 497 294 497 294 496.5 283 c 128,-1,2
 496 272 496 272 495 260 c 0,3,4
 488 181 488 181 471.5 129.5 c 128,-1,5
 455 78 455 78 426 47.5 c 128,-1,6
 397 17 397 17 355 5 c 128,-1,7
 313 -7 313 -7 256 -7 c 0,8,9
 209 -7 209 -7 173 2.5 c 128,-1,10
 137 12 137 12 112 36 c 128,-1,11
 87 60 87 60 74.5 100.5 c 128,-1,12
 62 141 62 141 62 202 c 0,13,14
 62 281 62 281 75 338.5 c 128,-1,15
 88 396 88 396 117 433.5 c 128,-1,16
 146 471 146 471 191.5 489 c 128,-1,17
 237 507 237 507 301 507 c 0,18,19
 399 507 399 507 448 458.5 c 128,-1,20
 497 410 497 410 497 305 c 0,0,1
358 245 m 0,21,22
 361 277 361 277 361 300 c 0,23,24
 361 356 361 356 344.5 377.5 c 128,-1,25
 328 399 328 399 291 399 c 0,26,27
 269 399 269 399 253 391.5 c 128,-1,28
 237 384 237 384 226.5 366 c 128,-1,29
 216 348 216 348 210 318.5 c 128,-1,30
 204 289 204 289 200 245 c 0,31,32
 197 212 197 212 197 188 c 0,33,34
 197 138 197 138 212 119.5 c 128,-1,35
 227 101 227 101 265 101 c 0,36,37
 288 101 288 101 304 108 c 128,-1,38
 320 115 320 115 331 131.5 c 128,-1,39
 342 148 342 148 348 175.5 c 128,-1,40
 354 203 354 203 358 245 c 0,21,22
150 688 m 1,41,42
 174 707 174 707 201 713.5 c 128,-1,43
 228 720 228 720 248 720 c 0,44,45
 266 720 266 720 284.5 714 c 128,-1,46
 303 708 303 708 321.5 700.5 c 128,-1,47
 340 693 340 693 357 687 c 128,-1,48
 374 681 374 681 389 681 c 0,49,50
 415 681 415 681 438 690.5 c 128,-1,51
 461 700 461 700 482 717 c 1,52,-1
 473 612 l 1,53,54
 452 593 452 593 426 586.5 c 128,-1,55
 400 580 400 580 374 580 c 0,56,57
 355 580 355 580 337 586 c 128,-1,58
 319 592 319 592 301.5 599.5 c 128,-1,59
 284 607 284 607 267 613 c 128,-1,60
 250 619 250 619 234 619 c 0,61,62
 208 619 208 619 183 608 c 128,-1,63
 158 597 158 597 141 583 c 1,64,-1
 150 688 l 1,41,42
EndSplineSet
EndChar

StartChar: scaron
Encoding: 353 353 221
Width: 425
Flags: W
LayerCount: 2
Fore
SplineSet
389 175 m 0,0,1
 389 120 389 120 373 84.5 c 128,-1,2
 357 49 357 49 328.5 28 c 128,-1,3
 300 7 300 7 260 -1 c 128,-1,4
 220 -9 220 -9 173 -9 c 0,5,6
 154 -9 154 -9 134 -7.5 c 128,-1,7
 114 -6 114 -6 96 -3.5 c 128,-1,8
 78 -1 78 -1 62.5 1.5 c 128,-1,9
 47 4 47 4 37 7 c 1,10,-1
 47 120 l 1,11,12
 67 115 67 115 98.5 109 c 128,-1,13
 130 103 130 103 165 103 c 0,14,15
 204 103 204 103 227.5 113.5 c 128,-1,16
 251 124 251 124 251 156 c 0,17,18
 251 175 251 175 238.5 184 c 128,-1,19
 226 193 226 193 192 200 c 0,20,21
 121 214 121 214 92.5 249.5 c 128,-1,22
 64 285 64 285 64 333 c 0,23,24
 64 430 64 430 118.5 469.5 c 128,-1,25
 173 509 173 509 282 509 c 0,26,27
 298 509 298 509 316 507.5 c 128,-1,28
 334 506 334 506 350.5 503.5 c 128,-1,29
 367 501 367 501 380.5 498.5 c 128,-1,30
 394 496 394 496 401 494 c 1,31,-1
 391 380 l 1,32,33
 368 387 368 387 341 392 c 128,-1,34
 314 397 314 397 273 397 c 0,35,36
 234 397 234 397 217.5 386 c 128,-1,37
 201 375 201 375 201 350 c 0,38,39
 201 333 201 333 216.5 326.5 c 128,-1,40
 232 320 232 320 262 313 c 0,41,42
 335 297 335 297 362 261.5 c 128,-1,43
 389 226 389 226 389 175 c 0,0,1
225 716 m 1,44,-1
 269 642 l 1,45,-1
 325 716 l 1,46,-1
 474 716 l 1,47,-1
 340 581 l 1,48,-1
 192 581 l 1,49,-1
 81 716 l 1,50,-1
 225 716 l 1,44,-1
EndSplineSet
EndChar

